<svg width="13" height="14" viewBox="0 0 13 14" fill="none" xmlns="http://www.w3.org/2000/svg">
<path d="M6.67026 6.92236C5.80272 6.92236 5.09291 6.63391 4.54083 6.057C3.98876 5.4801 3.71272 4.73837 3.71272 3.83181C3.71272 2.92526 3.98876 2.18352 4.54083 1.60662C5.09291 1.02972 5.80272 0.741272 6.67026 0.741272C7.53781 0.741272 8.24762 1.02972 8.7997 1.60662C9.35177 2.18352 9.62781 2.92526 9.62781 3.83181C9.62781 4.73837 9.35177 5.4801 8.7997 6.057C8.24762 6.63391 7.53781 6.92236 6.67026 6.92236ZM0.36084 13.5361V11.5994C0.36084 11.0774 0.485714 10.631 0.735462 10.2601C0.98521 9.88928 1.30725 9.60769 1.70159 9.41539C2.58228 9.00332 3.42683 8.69427 4.23522 8.48823C5.04362 8.28219 5.8553 8.17918 6.67026 8.17918C7.48523 8.17918 8.29363 8.28563 9.09545 8.49853C9.89727 8.71144 10.738 9.01839 11.6177 9.41939C12.0291 9.61342 12.359 9.89477 12.6073 10.2634C12.8555 10.6321 12.9797 11.0774 12.9797 11.5994V13.5361H0.36084ZM1.54386 12.2999H11.7967V11.5994C11.7967 11.3796 11.7342 11.1701 11.6094 10.971C11.4845 10.7718 11.33 10.6241 11.146 10.528C10.3048 10.1022 9.5358 9.8103 8.83913 9.65234C8.14246 9.49437 7.41951 9.41539 6.67026 9.41539C5.92102 9.41539 5.19149 9.49437 4.48168 9.65234C3.77187 9.8103 3.00291 10.1022 2.1748 10.528C1.99077 10.6241 1.83961 10.7718 1.72131 10.971C1.60301 11.1701 1.54386 11.3796 1.54386 11.5994V12.2999ZM6.67026 5.68614C7.18291 5.68614 7.60682 5.51101 7.94201 5.16075C8.2772 4.81049 8.44479 4.36751 8.44479 3.83181C8.44479 3.29612 8.2772 2.85314 7.94201 2.50288C7.60682 2.15262 7.18291 1.97749 6.67026 1.97749C6.15762 1.97749 5.73371 2.15262 5.39852 2.50288C5.06333 2.85314 4.89574 3.29612 4.89574 3.83181C4.89574 4.36751 5.06333 4.81049 5.39852 5.16075C5.73371 5.51101 6.15762 5.68614 6.67026 5.68614Z" fill="#FEBA31"/>
</svg>
