<svg width="60" height="60" viewBox="0 0 60 60" fill="none" xmlns="http://www.w3.org/2000/svg">
<path d="M30 60C46.5685 60 60 46.5685 60 30C60 13.4315 46.5685 0 30 0C13.4315 0 0 13.4315 0 30C0 46.5685 13.4315 60 30 60Z" fill="#DF1D25"/>
<path d="M16.4074 19.09C16.6671 18.8736 16.9702 18.6138 17.3165 18.6571C17.6195 18.7437 17.7061 19.09 17.836 19.3498C18.0524 19.7827 18.4853 20.0857 18.442 20.6052C18.3122 21.5575 17.836 22.3801 17.5329 23.2892C16.8836 24.8043 16.5373 26.4493 16.1477 28.0943C17.4031 27.8779 18.6152 27.7047 19.8706 27.5749C20.4767 27.4883 20.9961 28.1376 20.6931 28.7004C20.0438 29.9991 19.3078 31.2545 18.7884 32.5965C18.7018 32.8563 18.6152 33.116 18.6152 33.3757C19.0481 33.3757 19.3078 32.9428 19.6109 32.6398C20.7797 31.2978 21.7754 29.7394 22.468 28.0943C22.6412 27.7913 22.5546 27.3584 22.8576 27.1853C23.2905 26.9255 23.9399 26.6658 24.4161 27.0121C24.7624 27.2718 24.5459 27.748 24.4594 28.1376C24.849 27.6614 25.2386 27.2285 25.7148 26.8822C26.2775 26.4493 27.1866 26.8389 27.4464 27.445C27.5762 27.7913 27.3598 28.0943 27.1 28.3108C26.5373 28.787 25.8013 28.7437 25.152 29.0467C24.4593 29.3065 23.9832 29.8692 23.5935 30.4753C22.771 31.6008 22.1217 32.9428 22.0351 34.3714C22.0351 34.5446 22.0351 34.761 21.8619 34.8909C21.5156 35.1073 21.126 35.3238 20.7364 35.3238C20.4334 35.3238 20.1736 35.064 20.1303 34.761C20.0005 34.3281 20.1303 33.8952 20.2169 33.4623C19.7407 34.2415 19.1347 34.9775 18.442 35.5835C18.0524 35.9298 17.5329 36.0597 17.0135 35.8866C16.6671 35.7134 16.494 35.2805 16.4507 34.8909C16.3641 34.1117 16.6239 33.3324 16.8836 32.5965C17.3165 31.471 17.836 30.3454 18.3555 29.2632C17.4897 29.4363 16.6239 29.6095 15.7581 29.8259C15.4117 31.5143 15.1953 33.2459 15.0221 34.9342C14.9788 35.3671 15.0221 35.8866 14.7191 36.2762C14.3295 36.7524 13.5503 36.7091 13.2039 36.2329C12.8143 35.6701 12.8143 34.9775 12.8576 34.3281C12.9875 32.9861 13.2905 31.6441 13.5935 30.3454C12.5979 30.6485 11.5589 30.9082 10.5632 31.2112C9.82731 32.5965 9.13467 34.0251 8.48532 35.4537C7.83597 36.9688 7.14333 38.484 6.75372 40.0857C6.62385 40.4753 6.4074 40.9515 5.9745 40.9948C5.06541 40.9948 4.37277 40.0424 4.63251 39.1766C4.97883 38.0511 5.45502 36.9255 5.93121 35.8433C6.45069 34.6311 7.05675 33.419 7.66281 32.2502C6.8403 32.5965 6.06108 32.9428 5.28186 33.3757C4.93554 33.5922 4.45935 33.5056 4.19961 33.2026C3.81 32.5965 3.89658 31.6441 4.58922 31.3411C5.93121 30.735 7.31649 30.2156 8.74506 29.7827C8.87493 29.7394 9.04809 29.6961 9.09138 29.5662C10.6931 26.7956 12.4247 24.0251 14.3295 21.4277C14.9788 20.6485 15.6282 19.7827 16.4074 19.09ZM11.7321 28.9601C12.5113 28.787 13.2905 28.6571 14.0697 28.3974C14.5459 26.3195 15.2386 24.2848 15.9745 22.2502C14.3728 24.4147 13.0308 26.6658 11.7321 28.9601Z" fill="white"/>
<path d="M38.0534 19.176C38.3564 18.9162 38.6595 18.6132 39.0924 18.6565C39.3521 18.7431 39.4387 19.0461 39.5253 19.2626C39.6551 19.5656 39.8716 19.782 40.0447 20.0418C40.2612 20.3881 40.1313 20.821 40.0015 21.2106C39.6551 22.2929 39.1357 23.3751 38.746 24.4574C38.3564 25.6262 38.14 26.8816 37.7937 28.0504C38.3997 28.0072 39.1357 27.7907 39.6984 28.137C39.8283 28.5699 39.6984 29.176 39.2222 29.3059C38.6162 29.5223 37.9668 29.5656 37.4041 29.782C37.0577 31.4704 36.8413 33.202 36.6681 34.9336C36.6248 35.3232 36.6248 35.6695 36.495 36.0158C36.3218 36.5353 35.6292 36.7084 35.153 36.4487C34.7634 36.2323 34.5902 35.7561 34.5469 35.3232C34.4603 34.7604 34.5036 34.1543 34.5902 33.5916C34.7634 32.466 34.9798 31.3405 35.2828 30.2149C34.2439 30.4747 33.2482 30.7777 32.2525 31.124C30.9105 33.7647 29.6118 36.492 28.6595 39.3059C28.4863 39.8686 28.443 40.6478 27.837 40.9076C26.8846 41.0807 26.0188 39.9985 26.3218 39.0894C27.101 36.7085 28.2266 34.4141 29.3521 32.163C28.5296 32.5093 27.7504 32.8989 27.0144 33.3318C26.7547 33.505 26.4084 33.505 26.1919 33.2885C25.759 32.9422 25.8456 32.2929 25.8889 31.8167C26.1486 31.2972 26.7547 31.124 27.2309 30.9076C28.3997 30.3881 29.6118 29.9985 30.824 29.6089C32.2092 27.2712 33.5945 24.9768 35.153 22.7691C35.9755 21.5569 36.8846 20.2582 38.0534 19.176ZM33.4647 28.9595C34.2006 28.7864 34.9798 28.6132 35.7157 28.4833C36.2785 26.4054 36.8846 24.3275 37.6638 22.2929C36.1054 24.4141 34.7634 26.6652 33.4647 28.9595Z" fill="white"/>
<path d="M48.0055 22.9455C48.4817 22.729 49.2176 22.8589 49.3907 23.4649C49.6505 24.4606 48.5682 25.4996 47.5726 25.2831C47.2262 25.1965 46.9665 24.8502 46.9665 24.5039C46.8799 23.768 47.3994 23.1619 48.0055 22.9455Z" fill="white"/>
<path d="M21.0411 23.8528C21.5173 23.6364 22.1667 23.7229 22.4264 24.2424C22.7727 25.1082 21.9935 26.0606 21.1277 26.1905C20.6515 26.2771 20.1321 26.0173 20.0455 25.5411C19.9156 24.8052 20.4351 24.1126 21.0411 23.8528Z" fill="white"/>
<path d="M52.031 25.5821C52.4639 25.3657 53.0267 25.3224 53.4163 25.6687C53.6761 25.8852 53.7194 26.2315 53.8925 26.4912C54.1956 26.751 54.6717 26.7942 54.9315 27.1839C54.9748 27.4436 54.8882 27.7033 54.7583 27.9198C54.2388 28.7856 53.7627 29.6514 53.4163 30.5605C53.3298 30.7769 53.2432 31.1232 53.5029 31.2531C53.8059 31.2964 53.9791 31.08 54.1956 30.9068C54.6717 30.4739 54.9748 29.9111 55.3211 29.3916C55.451 29.1752 55.7107 29.0886 55.9704 29.1752C56.1436 29.2618 56.1436 29.4782 56.1003 29.6514C55.7973 30.5172 55.2345 31.2531 54.6717 31.9025C54.1523 32.4652 53.5462 33.028 52.8103 33.2878C52.464 33.4176 52.0311 33.4609 51.6847 33.2012C51.3817 32.9847 51.3384 32.6384 51.2518 32.2921C50.6891 32.8116 50.2129 33.4609 49.5202 33.7639C48.9575 34.0237 48.1782 34.0237 47.7886 33.4609C47.4423 33.0713 47.4423 32.5085 47.4856 32.0323C46.8795 32.8981 46.2302 33.7639 45.3644 34.37C44.9748 34.673 44.412 34.8462 43.9358 34.673C43.4596 34.4566 43.3298 33.8938 43.373 33.4176C43.4596 32.3354 43.9358 31.3397 44.3687 30.344C44.8882 29.1752 45.6674 28.0929 46.057 26.8375C46.4899 26.3613 47.3557 26.1449 47.8752 26.6211C48.1349 26.8375 48.0917 27.2271 48.0051 27.5302C47.3124 28.9155 46.4466 30.2574 45.7973 31.686C45.7107 31.9025 45.6674 32.1189 45.6674 32.3354C46.1003 32.2921 46.3601 31.9458 46.6198 31.6427C47.7886 30.1709 48.8276 28.6124 50.0397 27.2271C50.5592 26.6211 51.2085 25.9717 52.031 25.5821ZM52.1176 27.4003C51.0787 28.3527 50.3427 29.6081 49.7367 30.8635C49.5635 31.2531 49.2605 31.7293 49.5202 32.1622C50.1696 31.9891 50.5592 31.4263 50.9488 30.9501C51.6847 29.9544 52.2908 28.8722 52.7237 27.7466C52.767 27.5302 52.9401 27.2271 52.7237 27.0973C52.5072 27.054 52.2908 27.2704 52.1176 27.4003Z" fill="white"/>
<path d="M42.1625 27.2709C42.7253 27.0977 43.3314 27.141 43.8941 27.3575C44.2405 27.5307 44.5435 27.877 44.5435 28.2666C44.5002 28.6562 44.2837 29.0025 44.024 29.2623C43.8941 29.4354 43.6344 29.4354 43.4179 29.3488C43.1582 29.0458 43.0283 28.6129 42.5954 28.5263C42.2058 28.5263 41.7729 28.7428 41.643 29.0891C41.4266 29.5653 41.4699 30.1713 41.7729 30.6042C42.1192 31.1237 42.5954 31.5566 42.682 32.206C42.7686 33.2449 42.3357 34.3705 41.4266 34.9765C40.6907 35.496 39.8249 35.7558 38.9591 35.6259C38.353 35.496 37.7469 35.193 37.4872 34.5869C37.2708 34.1107 37.5738 33.6345 37.7469 33.2016C37.8335 32.9852 38.05 32.5523 38.353 32.7687C38.7426 33.1584 39.1322 33.5913 39.7383 33.7644C40.0846 33.8943 40.5608 33.7211 40.6041 33.3315C40.6041 32.8986 40.2578 32.6389 40.0413 32.3358C39.5218 31.5999 39.4785 30.6042 39.7816 29.7817C40.2145 28.6562 41.037 27.6605 42.1625 27.2709Z" fill="white"/>
</svg>
