<svg width="17" height="16" viewBox="0 0 17 16" fill="none" xmlns="http://www.w3.org/2000/svg">
<path d="M8.67825 15.9733C12.9833 15.9733 16.4732 12.4833 16.4732 8.17831C16.4732 3.87328 12.9833 0.383362 8.67825 0.383362C4.37322 0.383362 0.883301 3.87328 0.883301 8.17831C0.883301 12.4833 4.37322 15.9733 8.67825 15.9733Z" fill="#DF1D25"/>
<path d="M5.14651 5.34376C5.214 5.28752 5.29273 5.22003 5.38272 5.23128C5.46145 5.25378 5.48395 5.34376 5.5177 5.41125C5.57394 5.52373 5.68642 5.60247 5.67517 5.73745C5.64142 5.98491 5.5177 6.19862 5.43896 6.43483C5.27024 6.82852 5.18025 7.25594 5.07902 7.68337C5.40521 7.62713 5.72016 7.58214 6.04636 7.5484C6.20383 7.5259 6.33881 7.69462 6.26007 7.84085C6.09135 8.17829 5.90013 8.50449 5.76515 8.85318C5.74266 8.92067 5.72016 8.98816 5.72016 9.05564C5.83264 9.05564 5.90013 8.94316 5.97887 8.86443C6.28257 8.51574 6.54127 8.1108 6.72124 7.68337C6.76624 7.60464 6.74374 7.49216 6.82248 7.44716C6.93496 7.37967 7.10368 7.31219 7.22741 7.40217C7.3174 7.46966 7.26115 7.59339 7.23866 7.69462C7.33989 7.57089 7.44113 7.45841 7.56485 7.36843C7.71108 7.25594 7.94729 7.35718 8.01478 7.51465C8.04852 7.60464 7.99228 7.68337 7.92479 7.73961C7.77857 7.86334 7.58735 7.8521 7.41863 7.93083C7.23866 7.99832 7.11493 8.14455 7.0137 8.30202C6.79998 8.59447 6.63126 8.94316 6.60876 9.31435C6.60876 9.35934 6.60876 9.41558 6.56377 9.44933C6.47379 9.50557 6.37255 9.56181 6.27132 9.56181C6.19258 9.56181 6.12509 9.49432 6.11385 9.41559C6.0801 9.3031 6.11385 9.19062 6.13634 9.07814C6.01261 9.28061 5.85514 9.47183 5.67517 9.6293C5.57394 9.71928 5.43896 9.75303 5.30398 9.70804C5.214 9.66304 5.169 9.55056 5.15776 9.44933C5.13526 9.24686 5.20275 9.0444 5.27024 8.85318C5.38272 8.56073 5.5177 8.26828 5.65267 7.98707C5.42771 8.03207 5.20275 8.07706 4.97779 8.1333C4.8878 8.57198 4.83156 9.0219 4.78657 9.46058C4.77532 9.57306 4.78657 9.70804 4.70783 9.80927C4.6066 9.933 4.40413 9.92175 4.31415 9.79802C4.21291 9.6518 4.21291 9.47183 4.22416 9.3031C4.25791 8.95441 4.33664 8.60572 4.41538 8.26828C4.15667 8.34701 3.88672 8.4145 3.62801 8.49324C3.43679 8.85318 3.25682 9.22437 3.0881 9.59556C2.91938 9.98924 2.73941 10.3829 2.63817 10.7991C2.60443 10.9003 2.54819 11.0241 2.43571 11.0353C2.1995 11.0353 2.01953 10.7879 2.08702 10.5629C2.177 10.2704 2.30073 9.97799 2.42446 9.69679C2.55944 9.38184 2.71691 9.06689 2.87439 8.76319C2.66067 8.85318 2.4582 8.94316 2.25574 9.05564C2.16575 9.11189 2.04202 9.08939 1.97454 9.01065C1.8733 8.85318 1.8958 8.60572 2.07577 8.52698C2.42446 8.36951 2.7844 8.23453 3.15559 8.12205C3.18933 8.1108 3.23433 8.09955 3.24557 8.06581C3.66175 7.34593 4.11168 6.62605 4.6066 5.95116C4.77532 5.7487 4.94404 5.52373 5.14651 5.34376ZM3.93171 7.90834C4.13418 7.86334 4.33664 7.8296 4.53911 7.76211C4.66284 7.2222 4.84281 6.69354 5.03403 6.16488C4.61785 6.72728 4.26915 7.31219 3.93171 7.90834Z" fill="white"/>
<path d="M10.7703 5.36628C10.849 5.29879 10.9278 5.22006 11.0402 5.23131C11.1077 5.2538 11.1302 5.33254 11.1527 5.38878C11.1865 5.46752 11.2427 5.52376 11.2877 5.59125C11.3439 5.68123 11.3102 5.79371 11.2764 5.89494C11.1865 6.17615 11.0515 6.45735 10.9502 6.73855C10.849 7.04225 10.7928 7.36845 10.7028 7.67215C10.8603 7.6609 11.0515 7.60466 11.1977 7.69465C11.2315 7.80713 11.1977 7.9646 11.074 7.99834C10.9165 8.05459 10.7478 8.06583 10.6016 8.12207C10.5116 8.56075 10.4553 9.01068 10.4103 9.4606C10.3991 9.56183 10.3991 9.65182 10.3653 9.7418C10.3204 9.87678 10.1404 9.92177 10.0167 9.85429C9.91542 9.79804 9.87043 9.67432 9.85918 9.56183C9.83668 9.41561 9.84793 9.25813 9.87043 9.11191C9.91542 8.81946 9.97166 8.52701 10.0504 8.23456C9.78044 8.30204 9.52174 8.38078 9.26303 8.47077C8.91434 9.1569 8.57689 9.86553 8.32944 10.5967C8.28444 10.7429 8.2732 10.9454 8.11572 11.0128C7.86826 11.0578 7.6433 10.7766 7.72204 10.5404C7.9245 9.92177 8.21695 9.32562 8.50941 8.74072C8.29569 8.83071 8.09322 8.93194 7.90201 9.04442C7.83452 9.08941 7.74453 9.08941 7.68829 9.03317C7.57581 8.94319 7.59831 8.77447 7.60956 8.65074C7.67704 8.51576 7.83452 8.47077 7.95825 8.41453C8.26195 8.27955 8.57689 8.17831 8.89184 8.07708C9.25178 7.46968 9.61172 6.87353 10.0167 6.29988C10.2304 5.98493 10.4666 5.64749 10.7703 5.36628ZM9.57798 7.90836C9.7692 7.86337 9.97166 7.81838 10.1629 7.78463C10.3091 7.24472 10.4666 6.70481 10.669 6.17615C10.2641 6.72731 9.91542 7.31221 9.57798 7.90836Z" fill="white"/>
<path d="M13.3576 6.34487C13.4814 6.28863 13.6726 6.32238 13.7176 6.47985C13.7851 6.73856 13.5038 7.00851 13.2451 6.95227C13.1552 6.92977 13.0877 6.83979 13.0877 6.7498C13.0652 6.55859 13.2001 6.40111 13.3576 6.34487Z" fill="white"/>
<path d="M6.34986 6.58105C6.47359 6.52481 6.64231 6.54731 6.7098 6.68229C6.79979 6.90725 6.59732 7.15471 6.37236 7.18845C6.24863 7.21095 6.11365 7.14346 6.09116 7.01973C6.05741 6.82851 6.19239 6.64854 6.34986 6.58105Z" fill="white"/>
<path d="M14.4035 7.03097C14.516 6.97473 14.6622 6.96348 14.7634 7.05347C14.8309 7.10971 14.8422 7.19969 14.8872 7.26718C14.9659 7.33467 15.0896 7.34592 15.1571 7.44715C15.1684 7.51464 15.1459 7.58213 15.1121 7.63837C14.9772 7.86333 14.8534 8.0883 14.7634 8.32451C14.741 8.38075 14.7185 8.47073 14.7859 8.50448C14.8647 8.51573 14.9097 8.45949 14.9659 8.41449C15.0896 8.30201 15.1684 8.15579 15.2584 8.02081C15.2921 7.96457 15.3596 7.94207 15.4271 7.96457C15.4721 7.98706 15.4721 8.0433 15.4608 8.0883C15.3821 8.31326 15.2359 8.50448 15.0896 8.6732C14.9547 8.81942 14.7972 8.96565 14.606 9.03314C14.516 9.06688 14.4035 9.07813 14.3135 9.01064C14.2348 8.9544 14.2235 8.86442 14.201 8.77443C14.0548 8.90941 13.9311 9.07813 13.7511 9.15687C13.6049 9.22436 13.4024 9.22436 13.3012 9.07813C13.2112 8.9769 13.2112 8.83067 13.2225 8.70694C13.065 8.93191 12.8963 9.15687 12.6713 9.31434C12.5701 9.39308 12.4238 9.43807 12.3001 9.39308C12.1764 9.33684 12.1426 9.19061 12.1539 9.06688C12.1764 8.78568 12.3001 8.52697 12.4126 8.26827C12.5476 7.96457 12.75 7.68336 12.8513 7.35717C12.9637 7.23344 13.1887 7.1772 13.3237 7.30093C13.3912 7.35717 13.3799 7.4584 13.3574 7.53714C13.1775 7.89708 12.9525 8.24577 12.7838 8.61696C12.7613 8.6732 12.75 8.72944 12.75 8.78568C12.8625 8.77443 12.93 8.68445 12.9975 8.60571C13.3012 8.22327 13.5711 7.81834 13.8861 7.4584C14.0211 7.30093 14.1898 7.13221 14.4035 7.03097ZM14.426 7.50339C14.1561 7.75085 13.9648 8.07705 13.8074 8.40324C13.7624 8.50448 13.6836 8.62821 13.7511 8.74069C13.9198 8.6957 14.0211 8.54947 14.1223 8.42574C14.3135 8.16703 14.471 7.88583 14.5835 7.59338C14.5947 7.53714 14.6397 7.4584 14.5835 7.42466C14.5272 7.41341 14.471 7.46965 14.426 7.50339Z" fill="white"/>
<path d="M11.8388 7.46966C11.985 7.42466 12.1425 7.43591 12.2887 7.49215C12.3787 7.53715 12.4574 7.62713 12.4574 7.72836C12.4462 7.8296 12.39 7.91958 12.3225 7.98707C12.2887 8.03206 12.2212 8.03206 12.165 8.00957C12.0975 7.93083 12.0638 7.81835 11.9513 7.79585C11.8501 7.79585 11.7376 7.85209 11.7038 7.94208C11.6476 8.06581 11.6588 8.22328 11.7376 8.33576C11.8276 8.47074 11.9513 8.58322 11.9738 8.75194C11.9963 9.0219 11.8838 9.31435 11.6476 9.47182C11.4564 9.6068 11.2314 9.67429 11.0064 9.64055C10.849 9.6068 10.6915 9.52806 10.624 9.37059C10.5678 9.24686 10.6465 9.12313 10.6915 9.01065C10.714 8.95441 10.7702 8.84193 10.849 8.89817C10.9502 8.9994 11.0514 9.11188 11.2089 9.15688C11.2989 9.19062 11.4226 9.14563 11.4339 9.04439C11.4339 8.93191 11.3439 8.86442 11.2876 8.78569C11.1527 8.59447 11.1414 8.33576 11.2202 8.12205C11.3326 7.8296 11.5464 7.57089 11.8388 7.46966Z" fill="white"/>
</svg>
