<svg width="16" height="17" viewBox="0 0 16 17" fill="none" xmlns="http://www.w3.org/2000/svg">
<g clip-path="url(#clip0_44_200)">
<path d="M8.00003 4.25635C4.6358 4.25635 1.89868 6.82242 1.89868 9.97636C1.89868 13.1305 4.63583 15.6966 8.00003 15.6966C11.3645 15.6966 14.1014 13.1305 14.1014 9.97636C14.1014 6.82242 11.3643 4.25635 8.00003 4.25635ZM8.00003 14.6599C5.24557 14.6599 3.00465 12.5589 3.00465 9.97657C3.00465 7.39427 5.24554 5.29339 8.00003 5.29339C10.7545 5.29339 12.9954 7.39427 12.9954 9.97657C12.9954 12.559 10.7545 14.6599 8.00003 14.6599Z" fill="#24A9E1"/>
<path d="M9.69585 9.80355H8.22123V7.79895C8.22123 7.51261 7.97367 7.28052 7.66823 7.28052C7.3628 7.28052 7.11523 7.51261 7.11523 7.79895V10.322C7.11523 10.6083 7.3628 10.8404 7.66823 10.8404H9.69588C10.0013 10.8404 10.2489 10.6083 10.2489 10.322C10.2488 10.0356 10.0013 9.80355 9.69585 9.80355Z" fill="#24A9E1"/>
<path d="M4.86762 13.6868C4.64052 13.4952 4.29084 13.5126 4.08662 13.7253L2.42763 15.4534C2.22319 15.6662 2.24181 15.994 2.46872 16.1855C2.57434 16.2748 2.70669 16.3187 2.8385 16.3187C2.98984 16.3187 3.14062 16.2608 3.24975 16.147L4.90874 14.4189C5.11315 14.2061 5.09452 13.8783 4.86762 13.6868Z" fill="#24A9E1"/>
<path d="M13.5725 15.4536L11.9135 13.7255C11.7096 13.5126 11.3598 13.4953 11.1326 13.687C10.9056 13.8785 10.8873 14.2063 11.0916 14.419L12.7505 16.1471C12.8595 16.2608 13.0103 16.3187 13.1616 16.3187C13.2932 16.3187 13.4256 16.2748 13.5314 16.1857C13.7585 15.9942 13.7767 15.6663 13.5725 15.4536Z" fill="#24A9E1"/>
<path d="M4.77386 3.43692C3.67506 2.42823 1.90384 2.42978 0.825691 3.44072C0.289256 3.94343 -0.00383705 4.60858 3.7937e-05 5.31364C0.00410042 6.01023 0.298662 6.66243 0.829722 7.1501C0.937378 7.24878 1.07691 7.29802 1.21663 7.29802C1.35819 7.29802 1.49975 7.24722 1.60759 7.1463L4.77808 4.17396C4.88242 4.076 4.94067 3.94308 4.93992 3.80468C4.93921 3.66622 4.87946 3.53386 4.77386 3.43692ZM1.27728 5.98948C1.1665 5.78022 1.10731 5.54866 1.10603 5.3081C1.10363 4.8823 1.28169 4.47929 1.60759 4.17376C1.93275 3.8691 2.36262 3.71685 2.79487 3.71685C3.04759 3.71685 3.30124 3.76885 3.53496 3.87288L1.27728 5.98948Z" fill="#24A9E1"/>
<path d="M15.1744 3.44054C14.0961 2.42977 12.3248 2.42804 11.226 3.43673C11.1206 3.53367 11.0607 3.66606 11.0599 3.80446C11.0592 3.94289 11.1176 4.07595 11.222 4.17375L14.3925 7.14608C14.5003 7.24736 14.6419 7.29798 14.7834 7.29798C14.9231 7.29798 15.0629 7.24873 15.1703 7.14971C15.7016 6.66221 15.9961 6.01004 16 5.31342C16.0039 4.60857 15.7106 3.94342 15.1744 3.44054ZM14.7228 5.98947L12.4651 3.8729C13.0988 3.59086 13.8773 3.69094 14.3925 4.17392C14.7184 4.47946 14.8965 4.88226 14.8941 5.30826C14.8927 5.54864 14.8336 5.78038 14.7228 5.98947Z" fill="#24A9E1"/>
</g>
<defs>
<clipPath id="clip0_44_200">
<rect width="16" height="15.4418" fill="white" transform="translate(0 0.910217)"/>
</clipPath>
</defs>
</svg>
