<svg width="16" height="10" viewBox="0 0 16 10" fill="none" xmlns="http://www.w3.org/2000/svg">
<path d="M10.2518 1.05292L10.7472 0.595098C10.957 0.401244 11.2963 0.401244 11.5038 0.595098L15.8427 4.6021C16.0524 4.79595 16.0524 5.10942 15.8427 5.30121L11.5038 9.31028C11.2941 9.50413 10.9548 9.50413 10.7472 9.31028L10.2518 8.85245C10.0397 8.65654 10.0442 8.33688 10.2607 8.14509L12.9501 5.7776H0.535654C0.238813 5.7776 0 5.55693 0 5.28265V4.62272C0 4.34844 0.238813 4.12778 0.535654 4.12778H12.9501L10.2607 1.76028C10.042 1.56849 10.0375 1.24884 10.2518 1.05292Z" fill="#24A9E1"/>
</svg>
