<svg width="23" height="23" viewBox="0 0 23 23" fill="none" xmlns="http://www.w3.org/2000/svg">
<path d="M8.47879 19.1301H4.52976V14.5104C4.52976 13.5258 4.91692 12.9957 5.78416 12.8897H8.49428C8.9208 12.8551 9.34989 12.912 9.75163 13.0563C10.1534 13.2006 10.5181 13.4289 10.8203 13.7252C11.1226 14.0216 11.3551 14.3789 11.5017 14.7721C11.6483 15.1654 11.7054 15.5852 11.669 16.0023C11.669 17.9714 10.4533 19.1452 8.49428 19.1452L8.47879 19.1301ZM4.52202 6.64175V5.43003C4.52202 4.36977 4.98661 3.85479 5.99323 3.7942H8.02194C9.75642 3.7942 10.8095 4.80902 10.8095 6.52058C10.8095 7.80803 10.0971 9.32269 8.09937 9.32269H4.53751L4.52202 6.64175ZM13.5351 11.2614L12.8227 10.8676L13.4422 10.3375C14.17 9.73164 15.378 8.35331 15.378 5.98288C15.378 2.34771 12.4975 0 8.04517 0H2.39264C1.75436 0.0214481 1.14919 0.283118 0.703395 0.730419C0.2576 1.17772 0.00561086 1.7761 0 2.40072V23H8.14583C13.1015 23 16.2917 20.3645 16.2917 16.2749C16.2917 14.0787 15.2618 12.1854 13.5196 11.2387" fill="#273B7D"/>
<path d="M17.25 20.125C17.25 18.5347 18.5304 17.25 20.1171 17.25C21.7039 17.25 23 18.5347 23 20.125C23 21.7153 21.7117 23 20.1171 23C18.5225 23 17.25 21.7153 17.25 20.125Z" fill="#499FDD"/>
</svg>
