<svg width="14" height="21" viewBox="0 0 14 21" fill="none" xmlns="http://www.w3.org/2000/svg">
<path d="M11.4546 2.88354H10.2046V1.63354C10.5497 1.63354 10.8296 1.3537 10.8296 1.00854C10.8296 0.663389 10.5497 0.383545 10.2046 0.383545C9.31279 0.383545 4.8485 0.383545 3.95459 0.383545C3.60943 0.383545 3.32959 0.663389 3.32959 1.00854C3.32959 1.3537 3.60943 1.63354 3.95459 1.63354V2.88354H2.70459C1.32607 2.88354 0.20459 4.00503 0.20459 5.38354V16.6335C0.20459 18.0121 1.32607 19.1335 2.70459 19.1335H3.01709V19.7585C3.01709 20.1037 3.29693 20.3835 3.64209 20.3835C3.98725 20.3835 4.26709 20.1037 4.26709 19.7585V19.1335H9.89209V19.7585C9.89209 20.1037 10.1719 20.3835 10.5171 20.3835C10.8622 20.3835 11.1421 20.1037 11.1421 19.7585V19.1335H11.4546C12.8331 19.1335 13.9546 18.0121 13.9546 16.6335V5.38354C13.9546 4.00503 12.8331 2.88354 11.4546 2.88354ZM5.20459 1.63354H8.95459V2.88354H5.20459V1.63354ZM4.57959 15.696C4.57959 16.0414 4.2999 16.321 3.95459 16.321C3.60928 16.321 3.32959 16.0414 3.32959 15.696V6.32104C3.32959 5.97573 3.60928 5.69604 3.95459 5.69604C4.2999 5.69604 4.57959 5.97573 4.57959 6.32104V15.696ZM7.70459 15.696C7.70459 16.0414 7.4249 16.321 7.07959 16.321C6.73428 16.321 6.45459 16.0414 6.45459 15.696V6.32104C6.45459 5.97573 6.73428 5.69604 7.07959 5.69604C7.4249 5.69604 7.70459 5.97573 7.70459 6.32104V15.696ZM9.57959 15.696V6.32104C9.57959 5.97573 9.85928 5.69604 10.2046 5.69604C10.5499 5.69604 10.8296 5.97573 10.8296 6.32104V15.696C10.8296 16.0414 10.5499 16.321 10.2046 16.321C9.85928 16.321 9.57959 16.0414 9.57959 15.696Z" fill="#034265"/>
</svg>
