<svg width="8" height="12" viewBox="0 0 8 12" fill="none" xmlns="http://www.w3.org/2000/svg">
<path d="M6.54545 1.5H5.81818V0.75C6.019 0.75 6.18182 0.582094 6.18182 0.375C6.18182 0.167906 6.019 0 5.81818 0C5.29932 0 2.70191 0 2.18182 0C1.981 0 1.81818 0.167906 1.81818 0.375C1.81818 0.582094 1.981 0.75 2.18182 0.75V1.5H1.45455C0.6525 1.5 0 2.17289 0 3V9.75C0 10.5771 0.6525 11.25 1.45455 11.25H1.63636V11.625C1.63636 11.8321 1.79918 12 2 12C2.20082 12 2.36364 11.8321 2.36364 11.625V11.25H5.63636V11.625C5.63636 11.8321 5.79918 12 6 12C6.20082 12 6.36364 11.8321 6.36364 11.625V11.25H6.54545C7.3475 11.25 8 10.5771 8 9.75V3C8 2.17289 7.3475 1.5 6.54545 1.5ZM2.90909 0.75H5.09091V1.5H2.90909V0.75ZM2.54545 9.1875C2.54545 9.39469 2.38273 9.5625 2.18182 9.5625C1.98091 9.5625 1.81818 9.39469 1.81818 9.1875V3.5625C1.81818 3.35531 1.98091 3.1875 2.18182 3.1875C2.38273 3.1875 2.54545 3.35531 2.54545 3.5625V9.1875ZM4.36364 9.1875C4.36364 9.39469 4.20091 9.5625 4 9.5625C3.79909 9.5625 3.63636 9.39469 3.63636 9.1875V3.5625C3.63636 3.35531 3.79909 3.1875 4 3.1875C4.20091 3.1875 4.36364 3.35531 4.36364 3.5625V9.1875ZM5.45455 9.1875V3.5625C5.45455 3.35531 5.61727 3.1875 5.81818 3.1875C6.01909 3.1875 6.18182 3.35531 6.18182 3.5625V9.1875C6.18182 9.39469 6.01909 9.5625 5.81818 9.5625C5.61727 9.5625 5.45455 9.39469 5.45455 9.1875Z" fill="#034265"/>
</svg>
