<svg width="9" height="12" viewBox="0 0 9 12" fill="none" xmlns="http://www.w3.org/2000/svg">
<path d="M5.40538 0H3.00858C2.43133 0 1.96149 0.469574 1.96149 1.04709V4.27674H0.958448C0.428798 4.27674 0 4.70607 0 5.23519V10.33C0 10.8594 0.428798 11.2887 0.958448 11.2887H1.45495C1.45495 11.6814 1.77363 12 2.16623 12C2.55914 12 2.87779 11.6813 2.87779 11.2887H5.84833C5.84833 11.6814 6.16701 12 6.55988 12C6.95252 12 7.27117 11.6813 7.27117 11.2887H7.45578C7.98489 11.2887 8.41423 10.8594 8.41423 10.33V5.23522C8.41423 4.70611 7.98489 4.27677 7.45578 4.27677H6.4519V1.04709C6.45221 0.469841 5.98263 0 5.40538 0ZM2.77744 1.04709C2.77744 0.919579 2.8813 0.815716 3.00881 0.815716H5.40562C5.53313 0.815716 5.63672 0.919579 5.63672 1.04709V3.86888H4.78267V3.61058C4.78267 3.41888 4.52517 3.2639 4.20733 3.2639C3.88949 3.2639 3.63226 3.41888 3.63226 3.61058C3.63226 3.71498 3.63226 3.80553 3.63226 3.86888H2.77767L2.77744 1.04709ZM6.56015 6.02073V6.66378C6.56015 6.81414 6.43862 6.9357 6.28823 6.9357H1.9193C1.76895 6.9357 1.64739 6.81417 1.64739 6.66378V6.02073C1.64739 5.87037 1.76891 5.74882 1.9193 5.74882H6.28823C6.43862 5.74882 6.56015 5.87037 6.56015 6.02073Z" fill="#034265"/>
</svg>
