<svg width="64" height="63" viewBox="0 0 64 63" fill="none" xmlns="http://www.w3.org/2000/svg">
<path d="M56.298 6.63616H50.3628V3.99656C50.3628 2.65252 48.9419 1.59961 47.1294 1.59961C45.3144 1.59961 43.8924 2.65252 43.8924 3.99656V6.63616H34.866V3.99656C34.866 2.65252 33.4439 1.59961 31.629 1.59961C29.814 1.59961 28.3919 2.65252 28.3919 3.99656V6.63616H19.3687V3.99656C19.3687 2.65252 17.947 1.59961 16.1317 1.59961C14.3163 1.59961 12.8946 2.65252 12.8946 3.99656V6.63616H6.96332C5.92227 6.6373 4.92418 7.04967 4.18803 7.78279C3.45189 8.51591 3.0378 9.50991 3.03662 10.5467V57.4897C3.03783 58.5265 3.45192 59.5205 4.18806 60.2537C4.9242 60.9868 5.92227 61.3992 6.96332 61.4004H56.298C57.3387 61.3989 58.3362 60.9863 59.0718 60.2531C59.8073 59.5199 60.2207 58.5261 60.2213 57.4897V10.5467C60.2207 9.51034 59.8072 8.51654 59.0717 7.78339C58.3362 7.05025 57.3387 6.63766 56.298 6.63616ZM45.8695 4.01133C45.93 3.88213 46.3847 3.56836 47.1297 3.56836C47.8725 3.56836 48.3259 3.88262 48.3862 4.01133V6.63616H45.8695V4.01133ZM30.3687 4.01244C30.4305 3.88287 30.8857 3.56836 31.629 3.56836C32.3722 3.56836 32.8274 3.88287 32.8892 4.01244V6.63616H30.3687V4.01244ZM14.8717 4.01244C14.9335 3.88287 15.3885 3.56836 16.1319 3.56836C16.8753 3.56836 17.3304 3.88287 17.3922 4.01244V6.63616H14.8717V4.01244Z" fill="#EAE8E8"/>
<path d="M29.4201 25.2445V29.6636C29.4201 29.9247 29.316 30.1751 29.1306 30.3597C28.9453 30.5443 28.6938 30.648 28.4317 30.648H23.4032C23.141 30.648 22.8896 30.5443 22.7043 30.3597C22.5189 30.1751 22.4148 29.9247 22.4148 29.6636V25.2445C22.4148 24.9834 22.5189 24.7331 22.7043 24.5484C22.8896 24.3638 23.141 24.2601 23.4032 24.2601H28.4317C28.6938 24.2601 28.9453 24.3638 29.1306 24.5484C29.316 24.7331 29.4201 24.9834 29.4201 25.2445ZM39.8557 24.2601H34.8272C34.5651 24.2601 34.3137 24.3638 34.1283 24.5484C33.9429 24.7331 33.8388 24.9834 33.8388 25.2445V29.6636C33.8388 29.9247 33.9429 30.1751 34.1283 30.3597C34.3137 30.5443 34.5651 30.648 34.8272 30.648H39.8557C40.1179 30.648 40.3693 30.5443 40.5547 30.3597C40.74 30.1751 40.8442 29.9247 40.8442 29.6636V25.2445C40.8442 24.9834 40.74 24.7331 40.5547 24.5484C40.3693 24.3638 40.1179 24.2601 39.8557 24.2601ZM17.0111 35.0724H11.9786C11.7165 35.0724 11.4651 35.1761 11.2797 35.3607C11.0944 35.5453 10.9902 35.7957 10.9902 36.0568V40.4759C10.9902 40.7369 11.0944 40.9873 11.2797 41.1719C11.4651 41.3565 11.7165 41.4602 11.9786 41.4602H17.0113C17.2734 41.4602 17.5248 41.3565 17.7102 41.1719C17.8955 40.9873 17.9997 40.7369 17.9997 40.4759V36.0568C17.9997 35.7957 17.8955 35.5453 17.7102 35.3607C17.5248 35.1761 17.2733 35.0724 17.0111 35.0724ZM28.4316 35.0724H23.4031C23.1409 35.0724 22.8895 35.1761 22.7041 35.3607C22.5188 35.5453 22.4146 35.7957 22.4146 36.0568V40.4759C22.4146 40.7369 22.5188 40.9873 22.7041 41.1719C22.8895 41.3565 23.1409 41.4602 23.4031 41.4602H28.4316C28.6937 41.4602 28.9451 41.3565 29.1305 41.1719C29.3159 40.9873 29.42 40.7369 29.42 40.4759V36.0568C29.42 35.7957 29.3159 35.5453 29.1305 35.3607C28.9452 35.1761 28.6938 35.0724 28.4317 35.0724H28.4316ZM39.8556 35.0724H34.8271C34.5649 35.0724 34.3135 35.1761 34.1282 35.3607C33.9428 35.5453 33.8387 35.7957 33.8387 36.0568V40.4759C33.8387 40.7369 33.9428 40.9873 34.1282 41.1719C34.3135 41.3565 34.5649 41.4602 34.8271 41.4602H39.8556C40.1178 41.4602 40.3692 41.3565 40.5545 41.1719C40.7399 40.9873 40.844 40.7369 40.844 40.4759V36.0568C40.844 35.7957 40.7399 35.5453 40.5546 35.3607C40.3692 35.1761 40.1179 35.0724 39.8557 35.0724H39.8556ZM17.011 45.8882H11.9786C11.7165 45.8882 11.4651 45.9919 11.2797 46.1765C11.0944 46.3611 10.9902 46.6115 10.9902 46.8726V51.2881C10.9902 51.5492 11.0944 51.7996 11.2797 51.9842C11.4651 52.1688 11.7165 52.2725 11.9786 52.2725H17.0113C17.2734 52.2725 17.5248 52.1688 17.7102 51.9842C17.8955 51.7996 17.9997 51.5492 17.9997 51.2881V46.8727C17.9997 46.6116 17.8955 46.3613 17.7102 46.1766C17.5248 45.992 17.2734 45.8883 17.0113 45.8883L17.011 45.8882ZM28.4315 45.8882H23.4029C23.1408 45.8882 22.8894 45.9919 22.704 46.1765C22.5187 46.3611 22.4145 46.6115 22.4145 46.8726V51.2881C22.4145 51.5492 22.5187 51.7996 22.704 51.9842C22.8894 52.1688 23.1408 52.2725 23.4029 52.2725H28.4315C28.6936 52.2725 28.945 52.1688 29.1304 51.9842C29.3157 51.7996 29.4199 51.5492 29.4199 51.2881V46.8727C29.4199 46.6117 29.3158 46.3613 29.1305 46.1767C28.9451 45.9921 28.6938 45.8884 28.4317 45.8883L28.4315 45.8882ZM17.0113 24.2601H11.9786C11.7165 24.2601 11.4651 24.3638 11.2797 24.5484C11.0944 24.7331 10.9902 24.9834 10.9902 25.2445V29.6636C10.9902 29.9247 11.0944 30.1751 11.2797 30.3597C11.4651 30.5443 11.7165 30.648 11.9786 30.648H17.0113C17.2734 30.648 17.5248 30.5443 17.7102 30.3597C17.8955 30.1751 17.9997 29.9247 17.9997 29.6636V25.2445C17.9997 24.9834 17.8955 24.7331 17.7102 24.5484C17.5248 24.3638 17.2734 24.2601 17.0113 24.2601ZM51.2798 35.0724H46.2512C45.9891 35.0724 45.7377 35.1761 45.5523 35.3607C45.367 35.5453 45.2628 35.7957 45.2628 36.0568V40.4759C45.2628 40.7369 45.367 40.9873 45.5523 41.1719C45.7377 41.3565 45.9891 41.4602 46.2512 41.4602H51.2798C51.5419 41.4602 51.7933 41.3565 51.9787 41.1719C52.1641 40.9873 52.2682 40.7369 52.2682 40.4759V36.0568C52.2682 35.7957 52.1641 35.5453 51.9787 35.3607C51.7933 35.1761 51.5419 35.0724 51.2798 35.0724ZM39.8557 45.8882H34.8272C34.5651 45.8882 34.3137 45.9919 34.1283 46.1765C33.9429 46.3611 33.8388 46.6115 33.8388 46.8726V51.2881C33.8388 51.5492 33.9429 51.7996 34.1283 51.9842C34.3137 52.1688 34.5651 52.2725 34.8272 52.2725H39.8557C40.1179 52.2725 40.3693 52.1688 40.5547 51.9842C40.74 51.7996 40.8442 51.5492 40.8442 51.2881V46.8727C40.8442 46.6116 40.74 46.3613 40.5547 46.1766C40.3693 45.992 40.1179 45.8882 39.8557 45.8882Z" fill="#484868"/>
<path d="M17.0109 24.2601H15.7754C16.0375 24.2601 16.2889 24.3638 16.4743 24.5484C16.6597 24.7331 16.7638 24.9834 16.7638 25.2445V29.6636C16.7638 29.9247 16.6597 30.1751 16.4743 30.3597C16.2889 30.5443 16.0375 30.648 15.7754 30.648H17.0109C17.273 30.648 17.5245 30.5443 17.7098 30.3597C17.8952 30.1751 17.9993 29.9247 17.9993 29.6636V25.2445C17.9993 24.9834 17.8952 24.7331 17.7098 24.5484C17.5245 24.3638 17.273 24.2601 17.0109 24.2601Z" fill="#3D3D54"/>
<path d="M28.4313 45.8883H27.1958C27.4579 45.8883 27.7093 45.992 27.8947 46.1766C28.0801 46.3612 28.1842 46.6116 28.1842 46.8727V51.2882C28.1842 51.5493 28.0801 51.7997 27.8947 51.9843C27.7093 52.1689 27.4579 52.2726 27.1958 52.2726H28.4313C28.6935 52.2726 28.9449 52.1689 29.1302 51.9843C29.3156 51.7997 29.4197 51.5493 29.4197 51.2882V46.8727C29.4197 46.6116 29.3156 46.3612 29.1302 46.1766C28.9449 45.992 28.6935 45.8883 28.4313 45.8883Z" fill="#3D3D54"/>
<path d="M28.4313 35.0724H27.1958C27.4579 35.0724 27.7093 35.1761 27.8947 35.3607C28.0801 35.5453 28.1842 35.7957 28.1842 36.0568V40.4759C28.1842 40.7369 28.0801 40.9873 27.8947 41.1719C27.7093 41.3565 27.4579 41.4602 27.1958 41.4602H28.4313C28.6935 41.4602 28.9449 41.3565 29.1302 41.1719C29.3156 40.9873 29.4197 40.7369 29.4197 40.4759V36.0568C29.4197 35.7957 29.3156 35.5453 29.1302 35.3607C28.9449 35.1761 28.6935 35.0724 28.4313 35.0724Z" fill="#3D3D54"/>
<path d="M17.0109 45.8883H15.7754C16.0375 45.8883 16.2889 45.992 16.4743 46.1766C16.6597 46.3612 16.7638 46.6116 16.7638 46.8727V51.2882C16.7638 51.5493 16.6597 51.7997 16.4743 51.9843C16.2889 52.1689 16.0375 52.2726 15.7754 52.2726H17.0109C17.273 52.2726 17.5245 52.1689 17.7098 51.9843C17.8952 51.7997 17.9993 51.5493 17.9993 51.2882V46.8727C17.9993 46.6116 17.8952 46.3612 17.7098 46.1766C17.5245 45.992 17.273 45.8883 17.0109 45.8883Z" fill="#3D3D54"/>
<path d="M17.0109 35.0724H15.7754C16.0375 35.0724 16.2889 35.1761 16.4743 35.3607C16.6597 35.5453 16.7638 35.7957 16.7638 36.0568V40.4759C16.7638 40.7369 16.6597 40.9873 16.4743 41.1719C16.2889 41.3565 16.0375 41.4602 15.7754 41.4602H17.0109C17.273 41.4602 17.5245 41.3565 17.7098 41.1719C17.8952 40.9873 17.9993 40.7369 17.9993 40.4759V36.0568C17.9993 35.7957 17.8952 35.5453 17.7098 35.3607C17.5245 35.1761 17.273 35.0724 17.0109 35.0724Z" fill="#3D3D54"/>
<path d="M39.8556 45.8883H38.6201C38.8823 45.8883 39.1337 45.992 39.319 46.1766C39.5044 46.3612 39.6085 46.6116 39.6085 46.8727V51.2882C39.6085 51.5493 39.5044 51.7997 39.319 51.9843C39.1337 52.1689 38.8823 52.2726 38.6201 52.2726H39.8556C40.1178 52.2726 40.3692 52.1689 40.5545 51.9843C40.7399 51.7997 40.844 51.5493 40.844 51.2882V46.8727C40.844 46.6116 40.7399 46.3612 40.5545 46.1766C40.3692 45.992 40.1178 45.8883 39.8556 45.8883Z" fill="#3D3D54"/>
<path d="M39.8556 24.2601H38.6201C38.8823 24.2601 39.1337 24.3638 39.319 24.5484C39.5044 24.7331 39.6085 24.9834 39.6085 25.2445V29.6636C39.6085 29.9247 39.5044 30.1751 39.319 30.3597C39.1337 30.5443 38.8823 30.648 38.6201 30.648H39.8556C40.1178 30.648 40.3692 30.5443 40.5545 30.3597C40.7399 30.1751 40.844 29.9247 40.844 29.6636V25.2445C40.844 24.9834 40.7399 24.7331 40.5545 24.5484C40.3692 24.3638 40.1178 24.2601 39.8556 24.2601Z" fill="#3D3D54"/>
<path d="M28.4313 24.2601H27.1958C27.4579 24.2601 27.7093 24.3638 27.8947 24.5484C28.0801 24.7331 28.1842 24.9834 28.1842 25.2445V29.6636C28.1842 29.9247 28.0801 30.1751 27.8947 30.3597C27.7093 30.5443 27.4579 30.648 27.1958 30.648H28.4313C28.6935 30.648 28.9449 30.5443 29.1302 30.3597C29.3156 30.1751 29.4197 29.9247 29.4197 29.6636V25.2445C29.4197 24.9834 29.3156 24.7331 29.1302 24.5484C28.9449 24.3638 28.6935 24.2601 28.4313 24.2601Z" fill="#3D3D54"/>
<path d="M51.2795 35.0724H50.0439C50.3061 35.0724 50.5575 35.1761 50.7429 35.3607C50.9282 35.5453 51.0324 35.7957 51.0324 36.0568V40.4759C51.0324 40.7369 50.9282 40.9873 50.7429 41.1719C50.5575 41.3565 50.3061 41.4602 50.0439 41.4602H51.2795C51.5416 41.4602 51.793 41.3565 51.9784 41.1719C52.1637 40.9873 52.2679 40.7369 52.2679 40.4759V36.0568C52.2679 35.7957 52.1637 35.5453 51.9784 35.3607C51.793 35.1761 51.5416 35.0724 51.2795 35.0724Z" fill="#3D3D54"/>
<path d="M39.8556 35.0724H38.6201C38.8823 35.0724 39.1337 35.1761 39.319 35.3607C39.5044 35.5453 39.6085 35.7957 39.6085 36.0568V40.4759C39.6085 40.7369 39.5044 40.9873 39.319 41.1719C39.1337 41.3565 38.8823 41.4602 38.6201 41.4602H39.8556C40.1178 41.4602 40.3692 41.3565 40.5545 41.1719C40.7399 40.9873 40.844 40.7369 40.844 40.4759V36.0568C40.844 35.7957 40.7399 35.5453 40.5545 35.3607C40.3692 35.1761 40.1178 35.0724 39.8556 35.0724Z" fill="#3D3D54"/>
<path d="M48.1415 30.3655C47.8809 30.3655 47.6308 30.263 47.4457 30.0802L45.4145 28.0746C45.2296 27.8905 45.1256 27.641 45.125 27.3806C45.1244 27.1203 45.2275 26.8703 45.4115 26.6855C45.5956 26.5006 45.8456 26.3958 46.107 26.3942C46.3684 26.3925 46.6199 26.494 46.8063 26.6765L48.0789 27.9326L50.6659 24.8907C50.8353 24.6915 51.0773 24.5675 51.3386 24.546C51.5998 24.5244 51.859 24.6071 52.059 24.7759C52.259 24.9446 52.3836 25.1856 52.4052 25.4458C52.4268 25.706 52.3438 25.9641 52.1743 26.1633L48.8963 30.0174C48.8082 30.121 48.6995 30.2053 48.577 30.265C48.4546 30.3247 48.3211 30.3586 48.1849 30.3645C48.1702 30.3651 48.1558 30.3655 48.1415 30.3655Z" fill="#D22E2E"/>
<path d="M51.5758 58.2309C51.484 58.3224 51.375 58.3949 51.2551 58.4444C51.1352 58.4939 51.0066 58.5194 50.8767 58.5194H6.96332C5.92227 58.5182 4.9242 58.1058 4.18806 57.3727C3.45192 56.6396 3.03783 55.6456 3.03662 54.6088V57.4897C3.03783 58.5265 3.45192 59.5205 4.18806 60.2536C4.9242 60.9867 5.92227 61.3991 6.96332 61.4003H56.298C57.3387 61.3988 58.3362 60.9862 59.0718 60.2531C59.8073 59.5199 60.2207 58.5261 60.2213 57.4897V49.2095C60.2213 49.4704 60.1172 49.7207 59.9319 49.9053L51.5758 58.2309Z" fill="#D1C9C9"/>
<path d="M60.2217 49.2095V49.0804H52.7493C52.225 49.0804 51.7222 49.2879 51.3515 49.6571C50.9807 50.0263 50.7725 50.527 50.7725 51.0492V58.5195H50.8771C51.0069 58.5195 51.1355 58.494 51.2555 58.4445C51.3754 58.395 51.4844 58.3224 51.5762 58.2309L59.9323 49.9053C60.1176 49.7208 60.2216 49.4705 60.2217 49.2095Z" fill="#BCB3B3"/>
<path d="M56.298 6.63611H45.8695V10.3622C45.9275 10.4914 46.3807 10.8075 47.1297 10.8075C47.3918 10.8075 47.6432 10.9112 47.8286 11.0958C48.014 11.2804 48.1181 11.5308 48.1181 11.7919C48.1181 12.053 48.014 12.3033 47.8286 12.488C47.6432 12.6726 47.3918 12.7763 47.1297 12.7763C45.3146 12.7763 43.8926 11.7219 43.8926 10.3757V6.63611H30.3687V10.3615C30.4278 10.4912 30.8816 10.8075 31.629 10.8075C31.8911 10.8075 32.1425 10.9112 32.3279 11.0958C32.5132 11.2804 32.6174 11.5308 32.6174 11.7919C32.6174 12.053 32.5132 12.3033 32.3279 12.488C32.1425 12.6726 31.8911 12.7763 31.629 12.7763C29.8139 12.7763 28.3919 11.7219 28.3919 10.3757V6.63611H14.872V10.3615C14.931 10.4912 15.3848 10.8075 16.1322 10.8075C16.3943 10.8075 16.6457 10.9112 16.8311 11.0958C17.0165 11.2804 17.1206 11.5308 17.1206 11.7919C17.1206 12.053 17.0165 12.3033 16.8311 12.488C16.6457 12.6726 16.3943 12.7763 16.1322 12.7763C14.3172 12.7763 12.8951 11.7219 12.8951 10.3757V6.63611H6.96332C5.92227 6.63725 4.92418 7.04961 4.18803 7.78273C3.45189 8.51585 3.0378 9.50986 3.03662 10.5467V18.9393H60.2213V10.5467C60.2207 9.51028 59.8072 8.51648 59.0717 7.78334C58.3362 7.0502 57.3387 6.63761 56.298 6.63611Z" fill="#D22E2E"/>
<path d="M3.03662 18.9393H60.2213V20.4764H3.03662V18.9393Z" fill="#D1C9C9"/>
<path d="M32.6175 11.792C32.6175 12.053 32.5134 12.3034 32.328 12.488C32.1426 12.6726 31.8912 12.7763 31.6291 12.7763C29.814 12.7763 28.392 11.7219 28.392 10.3758V3.99656C28.392 2.65252 29.814 1.59961 31.6291 1.59961C33.4442 1.59961 34.8661 2.65252 34.8661 3.99656V6.63616H32.8893V4.01244C32.8275 3.88287 32.3722 3.56836 31.6291 3.56836C30.8859 3.56836 30.4306 3.88287 30.3689 4.01244V10.3617C30.4279 10.4913 30.8817 10.8077 31.6291 10.8077C31.8912 10.8077 32.1426 10.9114 32.3279 11.096C32.5133 11.2806 32.6175 11.5309 32.6175 11.792ZM16.1321 10.8076C15.3849 10.8076 14.9311 10.4912 14.8718 10.3615V4.01231C14.9336 3.88274 15.3887 3.56824 16.1321 3.56824C16.8755 3.56824 17.3305 3.88274 17.3923 4.01231V6.63616H19.3691V3.99656C19.3691 2.65252 17.9474 1.59961 16.1321 1.59961C14.3167 1.59961 12.895 2.65252 12.895 3.99656V10.3758C12.895 11.7219 14.3168 12.7763 16.1321 12.7763C16.3942 12.7763 16.6456 12.6726 16.831 12.488C17.0163 12.3034 17.1205 12.053 17.1205 11.792C17.1205 11.5309 17.0163 11.2805 16.831 11.0959C16.6456 10.9113 16.3942 10.8076 16.1321 10.8076ZM47.1296 10.8076C46.3808 10.8076 45.9277 10.4915 45.8693 10.3623V4.01133C45.9299 3.88213 46.3846 3.56836 47.1296 3.56836C47.8724 3.56836 48.3258 3.88262 48.3861 4.01133V6.63616H50.3629V3.99656C50.3629 2.65252 48.9421 1.59961 47.1296 1.59961C45.3145 1.59961 43.8925 2.65252 43.8925 3.99656V10.3758C43.8925 11.7219 45.3142 12.7763 47.1296 12.7763C47.3917 12.7763 47.6431 12.6726 47.8285 12.488C48.0138 12.3034 48.118 12.053 48.118 11.792C48.118 11.5309 48.0138 11.2805 47.8285 11.0959C47.6431 10.9113 47.3917 10.8076 47.1296 10.8076Z" fill="#484868"/>
<path d="M16.1384 9.94641C15.6849 9.94643 15.2473 10.1129 14.9092 10.414C15.0412 10.5609 15.4718 10.8077 16.1324 10.8077C16.3945 10.8077 16.6459 10.9115 16.8313 11.0961C17.0167 11.2807 17.1208 11.531 17.1208 11.7921C17.1208 12.0532 17.0167 12.3036 16.8313 12.4882C16.6459 12.6728 16.3945 12.7765 16.1324 12.7765C15.5335 12.7819 14.9407 12.6574 14.395 12.4115C14.5092 12.7298 14.7089 13.0108 14.9725 13.2237C15.236 13.4367 15.5532 13.5734 15.8895 13.619C16.2258 13.6646 16.5682 13.6173 16.8793 13.4823C17.1904 13.3473 17.4583 13.1297 17.6537 12.8534C17.8492 12.5771 17.9646 12.2526 17.9875 11.9154C18.0103 11.5782 17.9397 11.2412 17.7834 10.9412C17.627 10.6412 17.3909 10.3898 17.1008 10.2144C16.8107 10.0389 16.4778 9.94624 16.1384 9.94641Z" fill="#AD1E1E"/>
<path d="M31.6292 9.94641C31.1773 9.94629 30.7411 10.1114 30.4034 10.4104C30.5318 10.557 30.9637 10.8076 31.6292 10.8076C31.8913 10.8076 32.1427 10.9113 32.3281 11.0959C32.5135 11.2805 32.6176 11.5309 32.6176 11.792C32.6176 12.0531 32.5135 12.3034 32.3281 12.488C32.1427 12.6727 31.8913 12.7764 31.6292 12.7764C31.0275 12.7819 30.4319 12.6561 29.8843 12.408C29.9977 12.7267 30.1969 13.0083 30.4602 13.2219C30.7234 13.4355 31.0406 13.5729 31.377 13.6191C31.7133 13.6654 32.056 13.6186 32.3675 13.484C32.679 13.3494 32.9473 13.1321 33.1432 12.8558C33.3391 12.5796 33.4549 12.255 33.4781 11.9176C33.5013 11.5803 33.4309 11.243 33.2746 10.9428C33.1183 10.6425 32.8822 10.3909 32.592 10.2153C32.3018 10.0396 31.9688 9.94685 31.6292 9.94703V9.94641Z" fill="#AD1E1E"/>
<path d="M47.1281 9.94641C46.6765 9.94626 46.2406 10.1112 45.903 10.4099C46.0294 10.5559 46.4613 10.8076 47.1298 10.8076C47.392 10.8076 47.6434 10.9113 47.8287 11.0959C48.0141 11.2805 48.1182 11.5309 48.1182 11.792C48.1182 12.0531 48.0141 12.3034 47.8287 12.4881C47.6434 12.6727 47.392 12.7764 47.1298 12.7764C46.5274 12.782 45.9311 12.656 45.3828 12.4072C45.4962 12.726 45.6955 13.0075 45.9587 13.2211C46.2219 13.4347 46.539 13.5722 46.8754 13.6184C47.2118 13.6646 47.5544 13.6179 47.8659 13.4833C48.1774 13.3487 48.4458 13.1315 48.6416 12.8552C48.8375 12.579 48.9534 12.2545 48.9766 11.9171C48.9999 11.5798 48.9295 11.2425 48.7733 10.9423C48.6171 10.642 48.381 10.3903 48.0908 10.2147C47.8007 10.039 47.4676 9.9463 47.1281 9.94641Z" fill="#AD1E1E"/>
</svg>
