<svg width="12" height="13" viewBox="0 0 12 13" fill="none" xmlns="http://www.w3.org/2000/svg">
<path id="Vector" d="M0.973958 12.75C0.714236 12.75 0.486979 12.6544 0.292188 12.4631C0.0973958 12.2719 0 12.0487 0 11.7937V1.9125C0 1.6575 0.0973958 1.43437 0.292188 1.24312C0.486979 1.05187 0.714236 0.95625 0.973958 0.95625H2.02908V0H3.0842V0.95625H8.6033V0H9.65842V0.95625H10.7135C10.9733 0.95625 11.2005 1.05187 11.3953 1.24312C11.5901 1.43437 11.6875 1.6575 11.6875 1.9125V11.7937C11.6875 12.0487 11.5901 12.2719 11.3953 12.4631C11.2005 12.6544 10.9733 12.75 10.7135 12.75H0.973958ZM0.973958 11.7937H10.7135V4.94062H0.973958V11.7937ZM0.973958 3.98437H10.7135V1.9125H0.973958V3.98437ZM5.84375 7.65C5.65978 7.65 5.50557 7.58891 5.38112 7.46672C5.25667 7.34453 5.19444 7.19312 5.19444 7.0125C5.19444 6.83187 5.25667 6.68047 5.38112 6.55828C5.50557 6.43609 5.65978 6.375 5.84375 6.375C6.02772 6.375 6.18193 6.43609 6.30638 6.55828C6.43083 6.68047 6.49306 6.83187 6.49306 7.0125C6.49306 7.19312 6.43083 7.34453 6.30638 7.46672C6.18193 7.58891 6.02772 7.65 5.84375 7.65ZM3.24653 7.65C3.06256 7.65 2.90835 7.58891 2.7839 7.46672C2.65945 7.34453 2.59722 7.19312 2.59722 7.0125C2.59722 6.83187 2.65945 6.68047 2.7839 6.55828C2.90835 6.43609 3.06256 6.375 3.24653 6.375C3.4305 6.375 3.58471 6.43609 3.70916 6.55828C3.83361 6.68047 3.89583 6.83187 3.89583 7.0125C3.89583 7.19312 3.83361 7.34453 3.70916 7.46672C3.58471 7.58891 3.4305 7.65 3.24653 7.65ZM8.44097 7.65C8.257 7.65 8.10279 7.58891 7.97834 7.46672C7.85389 7.34453 7.79167 7.19312 7.79167 7.0125C7.79167 6.83187 7.85389 6.68047 7.97834 6.55828C8.10279 6.43609 8.257 6.375 8.44097 6.375C8.62494 6.375 8.77915 6.43609 8.9036 6.55828C9.02805 6.68047 9.09028 6.83187 9.09028 7.0125C9.09028 7.19312 9.02805 7.34453 8.9036 7.46672C8.77915 7.58891 8.62494 7.65 8.44097 7.65ZM5.84375 10.2C5.65978 10.2 5.50557 10.1389 5.38112 10.0167C5.25667 9.89453 5.19444 9.74312 5.19444 9.5625C5.19444 9.38187 5.25667 9.23047 5.38112 9.10828C5.50557 8.98609 5.65978 8.925 5.84375 8.925C6.02772 8.925 6.18193 8.98609 6.30638 9.10828C6.43083 9.23047 6.49306 9.38187 6.49306 9.5625C6.49306 9.74312 6.43083 9.89453 6.30638 10.0167C6.18193 10.1389 6.02772 10.2 5.84375 10.2ZM3.24653 10.2C3.06256 10.2 2.90835 10.1389 2.7839 10.0167C2.65945 9.89453 2.59722 9.74312 2.59722 9.5625C2.59722 9.38187 2.65945 9.23047 2.7839 9.10828C2.90835 8.98609 3.06256 8.925 3.24653 8.925C3.4305 8.925 3.58471 8.98609 3.70916 9.10828C3.83361 9.23047 3.89583 9.38187 3.89583 9.5625C3.89583 9.74312 3.83361 9.89453 3.70916 10.0167C3.58471 10.1389 3.4305 10.2 3.24653 10.2ZM8.44097 10.2C8.257 10.2 8.10279 10.1389 7.97834 10.0167C7.85389 9.89453 7.79167 9.74312 7.79167 9.5625C7.79167 9.38187 7.85389 9.23047 7.97834 9.10828C8.10279 8.98609 8.257 8.925 8.44097 8.925C8.62494 8.925 8.77915 8.98609 8.9036 9.10828C9.02805 9.23047 9.09028 9.38187 9.09028 9.5625C9.09028 9.74312 9.02805 9.89453 8.9036 10.0167C8.77915 10.1389 8.62494 10.2 8.44097 10.2Z" fill="#03A9F4"/>
</svg>
