<svg width="63" height="63" viewBox="0 0 63 63" fill="none" xmlns="http://www.w3.org/2000/svg">
<g clip-path="url(#clip0_1_1879)">
<path d="M31.5 63C48.897 63 63 48.897 63 31.5C63 14.103 48.897 0 31.5 0C14.103 0 0 14.103 0 31.5C0 48.897 14.103 63 31.5 63Z" fill="#FD4755"/>
<path d="M31.5002 52.468C43.0804 52.468 52.4681 43.0803 52.4681 31.5C52.4681 19.9198 43.0804 10.5321 31.5002 10.5321C19.9199 10.5321 10.5322 19.9198 10.5322 31.5C10.5322 43.0803 19.9199 52.468 31.5002 52.468Z" fill="#F9F7F8"/>
<path d="M34.5374 52.2494C33.5457 52.3922 32.5318 52.4672 31.5006 52.4672C19.9207 52.4672 10.5322 43.08 10.5322 31.5C10.5322 19.9189 19.9207 10.5316 31.5006 10.5316C32.5318 10.5316 33.5457 10.6067 34.5374 10.7494C24.3959 12.2211 16.6058 20.95 16.6058 31.5C16.6058 42.0488 24.3959 50.7778 34.5374 52.2494Z" fill="#DEDBEE"/>
<path d="M61.5398 14.4955L14.4961 61.5392C12.5484 63.4869 9.39066 63.4869 7.44307 61.5392L1.46127 55.5574C-0.486439 53.6097 -0.486439 50.4519 1.46127 48.5043L48.5048 1.46054C50.4525 -0.487172 53.6103 -0.487172 55.5578 1.46054L61.5396 7.44234C63.4874 9.39005 63.4874 12.5478 61.5398 14.4955Z" fill="#FE646F"/>
<path d="M14.5653 42.4382C14.5559 42.4339 14.5461 42.4297 14.5365 42.4256C14.0654 42.2291 13.528 42.3353 13.1673 42.6961C13.167 42.6963 13.1667 42.6967 13.1664 42.697C12.8055 43.0586 12.7001 43.5968 12.8977 44.0678C12.901 44.0758 12.9044 44.0838 12.908 44.0918L16.3372 51.7399C16.5797 52.2811 17.2151 52.523 17.7563 52.2803C17.8791 52.2253 17.9865 52.15 18.0763 52.0602C18.3822 51.7543 18.4842 51.2796 18.2967 50.8612L17.7455 49.6319L20.0866 47.2908L21.31 47.8438C21.8503 48.088 22.4868 47.8481 22.7307 47.3075C22.975 46.7672 22.735 46.1311 22.1945 45.8868L14.5653 42.4382ZM16.8053 47.5349L15.8339 45.3684L17.9949 46.3453L16.8053 47.5349Z" fill="#F9F7F8"/>
<path d="M21.1347 34.7287C21.1321 34.7313 21.1296 34.7338 21.1272 34.7362C20.7119 35.1596 20.7184 35.8396 21.1418 36.2549L24.4104 39.4609L18.2135 38.3266C17.7513 38.242 17.2882 38.4677 17.0692 38.884C16.8509 39.3 16.9286 39.8099 17.2608 40.1422L22.8682 45.7495C23.2875 46.1689 23.9673 46.1689 24.3868 45.7495C24.8061 45.3302 24.8061 44.6504 24.3868 44.2309L21.2151 41.0592L27.1088 42.138C27.6488 42.2363 28.1538 42.0029 28.3946 41.5421C28.6403 41.0731 28.538 40.509 28.1267 40.0977L22.6457 34.7217C22.2249 34.3089 21.5507 34.3128 21.1347 34.7287Z" fill="#F9F7F8"/>
<path d="M42.5346 24.5549C42.5331 24.5563 42.5316 24.5578 42.5303 24.5592C42.1653 24.9282 41.7084 25.389 41.3312 25.7674L36.4728 20.909C36.0535 20.4896 35.3736 20.4896 34.9542 20.909C34.5348 21.3283 34.5348 22.0082 34.9542 22.4276L40.5672 28.0407C40.9368 28.4103 41.5191 28.46 41.946 28.1584C42.0094 28.1136 42.0557 28.081 42.6869 27.4498C42.9885 27.1482 43.4233 26.7102 44.0572 26.0693C44.4742 25.6475 44.4704 24.9677 44.0487 24.5507C43.6286 24.1352 42.9521 24.1374 42.5346 24.5549Z" fill="#F9F7F8"/>
<path d="M46.4526 20.6368C46.4511 20.6383 46.4496 20.6397 46.4482 20.6411C46.0833 21.0101 45.6264 21.4709 45.2492 21.8493L40.3908 16.9909C39.9714 16.5716 39.2916 16.5716 38.8721 16.9909C38.4528 17.4102 38.4528 18.0901 38.8721 18.5095L44.4852 24.1226C44.8548 24.4922 45.437 24.5419 45.864 24.2403C45.9274 24.1955 45.9737 24.1629 46.6049 23.5317C46.9065 23.2301 47.3413 22.7921 47.9751 22.1512C48.3921 21.7294 48.3883 21.0496 47.9666 20.6326C47.5464 20.2171 46.8699 20.2194 46.4526 20.6368Z" fill="#F9F7F8"/>
<path d="M33.8343 25.1179C34.2537 24.6986 34.2537 24.0188 33.8343 23.5993C33.415 23.18 32.7351 23.18 32.3157 23.5993L29.9703 25.9447C29.5509 26.364 29.5509 27.0439 29.9703 27.4633L35.5367 33.0297C35.956 33.4491 36.6358 33.4491 37.0553 33.0297L39.4007 30.6843C39.82 30.265 39.82 29.5852 39.4007 29.1657C38.9814 28.7462 38.3015 28.7463 37.8821 29.1657L36.296 30.7518L35.0314 29.4872L36.4446 28.074C36.864 27.6547 36.864 26.9748 36.4446 26.5554C36.0253 26.136 35.3454 26.136 34.926 26.5554L33.5128 27.9686L32.2482 26.704L33.8343 25.1179Z" fill="#F9F7F8"/>
<path d="M47.1709 11.7809C47.5902 11.3616 47.5902 10.6817 47.1709 10.2623C46.7515 9.84292 46.0717 9.84292 45.6522 10.2623L43.3067 12.6078C42.8874 13.0271 42.8874 13.707 43.3067 14.1264L48.8731 19.6928C49.2924 20.1122 49.9723 20.1122 50.3917 19.6928L52.7373 17.3473C53.1566 16.928 53.1566 16.2481 52.7373 15.8287C52.3179 15.4093 51.6381 15.4093 51.2186 15.8287L49.6324 17.4149L48.3679 16.1503L49.7812 14.737C50.2005 14.3176 50.2005 13.6378 49.7812 13.2183C49.3618 12.7989 48.682 12.799 48.2625 13.2183L46.8492 14.6317L45.5847 13.3671L47.1709 11.7809Z" fill="#F9F7F8"/>
<path d="M49.5553 6.47433L48.0113 8.01832C47.8097 8.21987 47.6965 8.49353 47.6968 8.77875C47.697 9.06372 47.8107 9.33713 48.0126 9.53832C48.0126 9.53832 50.1134 11.6311 50.7349 12.2527C51.4929 13.0107 53.4767 14.9802 53.4767 14.9802C53.6787 15.1809 53.9524 15.2929 54.2371 15.2919C54.5206 15.2909 54.7922 15.1778 54.9925 14.9774C54.9933 14.9765 54.9943 14.9755 54.9953 14.9745C55.0418 14.9276 56.1391 13.8221 56.5718 13.3739C58.2242 11.6626 57.9842 8.98153 56.0012 6.99851C53.9167 4.91397 51.3263 4.70331 49.5553 6.47433ZM55.0268 11.882C54.8428 12.0725 54.5264 12.3944 54.2266 12.698C53.5852 12.0608 52.7033 11.1838 52.2536 10.7341C51.8769 10.3574 50.9574 9.44086 50.2906 8.77616L51.0739 7.99285C52.4122 6.65459 54.0214 8.05572 54.4827 8.51703C55.8158 9.85036 55.7166 11.1678 55.0268 11.882Z" fill="#F9F7F8"/>
<path d="M14.259 51.6096C13.668 51.6611 13.2312 52.182 13.283 52.7729C13.2919 52.8766 13.2935 52.9799 13.2878 53.0802C13.2579 53.5952 13.0321 54.0669 12.6165 54.4825C11.4864 55.6127 9.64742 55.6127 8.51736 54.4825C7.38729 53.3523 7.38717 51.5133 8.51736 50.3833C8.92821 49.9724 9.44513 49.6973 10.0124 49.5874C10.5945 49.4745 10.9751 48.9113 10.8624 48.329C10.7496 47.7468 10.1861 47.3663 9.60398 47.479C8.61444 47.6707 7.71349 48.1499 6.99859 48.8648C5.03107 50.8323 5.03107 54.0336 6.99859 56.0012C8.96611 57.9689 12.1674 57.9688 14.1351 56.0012C14.9229 55.2134 15.3713 54.2463 15.4317 53.2046C15.4435 53.0009 15.4403 52.7927 15.4221 52.5858C15.3706 51.9948 14.8497 51.5578 14.259 51.6096Z" fill="#F9F7F8"/>
<path d="M33.3127 32.5555C32.7217 32.607 32.2849 33.1279 32.3367 33.7188C32.3457 33.8225 32.3473 33.9259 32.3415 34.0261C32.3116 34.5411 32.0858 35.0129 31.6703 35.4284C30.5401 36.5586 28.7011 36.5586 27.5711 35.4284C26.4409 34.2982 26.4409 32.4593 27.5711 31.3292C27.9819 30.9184 28.4988 30.6432 29.0661 30.5333C29.6481 30.4205 30.0288 29.8571 29.9161 29.2749C29.8033 28.6927 29.2398 28.3122 28.6577 28.4249C27.6682 28.6166 26.7672 29.0958 26.0523 29.8107C24.0848 31.7782 24.0848 34.9795 26.0523 36.9472C28.0198 38.9148 31.2211 38.9147 33.1888 36.9472C33.9766 36.1593 34.425 35.1923 34.4854 34.1505C34.4973 33.9468 34.4941 33.7386 34.4758 33.5317C34.4244 32.9407 33.9036 32.5037 33.3127 32.5555Z" fill="#F9F7F8"/>
</g>
<defs>
<clipPath id="clip0_1_1879">
<rect width="63" height="63" fill="white"/>
</clipPath>
</defs>
</svg>
