<svg width="20" height="20" viewBox="0 0 20 20" fill="none" xmlns="http://www.w3.org/2000/svg">
<g id="car 1">
<path id="Vector" d="M19.3068 10.7898C19.1662 9.21133 18.9345 8.90391 18.847 8.78828C18.6459 8.52109 18.324 8.34648 17.9834 8.16328C17.9641 8.1531 17.9475 8.13857 17.9348 8.12086C17.9221 8.10315 17.9137 8.08273 17.9102 8.06121C17.9068 8.0397 17.9084 8.01767 17.9149 7.99688C17.9214 7.97609 17.9327 7.9571 17.9478 7.94141C18.0109 7.87743 18.0594 7.80056 18.0899 7.71607C18.1205 7.63158 18.1324 7.54148 18.1248 7.45195C18.1101 7.29321 18.0363 7.14578 17.918 7.03891C17.7997 6.93204 17.6455 6.87354 17.4861 6.875H16.8767C16.8506 6.87515 16.8245 6.87685 16.7986 6.88008C16.7808 6.87236 16.7624 6.86622 16.7435 6.86172C16.3826 6.09883 15.8884 5.0543 14.8642 4.54453C13.3451 3.78906 10.5466 3.75 9.99977 3.75C9.45289 3.75 6.65446 3.78906 5.13727 4.54336C4.11305 5.05312 3.61891 6.09766 3.25797 6.86055L3.25485 6.8668C3.23684 6.86933 3.21917 6.87378 3.20211 6.88008C3.17619 6.87685 3.15011 6.87515 3.12399 6.875H2.51344C2.35402 6.87354 2.19988 6.93204 2.08158 7.03891C1.96327 7.14578 1.88946 7.29321 1.87477 7.45195C1.86783 7.54127 1.88026 7.63103 1.9112 7.7151C1.94215 7.79916 1.99088 7.87556 2.05406 7.93906C2.06918 7.95476 2.08044 7.97375 2.08696 7.99454C2.09349 8.01533 2.09509 8.03735 2.09164 8.05887C2.08819 8.08038 2.07979 8.1008 2.0671 8.11852C2.05441 8.13623 2.03778 8.15075 2.01852 8.16094C1.67789 8.34531 1.35445 8.51992 1.15485 8.78594C1.06735 8.90312 0.836096 9.20898 0.69508 10.7875C0.616955 11.6758 0.605236 12.5953 0.666564 13.1875C0.79508 14.418 1.0361 15.1617 1.04625 15.1926C1.08324 15.3049 1.15131 15.4044 1.24258 15.4795C1.33385 15.5547 1.44457 15.6024 1.56188 15.6172V15.625C1.56188 15.7908 1.62772 15.9497 1.74494 16.0669C1.86215 16.1842 2.02112 16.25 2.18688 16.25H4.37438C4.54014 16.25 4.69911 16.1842 4.81632 16.0669C4.93353 15.9497 4.99938 15.7908 4.99938 15.625C5.3357 15.625 5.56969 15.5648 5.81774 15.5008C6.17585 15.4043 6.5419 15.3401 6.91149 15.309C8.10328 15.1953 9.28844 15.1562 9.99977 15.1562C10.6966 15.1562 11.9341 15.1953 13.1279 15.309C13.4989 15.3402 13.8664 15.4046 14.2259 15.5016C14.4634 15.5625 14.6888 15.6187 15.0009 15.6246C15.0009 15.7904 15.0668 15.9493 15.184 16.0666C15.3012 16.1838 15.4602 16.2496 15.6259 16.2496H17.8134C17.9792 16.2496 18.1382 16.1838 18.2554 16.0666C18.3726 15.9493 18.4384 15.7904 18.4384 15.6246V15.6199C18.556 15.6054 18.6671 15.5578 18.7586 15.4827C18.8502 15.4075 18.9185 15.3078 18.9556 15.1953C18.9658 15.1645 19.2068 14.4207 19.3353 13.1902C19.3966 12.5977 19.3857 11.6797 19.3068 10.7898ZM4.38766 7.39492C4.70016 6.73086 5.05758 5.9793 5.69391 5.6625C6.61344 5.20469 8.5193 4.99844 9.99977 4.99844C11.4802 4.99844 13.3861 5.20313 14.3056 5.6625C14.942 5.9793 15.2978 6.73125 15.6119 7.39492L15.6509 7.47969C15.6738 7.52794 15.6839 7.58125 15.6803 7.63452C15.6767 7.68778 15.6595 7.73924 15.6303 7.78397C15.6012 7.8287 15.5611 7.86523 15.5138 7.89005C15.4665 7.91488 15.4137 7.92718 15.3603 7.92578C14.0623 7.89062 11.3279 7.77812 9.99977 7.77812C8.67164 7.77812 5.93727 7.89336 4.63727 7.92852C4.5839 7.92991 4.53106 7.91761 4.48379 7.89279C4.43652 7.86796 4.3964 7.83144 4.36726 7.78671C4.33812 7.74197 4.32092 7.69052 4.31731 7.63725C4.3137 7.58398 4.3238 7.53068 4.34664 7.48242C4.36031 7.45352 4.37477 7.42422 4.38766 7.39492ZM4.85367 10.5055C4.18172 10.5863 3.50547 10.6263 2.82867 10.625C2.41461 10.625 1.98766 10.5078 1.90836 10.1391C1.85406 9.89102 1.85992 9.75156 1.88922 9.61133C1.91383 9.49219 1.95289 9.40547 2.1482 9.375C2.65602 9.29688 2.94 9.39492 3.77125 9.63984C4.32242 9.80195 4.72008 10.018 4.94664 10.1891C5.06031 10.2734 4.99977 10.4938 4.85367 10.5055ZM13.5013 13.7086C12.9873 13.7672 11.9591 13.7457 10.0115 13.7457C8.06383 13.7457 7.0361 13.7672 6.52203 13.7086C5.99156 13.6496 5.31539 13.148 5.77711 12.7012C6.08453 12.4066 6.80172 12.1863 7.7568 12.0625C8.71188 11.9387 9.11617 11.875 10.0076 11.875C10.899 11.875 11.2623 11.9141 12.2584 12.0629C13.2545 12.2117 14.0072 12.4348 14.238 12.7016C14.6591 13.1797 14.0314 13.6465 13.5013 13.7109V13.7086ZM18.0912 10.1387C18.0131 10.509 17.5834 10.6246 17.1709 10.6246C16.4811 10.6248 15.7919 10.5849 15.1068 10.5051C14.9873 10.4937 14.9318 10.284 15.0529 10.1887C15.2759 10.0133 15.6779 9.80156 16.2283 9.63945C17.0595 9.39453 17.5388 9.29648 17.9506 9.37813C18.0509 9.39805 18.1041 9.50586 18.1103 9.57344C18.1379 9.7616 18.1314 9.95319 18.0912 10.1391V10.1387Z" fill="#2CA7EC"/>
</g>
</svg>
