<svg width="63" height="63" viewBox="0 0 63 63" fill="none" xmlns="http://www.w3.org/2000/svg">
<g id="chat 1" clip-path="url(#clip0_1_1948)">
<path id="Vector" d="M55.125 43.8244L40.6309 31.7461H19.6875V4.18359C19.6875 2.00912 21.4505 0.246094 23.625 0.246094H59.0625C61.237 0.246094 63 2.00912 63 4.18359V27.8086C63 29.9831 61.237 31.7461 59.0625 31.7461H55.125V43.8244Z" fill="#FD4755"/>
<path id="Vector_2" d="M29.5313 10.0898H53.1563C54.2435 10.0898 55.125 10.9714 55.125 12.0586C55.125 13.1458 54.2435 14.0273 53.1563 14.0273H29.5313C28.444 14.0273 27.5625 13.1458 27.5625 12.0586C27.5625 10.9714 28.444 10.0898 29.5313 10.0898Z" fill="white"/>
<path id="Vector_3" d="M7.875 62.8621V51.4336H3.9375C1.76303 51.4336 0 49.6706 0 47.4961V23.8711C0 21.6966 1.76303 19.9336 3.9375 19.9336H39.375C41.5495 19.9336 43.3125 21.6966 43.3125 23.8711V47.4961C43.3125 49.6706 41.5495 51.4336 39.375 51.4336H26.159L7.875 62.8621Z" fill="#24A9E1"/>
<g id="Group">
<path id="Vector_4" d="M9.84375 29.7773H33.4688C34.556 29.7773 35.4375 30.6589 35.4375 31.7461C35.4375 32.8333 34.556 33.7148 33.4688 33.7148H9.84375C8.75652 33.7148 7.875 32.8333 7.875 31.7461C7.875 30.6589 8.75652 29.7773 9.84375 29.7773Z" fill="white"/>
<path id="Vector_5" d="M31.5 41.5898H27.5625V37.6523H31.5V41.5898ZM21.6562 41.5898H9.84375C8.75652 41.5898 7.875 40.7083 7.875 39.6211C7.875 38.5339 8.75652 37.6523 9.84375 37.6523H21.6562C22.7435 37.6523 23.625 38.5339 23.625 39.6211C23.625 40.7083 22.7435 41.5898 21.6562 41.5898Z" fill="white"/>
</g>
</g>
<defs>
<clipPath id="clip0_1_1948">
<rect width="63" height="63" fill="white"/>
</clipPath>
</defs>
</svg>
