<svg width="17" height="17" viewBox="0 0 17 17" fill="none" xmlns="http://www.w3.org/2000/svg">
<path d="M13.8125 5.49768V6.90629C13.8125 8.95691 12.1444 10.625 10.0938 10.625H3.7666C4.02001 12.1319 5.32741 13.2813 6.90629 13.2813H14.3438L15.9375 14.875V8.50004C15.9375 7.11268 15.0498 5.9357 13.8125 5.49768Z" fill="#FAB400"/>
<path d="M4.8291 10.625H3.7666C4.02001 12.1319 5.32741 13.2812 6.90629 13.2812H7.96879C6.38991 13.2812 5.08251 12.1319 4.8291 10.625Z" fill="#DC9600"/>
<path d="M4.25 2.125C2.4897 2.125 1.0625 3.5522 1.0625 5.3125V11.6875L2.65625 10.0938H10.0938C11.854 10.0938 13.2812 8.66655 13.2812 6.90625V5.3125C13.2812 3.5522 11.854 2.125 10.0938 2.125H4.25Z" fill="#24A9E1"/>
<path d="M2.125 5.3125C2.125 3.5522 3.5522 2.125 5.3125 2.125H4.25C2.4897 2.125 1.0625 3.5522 1.0625 5.3125V11.6875L2.125 10.625V5.3125Z" fill="#1588B8"/>
<path d="M5.84375 6.90625C5.55023 6.90625 5.3125 6.66852 5.3125 6.375C5.3125 6.08148 5.55023 5.84375 5.84375 5.84375C6.13727 5.84375 6.375 6.08148 6.375 6.375C6.375 6.66852 6.13727 6.90625 5.84375 6.90625Z" fill="#F0F0F0"/>
<path d="M7.4375 6.90625C7.14398 6.90625 6.90625 6.66852 6.90625 6.375C6.90625 6.08148 7.14398 5.84375 7.4375 5.84375C7.73102 5.84375 7.96875 6.08148 7.96875 6.375C7.96875 6.66852 7.73102 6.90625 7.4375 6.90625Z" fill="#F0F0F0"/>
<path d="M9.03125 6.90625C8.73773 6.90625 8.5 6.66852 8.5 6.375C8.5 6.08148 8.73773 5.84375 9.03125 5.84375C9.32477 5.84375 9.5625 6.08148 9.5625 6.375C9.5625 6.66852 9.32477 6.90625 9.03125 6.90625Z" fill="#F0F0F0"/>
</svg>
