<svg width="29" height="29" viewBox="0 0 29 29" fill="none" xmlns="http://www.w3.org/2000/svg">
<path d="M14.5731 4.19617e-05C6.52336 0.00123787 -0.00125238 6.52778 1.80316e-07 14.5775C0.000569528 18.4418 1.5357 22.1477 4.26789 24.8805C10.0425 30.4887 19.2701 30.3538 24.8783 24.5792C30.3709 18.9236 30.3709 9.92565 24.8783 4.27009C22.1513 1.52766 18.4405 -0.00992203 14.5731 4.19617e-05ZM14.5731 28.0119C7.16416 28.0119 1.13647 21.9843 1.13647 14.5753C1.13647 7.16642 7.16416 1.13874 14.5731 1.13874C21.982 1.13874 28.0097 7.16642 28.0097 14.5753C28.0097 21.9843 21.982 28.0119 14.5731 28.0119Z" fill="#FEBA31"/>
<path d="M19.4443 14.006H9.09181C8.77736 14.006 8.52246 14.2609 8.52246 14.5754C8.52246 14.8898 8.77736 15.1447 9.09181 15.1447H19.4443C19.7587 15.1447 20.0136 14.8898 20.0136 14.5754C20.0136 14.2609 19.7587 14.006 19.4443 14.006Z" fill="#FEBA31"/>
<path d="M16.3995 10.9611C16.085 10.9605 15.8297 11.215 15.8291 11.5294C15.8288 11.6808 15.8888 11.8259 15.9958 11.933L18.6387 14.5753L15.9958 17.2177C15.7773 17.4438 15.7836 17.8043 16.0098 18.0227C16.2304 18.2358 16.5802 18.2358 16.8009 18.0227L19.8457 14.9779C20.068 14.7555 20.068 14.3951 19.8457 14.1728L16.8009 11.1279C16.6944 11.0214 16.5501 10.9614 16.3995 10.9611Z" fill="#FEBA31"/>
</svg>
