<svg width="47" height="48" viewBox="0 0 47 48" fill="none" xmlns="http://www.w3.org/2000/svg">
<g clip-path="url(#clip0_486_26)">
<path d="M43.6177 18.0472C43.6802 18.0135 43.7562 18.0174 43.815 18.0572C43.9579 18.1366 44.6441 18.664 45.2751 21.4313C44.5722 21.4605 43.6612 21.5223 42.6006 21.6594C42.6115 21.3477 42.614 21.0434 42.6148 20.7601C42.619 19.0284 42.7034 18.3957 43.6177 18.0472Z" fill="#82A5B8"/>
<path d="M40.7861 24.013C40.8713 23.7643 41.0865 23.5828 41.346 23.5408C41.5007 23.509 41.6536 23.4865 41.8233 23.4572C43.2827 23.2106 44.7595 23.0812 46.2395 23.0703H46.2947C46.4988 23.0563 46.6791 23.2021 46.7084 23.4046C46.901 25.0681 46.8259 26.7518 46.4861 28.3916C46.1705 29.5842 45.6814 30.7238 45.0343 31.774C43.7687 29.4352 42.0295 27.3857 39.9277 25.7564C40.2892 25.2155 40.5778 24.6293 40.7861 24.013Z" fill="#82A5B8"/>
<path d="M32.7176 27.5741L36.9073 25.9736C41.3812 27.7329 44.095 33.4722 44.5965 34.5487C44.1343 35.3477 42.6466 37.3644 38.8221 38.8237C37.5114 39.3397 36.13 39.6539 34.7251 39.7556H33.6227C33.0394 39.7287 32.4621 39.6248 31.906 39.4463C31.8584 39.2416 31.794 38.9608 31.7297 38.6231C31.3319 36.5529 30.6373 31.3502 32.7176 27.5741Z" fill="#82A5B8"/>
<path d="M29.8642 37.5826C28.7393 37.2107 27.6808 36.6619 26.7284 35.957C25.4824 34.9142 24.4219 33.668 23.5917 32.2713C23.4924 32.0578 23.555 31.804 23.7422 31.6611C23.753 31.6511 23.7639 31.6411 23.7731 31.6311C24.9254 30.6383 26.1523 29.7355 27.443 28.9307C27.5759 28.8471 27.7088 28.7577 27.8701 28.6641C28.0648 28.5374 28.3144 28.5319 28.5145 28.6498C29.0377 28.9815 29.6045 29.2389 30.1985 29.4146C29.5461 32.0881 29.4325 34.8647 29.8642 37.5826Z" fill="#82A5B8"/>
<path d="M22.6294 26.1559C22.6556 26.0675 22.7238 25.9977 22.8116 25.9695C23.6975 25.6352 24.1028 26.0347 25.135 27.3577C25.3122 27.5842 25.5019 27.8266 25.7059 28.0698C24.7949 28.6808 24.0452 29.2474 23.4785 29.7037C22.6093 27.7664 22.4539 26.6089 22.6294 26.1559Z" fill="#82A5B8"/>
<path d="M0 27.6118C0 24.3164 0.491437 20.5328 4.32096 20.5328C5.12398 20.5288 5.92248 20.6532 6.68621 20.9014V22.6975C5.94323 22.3625 5.13592 22.1941 4.32096 22.2044C1.87381 22.2044 1.67155 24.7627 1.67155 27.6118C1.67155 30.5061 2.66195 32.2337 4.32096 32.2337C5.12699 32.2254 5.92614 32.0842 6.68621 31.8158V32.2337C6.68976 32.6705 6.72495 33.1066 6.79152 33.5383C5.98915 33.7753 5.15756 33.8988 4.32096 33.9052C1.61556 33.9052 0 31.5525 0 27.6118Z" fill="#82A5B8"/>
<path d="M8.55216 33.9228C8.42217 33.3692 8.35682 32.8024 8.35743 32.2337V18.8613C8.35743 18.3997 8.73162 18.0255 9.1932 18.0255H27.5803C28.0419 18.0255 28.4161 18.3997 28.4161 18.8613V26.9223C27.9781 26.8815 27.5377 26.9686 27.1482 27.1731C26.9066 26.8973 26.6743 26.6131 26.4528 26.3289C25.5059 25.1154 24.3299 23.6018 22.2171 24.4067C21.6874 24.6021 21.2691 25.0186 21.0713 25.5475C20.6358 26.6699 21.0153 28.4384 22.2071 30.9224C21.7702 31.597 21.7557 32.4615 22.1695 33.1506C23.1049 34.7171 24.3001 36.113 25.704 37.2785C25.8502 37.3913 26.0015 37.4941 26.1528 37.5977C24.7534 38.9829 22.8631 39.7586 20.8941 39.7557H15.8794C12.3714 39.7701 9.32468 37.3447 8.55216 33.9228Z" fill="#82A5B8"/>
<path d="M46.8031 43.0987C46.8031 44.0047 45.633 44.7703 44.254 44.7703H5.89189C4.51286 44.7703 3.34277 44.0047 3.34277 43.0987V41.5032C3.4309 41.4502 3.53249 41.4238 3.63529 41.4272H46.5106C46.6134 41.4238 46.715 41.4502 46.8031 41.5032V43.0987Z" fill="#82A5B8"/>
<path d="M17.5517 13.8466C17.0901 13.8466 16.7159 13.4724 16.7159 13.0108C16.7086 12.0419 17.0732 11.107 17.7347 10.399C18.1526 9.98455 18.3876 9.42042 18.3876 8.83192C18.3876 8.24342 18.1526 7.67928 17.7347 7.26484C17.0732 6.55681 16.7086 5.62198 16.7159 4.65304C16.7159 4.19145 17.0901 3.81726 17.5517 3.81726C18.0133 3.81726 18.3875 4.19145 18.3875 4.65304C18.3819 5.24262 18.6178 5.80881 19.0402 6.22012C20.3987 7.69636 20.3987 9.96748 19.0402 11.4437C18.6178 11.855 18.3819 12.4212 18.3875 13.0108C18.3875 13.4724 18.0133 13.8466 17.5517 13.8466Z" fill="#82A5B8"/>
<path d="M12.5371 13.8466C12.0755 13.8466 11.7013 13.4724 11.7013 13.0108C11.6939 12.0419 12.0586 11.107 12.7201 10.399C13.1379 9.98455 13.3729 9.42042 13.3729 8.83192C13.3729 8.24342 13.1379 7.67928 12.7201 7.26484C12.0586 6.55681 11.6939 5.62198 11.7013 4.65304C11.7013 4.19145 12.0755 3.81726 12.5371 3.81726C12.9986 3.81726 13.3728 4.19145 13.3728 4.65304C13.3673 5.24262 13.6031 5.80881 14.0256 6.22012C15.384 7.69636 15.384 9.96748 14.0256 11.4437C13.6031 11.855 13.3673 12.4212 13.3728 13.0108C13.3728 13.4724 12.9986 13.8466 12.5371 13.8466Z" fill="#82A5B8"/>
<path d="M22.5664 13.8466C22.1048 13.8466 21.7306 13.4724 21.7306 13.0108C21.7232 12.0419 22.0879 11.107 22.7494 10.399C23.1672 9.98455 23.4022 9.42042 23.4022 8.83192C23.4022 8.24342 23.1672 7.67928 22.7494 7.26484C22.0879 6.55681 21.7232 5.62198 21.7306 4.65304C21.7306 4.19145 22.1048 3.81726 22.5664 3.81726C23.0279 3.81726 23.4021 4.19145 23.4021 4.65304C23.3966 5.24262 23.6324 5.80881 24.0549 6.22012C25.4133 7.69636 25.4133 9.96748 24.0549 11.4437C23.6324 11.855 23.3966 12.4212 23.4021 13.0108C23.4021 13.4724 23.0279 13.8466 22.5664 13.8466Z" fill="#82A5B8"/>
</g>
<defs>
<clipPath id="clip0_486_26">
<rect width="46.8035" height="46.8035" fill="white" transform="translate(0 0.89209)"/>
</clipPath>
</defs>
</svg>
