<svg width="27" height="18" viewBox="0 0 27 18" fill="none" xmlns="http://www.w3.org/2000/svg">
<path d="M24.7726 18H1.71774C0.770911 18 0 17.2291 0 16.2823V1.71774C0 0.770911 0.770911 0 1.71774 0H24.7675C25.7195 0 26.4904 0.770911 26.4904 1.71774V16.2771C26.4904 17.2291 25.7195 18 24.7726 18Z" fill="#7D8D59"/>
<path d="M0 2.60767H26.4904V6.21387H0V2.60767Z" fill="#262120"/>
<path d="M14.6898 12.2933H2.37593C2.15863 12.2933 1.97754 12.1174 1.97754 11.8949V9.58736C1.97754 9.37005 2.15345 9.18896 2.37593 9.18896H14.6898C14.9071 9.18896 15.0882 9.36488 15.0882 9.58736V11.8949C15.0882 12.1174 14.9123 12.2933 14.6898 12.2933Z" fill="white"/>
<path d="M16.6676 10L16.8173 10.4607H17.3017L16.9098 10.7454L17.0595 11.206L16.6676 10.9213L16.2758 11.206L16.4255 10.7454L16.0336 10.4607H16.518L16.6676 10Z" fill="#262120"/>
<path d="M18.001 10L18.1507 10.4607H18.6351L18.2432 10.7454L18.3929 11.206L18.001 10.9213L17.6092 11.206L17.7588 10.7454L17.367 10.4607H17.8513L18.001 10Z" fill="#262120"/>
<path d="M19.3343 10L19.4839 10.4607H19.9683L19.5765 10.7454L19.7261 11.206L19.3343 10.9213L18.9424 11.206L19.0921 10.7454L18.7002 10.4607H19.1846L19.3343 10Z" fill="#262120"/>
<path d="M7.27464 14.9992H2.13178C2.04382 14.9992 1.97656 14.9319 1.97656 14.8439C1.97656 14.756 2.04382 14.6887 2.13178 14.6887H7.26946C7.35742 14.6887 7.42468 14.756 7.42468 14.8439C7.42468 14.9319 7.35742 14.9992 7.27464 14.9992Z" fill="white"/>
</svg>
