<svg width="17" height="15" viewBox="0 0 17 15" fill="none" xmlns="http://www.w3.org/2000/svg">
<g id="Group">
<path id="Vector" fill-rule="evenodd" clip-rule="evenodd" d="M0.109416 7.82397C0.263599 7.3903 0.740133 7.1638 1.17377 7.31797L7.83624 9.6868C8.19741 9.81522 8.59182 9.81522 8.95291 9.6868L15.6154 7.31797C16.0491 7.1638 16.5256 7.3903 16.6797 7.82397C16.834 8.25764 16.6074 8.73414 16.1737 8.8883L9.51132 11.2572C8.78899 11.5141 8.00024 11.5141 7.27791 11.2572L0.615424 8.8883C0.181782 8.73414 -0.0447674 8.25764 0.109416 7.82397Z" fill="#03A9F4"/>
<path id="Vector_2" fill-rule="evenodd" clip-rule="evenodd" d="M0.109416 11.3656C0.263599 10.9319 0.740133 10.7054 1.17377 10.8596L7.83624 13.2284C8.19741 13.3568 8.59182 13.3568 8.95291 13.2284L15.6154 10.8596C16.0491 10.7054 16.5256 10.9319 16.6797 11.3656C16.834 11.7993 16.6074 12.2758 16.1737 12.4299L9.51132 14.7988C8.78899 15.0557 8.00024 15.0557 7.27791 14.7988L0.615424 12.4299C0.181782 12.2758 -0.0447674 11.7993 0.109416 11.3656Z" fill="#03A9F4"/>
<path id="Vector_3" d="M9.81877 0.250862C8.89894 -0.0836208 7.89077 -0.0836208 6.97094 0.250862L1.09709 2.3868C-0.365693 2.91872 -0.365701 4.98752 1.09709 5.51945L6.97094 7.65537C7.89077 7.98987 8.89894 7.98987 9.81877 7.65537L15.6926 5.51945C17.1554 4.98752 17.1554 2.91873 15.6926 2.3868L9.81877 0.250862Z" fill="#03A9F4"/>
</g>
</svg>
