<svg width="22" height="21" viewBox="0 0 22 21" fill="none" xmlns="http://www.w3.org/2000/svg">
<g id="discount (1) 1" clip-path="url(#clip0_88_765)">
<g id="Group">
<g id="Group_2">
<path id="Vector" d="M20.4219 11.1165C20.3369 10.9501 20.3369 10.7593 20.4219 10.593L21.2101 9.05095C21.6489 8.19236 21.3012 7.16901 20.4185 6.7211L18.8331 5.91663C18.6621 5.82987 18.5448 5.67545 18.5113 5.49312L18.2013 3.80251C18.0286 2.86122 17.1182 2.2287 16.1289 2.36255L14.3519 2.60294C14.1601 2.62884 13.9704 2.56987 13.8313 2.44114L12.5414 1.24778C11.8232 0.58328 10.698 0.583241 9.9798 1.24778L8.68987 2.44126C8.55068 2.57002 8.36102 2.62888 8.16926 2.60306L6.39223 2.36267C5.40266 2.22874 4.49254 2.86134 4.31988 3.80263L4.00982 5.49316C3.97635 5.67553 3.85909 5.82991 3.68808 5.91671L2.1027 6.72118C1.21998 7.16905 0.872279 8.19248 1.31112 9.05107L2.09927 10.5931C2.1843 10.7594 2.1843 10.9503 2.09927 11.1166L1.31108 12.6586C0.872238 13.5172 1.21994 14.5405 2.10266 14.9884L3.68804 15.7929C3.85909 15.8797 3.97635 16.0341 4.00982 16.2164L4.31988 17.907C4.47706 18.7639 5.24536 19.3649 6.12836 19.3648C6.21533 19.3648 6.30357 19.359 6.39227 19.347L8.1693 19.1066C8.36094 19.0806 8.55073 19.1396 8.68991 19.2684L9.9798 20.4617C10.339 20.794 10.7997 20.9601 11.2606 20.9601C11.7213 20.96 12.1823 20.7939 12.5413 20.4617L13.8313 19.2684C13.9705 19.1396 14.1602 19.0808 14.3519 19.1066L16.1289 19.347C17.1186 19.4809 18.0286 18.8483 18.2013 17.907L18.5114 16.2165C18.5448 16.0341 18.6621 15.8797 18.8331 15.7929L20.4185 14.9884C21.3012 14.5406 21.6489 13.5171 21.2101 12.6586L20.4219 11.1165ZM19.8472 13.9587L18.2618 14.7632C17.7564 15.0197 17.4097 15.4759 17.3108 16.015L17.0008 17.7056C16.9424 18.024 16.6345 18.2379 16.2996 18.1928L14.5226 17.9524C13.9559 17.8756 13.3951 18.05 12.9838 18.4305L11.6939 19.6238C11.4509 19.8486 11.0703 19.8486 10.8272 19.6238L9.53733 18.4305C9.18971 18.1089 8.73527 17.9346 8.26085 17.9346C8.17392 17.9346 8.0863 17.9404 7.99854 17.9523L6.22152 18.1927C5.88694 18.2379 5.57882 18.024 5.52038 17.7055L5.21027 16.0149C5.11138 15.4759 4.76475 15.0196 4.25925 14.7631L2.67386 13.9587C2.3752 13.8071 2.25756 13.4609 2.40603 13.1704L3.19422 11.6284C3.44551 11.1367 3.44551 10.5728 3.19422 10.0811L2.40603 8.53906C2.25756 8.24857 2.3752 7.90235 2.67386 7.75081L4.25925 6.94634C4.76471 6.6898 5.11138 6.23356 5.21023 5.69451L5.52029 4.00394C5.57874 3.68547 5.88657 3.47152 6.22144 3.51676L7.99846 3.75715C8.56497 3.83385 9.12594 3.65949 9.53725 3.27901L10.8272 2.08564C11.0701 1.86088 11.4508 1.86088 11.6938 2.08564L12.9837 3.27901C13.395 3.65953 13.9559 3.83385 14.5225 3.75715L16.2995 3.51676C16.6342 3.47148 16.9423 3.68547 17.0007 4.00394L17.3108 5.69455C17.4096 6.2336 17.7563 6.68988 18.2618 6.94634L19.8472 7.75081C20.1458 7.90235 20.2635 8.24857 20.115 8.53906L19.3268 10.0811C19.0755 10.5727 19.0755 11.1367 19.3268 11.6283L20.115 13.1703C20.2635 13.4609 20.1459 13.8072 19.8472 13.9587Z" fill="#03A9F4"/>
</g>
</g>
<g id="Group_3">
<g id="Group_4">
<path id="Vector_2" d="M15.7134 6.59612C15.4754 6.36851 15.0895 6.36851 14.8515 6.59612L6.8074 14.2891C6.56941 14.5167 6.56941 14.8858 6.8074 15.1134C6.9264 15.2272 7.08238 15.2841 7.23832 15.2841C7.39425 15.2841 7.55027 15.2272 7.66923 15.1134L15.7133 7.42041C15.9514 7.19276 15.9514 6.82376 15.7134 6.59612Z" fill="#03A9F4"/>
</g>
</g>
<g id="Group_5">
<g id="Group_6">
<path id="Vector_3" d="M8.82249 5.60925C7.59034 5.60925 6.58789 6.56795 6.58789 7.74631C6.58789 8.92468 7.59034 9.88337 8.82249 9.88337C10.0546 9.88337 11.0571 8.92468 11.0571 7.74631C11.0571 6.56795 10.0546 5.60925 8.82249 5.60925ZM8.82249 8.71768C8.26243 8.71768 7.80679 8.28193 7.80679 7.74627C7.80679 7.21066 8.26243 6.77491 8.82249 6.77491C9.38256 6.77491 9.83824 7.21066 9.83824 7.74627C9.8382 8.28193 9.38256 8.71768 8.82249 8.71768Z" fill="#03A9F4"/>
</g>
</g>
<g id="Group_7">
<g id="Group_8">
<path id="Vector_4" d="M13.698 11.8261C12.4658 11.8261 11.4634 12.7848 11.4634 13.9632C11.4634 15.1415 12.4658 16.1002 13.698 16.1002C14.9301 16.1002 15.9326 15.1415 15.9326 13.9632C15.9326 12.7848 14.9301 11.8261 13.698 11.8261ZM13.698 14.9345C13.1379 14.9345 12.6822 14.4988 12.6822 13.9632C12.6822 13.4276 13.1379 12.9918 13.698 12.9918C14.258 12.9918 14.7137 13.4276 14.7137 13.9632C14.7137 14.4988 14.258 14.9345 13.698 14.9345Z" fill="#03A9F4"/>
</g>
</g>
</g>
<defs>
<clipPath id="clip0_88_765">
<rect width="21.1331" height="20.2106" fill="white" transform="translate(0.693848 0.749451)"/>
</clipPath>
</defs>
</svg>
