<svg width="53" height="53" viewBox="0 0 53 53" fill="none" xmlns="http://www.w3.org/2000/svg">
<path fill-rule="evenodd" clip-rule="evenodd" d="M6.23047 17.7744H23.6893V31.487H6.23047V17.7744Z" fill="#FBD18F"/>
<path fill-rule="evenodd" clip-rule="evenodd" d="M13.1733 17.7744H16.7364V28.1785H13.1733V17.7744Z" fill="#ED1968"/>
<path fill-rule="evenodd" clip-rule="evenodd" d="M23.6895 17.7744H41.1483V31.487H23.6895V17.7744Z" fill="#E2BC81"/>
<path fill-rule="evenodd" clip-rule="evenodd" d="M30.6323 17.7744H34.1954V28.1785H30.6323V17.7744Z" fill="#ED1968"/>
<path fill-rule="evenodd" clip-rule="evenodd" d="M14.9546 4.06189H32.4134V17.7745H14.9546V4.06189Z" fill="#FCB13B"/>
<path fill-rule="evenodd" clip-rule="evenodd" d="M21.9077 4.06189H25.4707V14.4659H21.9077V4.06189Z" fill="#ED1968"/>
<path fill-rule="evenodd" clip-rule="evenodd" d="M37.9618 8.7345C44.5076 8.7345 49.8115 14.0383 49.8115 20.5841C49.8115 27.1299 44.5076 32.4337 37.9618 32.4337C36.3534 32.4337 34.806 32.108 33.4114 31.5277L28.25 34.5716L30.3879 29.6953C27.7716 27.5269 26.1021 24.2489 26.1021 20.5739C26.1021 14.0383 31.4161 8.7345 37.9618 8.7345Z" fill="#FCB13B"/>
<path fill-rule="evenodd" clip-rule="evenodd" d="M37.7684 29.6342C42.8585 29.6342 47.0119 25.4808 47.0119 20.3907C47.0119 15.3007 42.8585 11.1472 37.7684 11.1472C32.6784 11.1472 28.5249 15.3007 28.5249 20.3907C28.5249 25.4808 32.6784 29.6342 37.7684 29.6342Z" fill="#E6A624"/>
<path fill-rule="evenodd" clip-rule="evenodd" d="M33.228 13.7228C33.5232 13.5192 33.8287 13.3359 34.1442 13.1629C35.4371 12.4808 36.903 12.094 38.4708 12.094C39.3666 12.094 40.2319 12.2161 41.0463 12.4604C41.8098 12.6844 42.5428 13 43.2045 13.397C43.4997 13.5803 43.795 13.7737 44.0698 13.9773C44.6094 14.3845 45.098 14.8528 45.5256 15.372L45.5357 15.3821C45.5357 15.372 45.5256 15.372 45.5256 15.372C45.098 14.7102 44.5992 14.1198 44.0291 13.5904C43.8764 13.4479 43.7237 13.3156 43.5608 13.1934C42.8177 12.5928 41.9829 12.1041 41.0667 11.758C40.0385 11.361 38.9187 11.1472 37.7582 11.1472C36.5875 11.1472 35.4778 11.361 34.4496 11.758C33.5436 12.1041 32.6987 12.5928 31.9555 13.1934C31.7926 13.3258 31.6399 13.4581 31.4974 13.5904C30.9273 14.1198 30.4183 14.7204 29.9908 15.372C29.0542 16.8175 28.5146 18.538 28.5146 20.3806C28.5146 22.6507 29.3291 24.7275 30.683 26.3359C29.7566 24.9005 29.2171 23.1801 29.2171 21.3375C29.2273 18.1817 30.8052 15.3923 33.228 13.7228Z" fill="#B9872C"/>
<path fill-rule="evenodd" clip-rule="evenodd" d="M37.7783 37.4932L43.0211 36.7908L48.2943 33.126C50.5747 31.3037 53.1502 34.2458 50.1675 36.4651L41.7995 42.6953L31.4565 46.1463L21.8058 45.2912L18.9248 45.4642V36.3531L19.6781 35.9357C26.6006 32.1283 23.6076 34.3883 30.3163 34.6225C33.6859 34.7344 38.2161 34.6835 37.7783 37.4932Z" fill="#FAD1A2"/>
<path d="M37.2898 36.9538C37.2796 36.6789 37.4934 36.4346 37.7785 36.4244C38.0533 36.4142 38.2977 36.628 38.3078 36.9131C38.4198 39.3257 36.0988 39.4683 31.8944 39.7431C31.1105 39.794 30.2452 39.8449 29.2679 39.9264C28.9931 39.9467 28.7386 39.7431 28.7182 39.4581C28.6978 39.1832 28.9014 38.9287 29.1865 38.9084C30.1129 38.8371 31.0087 38.776 31.8333 38.7251C35.3862 38.491 37.3509 38.3688 37.2898 36.9538Z" fill="#B89877"/>
<path fill-rule="evenodd" clip-rule="evenodd" d="M12.5928 35.7423L0.61084 34.765V41.1072V47.4494L12.5928 46.4619V35.7423Z" fill="#ED2024"/>
<path fill-rule="evenodd" clip-rule="evenodd" d="M13.4683 34.0219H18.0595C18.5379 34.0219 18.935 34.4189 18.935 34.8973V47.1847C18.935 47.6632 18.5379 48.0602 18.0595 48.0602H13.4683C12.9898 48.0602 12.5928 47.6632 12.5928 47.1847V34.8973C12.5928 34.4189 12.9796 34.0219 13.4683 34.0219Z" fill="#CE2027"/>
<path fill-rule="evenodd" clip-rule="evenodd" d="M43.7031 41.2701L41.7893 42.6954L31.4565 46.1464L21.8159 45.2913L18.9248 45.4643V41.2701H43.7031Z" fill="#B89877"/>
<path fill-rule="evenodd" clip-rule="evenodd" d="M0.61084 41.2701V47.4495L12.5928 46.462V41.2701H0.61084Z" fill="#B92025"/>
<path fill-rule="evenodd" clip-rule="evenodd" d="M18.9247 41.2701V47.1848C18.9247 47.6632 18.5277 48.0603 18.0492 48.0603H13.458C12.9795 48.0603 12.5825 47.6632 12.5825 47.1848V41.2701H18.9247Z" fill="#961A1D"/>
<path d="M42.176 15.5654C42.3593 15.3516 42.685 15.3313 42.8988 15.5145C43.1126 15.6978 43.1329 16.0235 42.9497 16.2271L34.0828 26.4887C33.8996 26.7024 33.5738 26.7228 33.3702 26.5396C33.1565 26.3563 33.1361 26.0306 33.3193 25.827L42.176 15.5654ZM34.6529 15.4127C35.3655 15.4127 36.0171 15.7385 36.4752 16.2679C36.9231 16.7769 37.198 17.4793 37.198 18.253C37.198 19.0267 36.9231 19.7291 36.4752 20.2381C36.0069 20.7674 35.3655 21.0932 34.6529 21.0932C33.9403 21.0932 33.2888 20.7674 32.8307 20.2381C32.3828 19.7291 32.1079 19.0267 32.1079 18.253C32.1079 17.4793 32.3828 16.7769 32.8307 16.2679C33.2888 15.7385 33.9301 15.4127 34.6529 15.4127ZM35.7117 16.9397C35.4368 16.6242 35.0601 16.4307 34.6529 16.4307C34.2457 16.4307 33.8691 16.6242 33.5942 16.9397C33.3092 17.2757 33.1259 17.7338 33.1259 18.253C33.1259 18.7722 33.3092 19.2404 33.5942 19.5662C33.8691 19.8818 34.2457 20.0752 34.6529 20.0752C35.0601 20.0752 35.4368 19.8818 35.7117 19.5662C35.9967 19.2303 36.1799 18.7722 36.1799 18.253C36.1799 17.7338 35.9967 17.2757 35.7117 16.9397ZM41.6059 20.9507C42.3185 20.9507 42.9701 21.2765 43.4282 21.8058C43.8761 22.3148 44.151 23.0172 44.151 23.7909C44.151 24.5646 43.8761 25.267 43.4282 25.776C42.9599 26.3054 42.3185 26.6312 41.6059 26.6312C40.8933 26.6312 40.2418 26.3054 39.7837 25.776C39.3358 25.267 39.0609 24.5646 39.0609 23.7909C39.0609 23.0172 39.3358 22.3148 39.7837 21.8058C40.2418 21.2765 40.8933 20.9507 41.6059 20.9507ZM42.6647 22.4777C42.3898 22.1621 42.0131 21.9687 41.6059 21.9687C41.1885 21.9687 40.8221 22.1621 40.5472 22.4777C40.252 22.8136 40.0789 23.2717 40.0789 23.7909C40.0789 24.3101 40.2622 24.7784 40.5472 25.1042C40.8221 25.4197 41.1987 25.6132 41.6059 25.6132C42.0131 25.6132 42.3898 25.4197 42.6647 25.1042C42.9599 24.7682 43.1329 24.3101 43.1329 23.7909C43.1329 23.2717 42.9599 22.8136 42.6647 22.4777Z" fill="#A67A2C"/>
<path d="M41.82 14.9241C42.0032 14.7103 42.329 14.6899 42.5326 14.8732C42.7464 15.0564 42.7667 15.3822 42.5835 15.5858L33.7166 25.8473C33.5334 26.0611 33.2076 26.0814 32.9939 25.8982C32.7801 25.715 32.7597 25.3892 32.943 25.1856L41.82 14.9241ZM34.2867 14.7815C34.9993 14.7815 35.6509 15.1073 36.109 15.6367C36.5569 16.1457 36.8317 16.8481 36.8317 17.6218C36.8317 18.3955 36.5569 19.0979 36.109 19.6069C35.6407 20.1363 34.9993 20.462 34.2867 20.462C33.5741 20.462 32.9226 20.1363 32.4645 19.6069C32.0166 19.0979 31.7417 18.3955 31.7417 17.6218C31.7417 16.8481 32.0166 16.1457 32.4645 15.6367C32.9328 15.1073 33.5741 14.7815 34.2867 14.7815ZM35.3455 16.3086C35.0706 15.993 34.6939 15.7996 34.2867 15.7996C33.8795 15.7996 33.5029 15.993 33.228 16.3086C32.9328 16.6445 32.7597 17.1128 32.7597 17.6218C32.7597 18.141 32.9429 18.6093 33.228 18.935C33.5029 19.2506 33.8795 19.444 34.2867 19.444C34.7041 19.444 35.0706 19.2506 35.3455 18.935C35.6407 18.5991 35.8137 18.141 35.8137 17.6218C35.8239 17.1026 35.6407 16.6343 35.3455 16.3086ZM41.2397 20.3195C41.9523 20.3195 42.6039 20.6453 43.062 21.1746C43.5099 21.6836 43.7847 22.3861 43.7847 23.1598C43.7847 23.9334 43.5099 24.6359 43.062 25.1449C42.6039 25.6742 41.9523 26 41.2397 26C40.5271 26 39.8756 25.6742 39.4175 25.1449C38.9696 24.6359 38.6947 23.9334 38.6947 23.1598C38.6947 22.3861 38.9696 21.6836 39.4175 21.1746C39.8858 20.6453 40.5271 20.3195 41.2397 20.3195ZM42.3086 21.8465C42.0338 21.5309 41.6571 21.3375 41.2499 21.3375C40.8427 21.3375 40.466 21.5309 40.1912 21.8465C39.9061 22.1825 39.7229 22.6508 39.7229 23.1598C39.7229 23.6789 39.9061 24.1472 40.1912 24.473C40.466 24.7886 40.8427 24.982 41.2499 24.982C41.6571 24.982 42.0338 24.7886 42.3086 24.473C42.5937 24.137 42.7769 23.6789 42.7769 23.1598C42.7769 22.6406 42.5937 22.1723 42.3086 21.8465Z" fill="white"/>
</svg>
