<svg width="20" height="18" viewBox="0 0 20 18" fill="none" xmlns="http://www.w3.org/2000/svg">
<path d="M14.2914 11.6135L18.0644 8.22091L19.929 8.38137L15.783 12.0949L17.0334 17.7338L15.4101 16.7023L14.2914 11.6135ZM12.2513 4.9888L11.0009 1.91715L11.7029 0.1521L13.721 5.12634L12.2513 4.9888ZM5.40718 14.708L8.85117 12.5533L12.2952 14.731L11.3738 10.6507L14.4011 7.89999L10.4087 7.53322L8.85117 3.6822L7.2937 7.5103L3.30129 7.87707L6.3285 10.6278L5.40718 14.708ZM3.43291 17.5734L4.85877 11.1321L0.0766602 6.7997L6.39431 6.22663L8.85117 0.1521L11.308 6.22663L17.6257 6.7997L12.8436 11.1321L14.2694 17.5734L8.85117 14.1579L3.43291 17.5734Z" fill="#FEBA31"/>
</svg>
