<svg width="25" height="16" viewBox="0 0 25 16" fill="none" xmlns="http://www.w3.org/2000/svg">
<path d="M23.6925 5.28333C23.8764 5.15417 24.15 5.275 24.15 5.47917V14C24.15 15.1042 23.1359 16 21.8859 16H2.26406C1.01411 16 0 15.1042 0 14V5.48333C0 5.275 0.268857 5.15833 0.457529 5.2875C1.51409 6.0125 2.91498 6.93333 7.72611 10.0208C8.72136 10.6625 10.4005 12.0125 12.075 12.0042C13.7589 12.0167 15.4711 10.6375 16.4286 10.0208C21.2397 6.93333 22.6359 6.00833 23.6925 5.28333ZM12.075 10.6667C13.1693 10.6833 14.7447 9.45 15.5371 8.94167C21.7963 4.92917 22.2727 4.57917 23.7161 3.57917C23.9896 3.39167 24.15 3.1 24.15 2.79167V2C24.15 0.895833 23.1359 0 21.8859 0H2.26406C1.01411 0 0 0.895833 0 2V2.79167C0 3.1 0.160371 3.3875 0.433945 3.57917C1.87729 4.575 2.35368 4.92917 8.61287 8.94167C9.40529 9.45 10.9807 10.6833 12.075 10.6667Z" fill="#034265"/>
</svg>
