<svg width="13" height="13" viewBox="0 0 13 13" fill="none" xmlns="http://www.w3.org/2000/svg">
<path fill-rule="evenodd" clip-rule="evenodd" d="M1.70192 4.24097C2.69753 3.24537 4.26607 2.23438 6.5 2.23438C8.73393 2.23438 10.3025 3.24537 11.2981 4.24097C11.7941 4.73704 12.1515 5.23201 12.3858 5.60402C12.5032 5.79053 12.5905 5.94746 12.6495 6.06015C12.6791 6.11654 12.7016 6.16196 12.7173 6.19458C12.7252 6.21091 12.7313 6.22403 12.7358 6.23378L12.7413 6.24577L12.7432 6.24983L12.7438 6.25133L12.7441 6.25194C12.7442 6.25223 12.7443 6.25251 12.1875 6.5C12.7443 6.74749 12.7442 6.74777 12.7441 6.74806L12.7438 6.74867L12.7432 6.75017L12.7413 6.75423L12.7358 6.76622C12.7313 6.77597 12.7252 6.78909 12.7173 6.80542C12.7016 6.83804 12.6791 6.88346 12.6495 6.93985C12.5905 7.05254 12.5032 7.20948 12.3858 7.39598C12.1515 7.76799 11.7941 8.26296 11.2981 8.75903C10.3025 9.75463 8.73393 10.7656 6.5 10.7656C4.26607 10.7656 2.69753 9.75463 1.70192 8.75903C1.20587 8.26296 0.848437 7.76799 0.614209 7.39598C0.496799 7.20948 0.409476 7.05254 0.350455 6.93985C0.320923 6.88346 0.298408 6.83804 0.282693 6.80542C0.274834 6.78909 0.268669 6.77597 0.264172 6.76622L0.258671 6.75423L0.25685 6.75017L0.256171 6.74867L0.255889 6.74806C0.255765 6.74777 0.255646 6.74749 0.8125 6.5C0.255646 6.25251 0.255765 6.25223 0.255889 6.25194L0.256171 6.25133L0.25685 6.24983L0.258671 6.24577L0.264172 6.23378C0.268669 6.22403 0.274834 6.21091 0.282693 6.19458C0.298408 6.16196 0.320923 6.11654 0.350455 6.06015C0.409476 5.94746 0.496799 5.79053 0.614209 5.60402C0.848437 5.23201 1.20587 4.73704 1.70192 4.24097ZM0.8125 6.5L0.255646 6.25251C0.185618 6.41006 0.185618 6.58994 0.255646 6.74749L0.8125 6.5ZM1.49841 6.5C1.53809 6.57053 1.58704 6.65368 1.64556 6.74659C1.84297 7.06014 2.14569 7.47923 2.56371 7.89722C3.39622 8.72974 4.67143 9.54688 6.5 9.54688C8.32857 9.54688 9.60379 8.72974 10.4363 7.89722C10.8543 7.47923 11.157 7.06014 11.3544 6.74659C11.4129 6.65368 11.4619 6.57053 11.5016 6.5C11.4619 6.42947 11.4129 6.34632 11.3544 6.25341C11.157 5.93986 10.8543 5.52078 10.4363 5.10278C9.60379 4.27026 8.32857 3.45312 6.5 3.45312C4.67143 3.45312 3.39622 4.27026 2.56371 5.10278C2.14569 5.52078 1.84297 5.93986 1.64556 6.25341C1.58704 6.34632 1.53809 6.42947 1.49841 6.5ZM12.1875 6.5L12.7443 6.74749C12.8144 6.58994 12.8144 6.41006 12.7443 6.25251L12.1875 6.5Z" fill="#24A9E1"/>
<path fill-rule="evenodd" clip-rule="evenodd" d="M6.5 5.48438C5.93909 5.48438 5.48438 5.93909 5.48438 6.5C5.48438 7.06091 5.93909 7.51562 6.5 7.51562C7.06091 7.51562 7.51562 7.06091 7.51562 6.5C7.51562 5.93909 7.06091 5.48438 6.5 5.48438ZM4.26562 6.5C4.26562 5.26597 5.26597 4.26562 6.5 4.26562C7.73403 4.26562 8.73438 5.26597 8.73438 6.5C8.73438 7.73403 7.73403 8.73438 6.5 8.73438C5.26597 8.73438 4.26562 7.73403 4.26562 6.5Z" fill="#24A9E1"/>
</svg>
