<svg width="34" height="35" viewBox="0 0 34 35" fill="none" xmlns="http://www.w3.org/2000/svg">
<g clip-path="url(#clip0_165_3570)">
<path d="M17 34.3682C26.3888 34.3682 34 26.757 34 17.3682C34 7.97932 26.3888 0.368164 17 0.368164C7.61116 0.368164 0 7.97932 0 17.3682C0 26.757 7.61116 34.3682 17 34.3682Z" fill="#F0F0F0"/>
<path d="M3.51403 7.01831C2.17867 8.7557 1.17175 10.7582 0.585449 12.9336H9.4293L3.51403 7.01831Z" fill="#0052B4"/>
<path d="M33.414 12.9335C32.8277 10.7582 31.8207 8.7557 30.4854 7.01831L24.5703 12.9335H33.414Z" fill="#0052B4"/>
<path d="M0.585449 21.8031C1.17182 23.9784 2.17873 25.9809 3.51403 27.7182L9.4291 21.8031H0.585449Z" fill="#0052B4"/>
<path d="M27.3498 3.88251C25.6124 2.54714 23.61 1.54022 21.4346 0.953857V9.79764L27.3498 3.88251Z" fill="#0052B4"/>
<path d="M6.6499 30.8539C8.38729 32.1893 10.3898 33.1962 12.5651 33.7826V24.9388L6.6499 30.8539Z" fill="#0052B4"/>
<path d="M12.565 0.953857C10.3897 1.54022 8.38722 2.54714 6.6499 3.88244L12.565 9.79758V0.953857Z" fill="#0052B4"/>
<path d="M21.4346 33.7826C23.6099 33.1962 25.6124 32.1893 27.3497 30.854L21.4346 24.9388V33.7826Z" fill="#0052B4"/>
<path d="M24.5703 21.8031L30.4854 27.7183C31.8207 25.981 32.8277 23.9784 33.414 21.8031H24.5703Z" fill="#0052B4"/>
<path d="M33.8561 15.1508H19.2175H19.2174V0.512066C18.4916 0.41757 17.7515 0.368164 17 0.368164C16.2483 0.368164 15.5084 0.41757 14.7826 0.512066V15.1507V15.1507H0.143902C0.0494063 15.8766 0 16.6166 0 17.3682C0 18.1198 0.0494063 18.8597 0.143902 19.5855H14.7825H14.7826V34.2243C15.5084 34.3188 16.2483 34.3682 17 34.3682C17.7515 34.3682 18.4916 34.3188 19.2174 34.2243V19.5857V19.5856H33.8561C33.9506 18.8597 34 18.1198 34 17.3682C34 16.6166 33.9506 15.8766 33.8561 15.1508Z" fill="#D80027"/>
<path d="M21.4346 21.803L29.0206 29.389C29.3695 29.0403 29.7023 28.6756 30.0198 28.2976L23.5252 21.803H21.4346V21.803Z" fill="#D80027"/>
<path d="M12.5651 21.803H12.5649L4.979 29.3889C5.32777 29.7378 5.69241 30.0706 6.07039 30.3882L12.5651 23.8934V21.803Z" fill="#D80027"/>
<path d="M12.5652 12.9335V12.9333L4.97926 5.34729C4.63036 5.69606 4.29754 6.06069 3.97998 6.43868L10.4747 12.9334L12.5652 12.9335Z" fill="#D80027"/>
<path d="M21.4346 12.9335L29.0206 5.34736C28.6719 4.99846 28.3072 4.66563 27.9292 4.34814L21.4346 10.8429V12.9335Z" fill="#D80027"/>
</g>
<defs>
<clipPath id="clip0_165_3570">
<rect width="34" height="34" fill="white" transform="translate(0 0.368164)"/>
</clipPath>
</defs>
</svg>
