<svg width="20" height="20" viewBox="0 0 20 20" fill="none" xmlns="http://www.w3.org/2000/svg">
<path d="M9.222 0.870843C9.63677 0.406574 10.3632 0.406574 10.778 0.870843C11.1082 1.24045 11.6529 1.32672 12.0811 1.07724C12.6191 0.763866 13.31 0.988353 13.561 1.55807C13.7608 2.01163 14.2522 2.26199 14.7366 2.15706C15.345 2.02525 15.9327 2.45225 15.9954 3.07165C16.0453 3.56477 16.4352 3.95471 16.9283 4.0046C17.5477 4.06727 17.9747 4.65498 17.8429 5.26343C17.738 5.74783 17.9884 6.23918 18.4419 6.43901C19.0116 6.69002 19.2361 7.38092 18.9228 7.91886C18.6733 8.34712 18.7595 8.89179 19.1292 9.222C19.5934 9.63677 19.5934 10.3632 19.1292 10.778C18.7595 11.1082 18.6733 11.6529 18.9228 12.0811C19.2361 12.6191 19.0116 13.31 18.4419 13.561C17.9884 13.7608 17.738 14.2522 17.8429 14.7366C17.9747 15.345 17.5477 15.9327 16.9283 15.9954C16.4352 16.0453 16.0453 16.4352 15.9954 16.9283C15.9327 17.5477 15.345 17.9747 14.7366 17.8429C14.2522 17.738 13.7608 17.9884 13.561 18.4419C13.31 19.0116 12.6191 19.2361 12.0811 18.9228C11.6529 18.6733 11.1082 18.7595 10.778 19.1292C10.3632 19.5934 9.63677 19.5934 9.222 19.1292C8.89179 18.7595 8.34712 18.6733 7.91886 18.9228C7.38092 19.2361 6.69002 19.0116 6.43901 18.4419C6.23918 17.9884 5.74783 17.738 5.26343 17.8429C4.65498 17.9747 4.06727 17.5477 4.0046 16.9283C3.95471 16.4352 3.56477 16.0453 3.07165 15.9954C2.45226 15.9327 2.02525 15.345 2.15706 14.7366C2.26199 14.2522 2.01163 13.7608 1.55807 13.561C0.988353 13.31 0.763866 12.6191 1.07724 12.0811C1.32672 11.6529 1.24045 11.1082 0.870843 10.778C0.406574 10.3632 0.406574 9.63677 0.870843 9.222C1.24045 8.89179 1.32672 8.34712 1.07724 7.91886C0.763866 7.38092 0.988353 6.69002 1.55807 6.43901C2.01163 6.23918 2.26199 5.74783 2.15706 5.26343C2.02525 4.65498 2.45225 4.06727 3.07165 4.0046C3.56477 3.95471 3.95471 3.56477 4.0046 3.07165C4.06727 2.45225 4.65498 2.02525 5.26343 2.15706C5.74783 2.26199 6.23918 2.01163 6.43901 1.55807C6.69002 0.988353 7.38092 0.763866 7.91886 1.07724C8.34712 1.32672 8.89179 1.24045 9.222 0.870843Z" fill="#00B67A"/>
<path d="M9.50011 4C7.49776 4 5.68324 4.93899 4.49554 6.36271L4.00828 5.88306C3.90931 5.77648 3.75701 5.73841 3.61999 5.7917C3.48295 5.82977 3.38398 5.95156 3.36872 6.09622L3.0033 8.60866C2.96204 8.91797 3.31878 9.09427 3.43727 9.03502C3.5147 9.024 6.11155 8.65417 5.94972 8.67721C6.09437 8.66196 6.2086 8.56298 6.25428 8.42594C6.29996 8.2889 6.26948 8.13663 6.16292 8.03006L5.5843 7.45144C6.4903 6.29417 7.92414 5.54807 9.50016 5.54807C12.2182 5.54807 14.4667 7.76357 14.4743 10.4816C14.4743 10.4892 14.4743 10.4892 14.4743 10.4968C14.4743 10.5936 14.4711 10.6905 14.4651 10.7865C14.4501 11.0272 14.6605 11.222 14.9005 11.1869L15.6679 11.0746C15.8498 11.0479 15.9869 10.8951 15.9933 10.7115C15.9957 10.6393 15.997 10.5675 15.997 10.4968C15.9969 6.93248 13.0804 4 9.50011 4Z" fill="white"/>
<path d="M15.563 11.8825C15.4856 11.8935 12.8887 12.2633 13.0505 12.2403C12.9059 12.2556 12.7917 12.3545 12.746 12.4916C12.7003 12.6286 12.7308 12.7809 12.8373 12.8875L13.4464 13.4966C12.548 14.6767 11.0989 15.4456 9.5001 15.4456C6.77445 15.4456 4.52596 13.2225 4.52596 10.4969C4.52852 10.4473 4.51982 10.3407 4.53652 10.138C4.55659 9.89381 4.3441 9.69565 4.104 9.72948L3.33679 9.83747C3.15556 9.86302 3.01778 10.014 3.00956 10.1969C2.99999 10.409 3.00431 10.5798 3.00329 10.6567C3.08704 14.1513 5.9827 16.9937 9.50012 16.9937C11.5253 16.9937 13.3551 16.0394 14.5428 14.5853L14.992 15.0344C15.092 15.1456 15.2581 15.1747 15.3803 15.1258C15.5173 15.0877 15.6163 14.966 15.6315 14.8213L15.9969 12.3089C16.0284 12.0732 15.8108 11.8412 15.563 11.8825Z" fill="white"/>
</svg>
