<svg width="18" height="17" viewBox="0 0 18 17" fill="none" xmlns="http://www.w3.org/2000/svg">
<g clip-path="url(#clip0_1_2547)">
<path d="M4.65481 12.5869H7.89102V12.0514C7.89102 11.7926 8.11401 11.5827 8.38906 11.5827H10.5229C10.798 11.5827 11.021 11.7926 11.021 12.0514V12.5869H14.2572C14.5718 12.5869 14.826 12.347 14.826 12.0514V7.56604H4.08594V12.0514C4.08594 12.3482 4.34137 12.5869 4.65481 12.5869Z" fill="#034265"/>
<path d="M15.8222 7.84424V12.0515C15.8222 12.8741 15.1125 13.5244 14.2572 13.5244H11.021V14.0598C11.021 14.3187 10.798 14.5286 10.523 14.5286H8.38911C8.11405 14.5286 7.89106 14.3187 7.89106 14.0598V13.5244H4.65488C3.7828 13.5244 3.08992 12.8584 3.08992 12.0515V7.84424C1.61723 9.30583 0.956055 11.1555 0.956055 12.8832V15.064C0.956055 15.8869 1.66607 16.5369 2.52102 16.5369H16.3911C17.2632 16.5369 17.9561 15.871 17.9561 15.064V12.8832C17.9561 11.1557 17.2952 9.30611 15.8222 7.84424Z" fill="#034265"/>
<path d="M5.15283 5.52437C5.15283 3.28383 7.07971 1.47437 9.45596 1.47437C11.8365 1.47437 13.7591 3.28758 13.7591 5.52437V6.62855H14.7552V5.52437C14.7552 2.76524 12.3824 0.536865 9.45596 0.536865C6.52439 0.536865 4.15674 2.7698 4.15674 5.52437V6.62855H5.15283V5.52437Z" fill="#034265"/>
<path d="M8.88721 12.5202H10.025V13.591H8.88721V12.5202Z" fill="#034265"/>
</g>
<defs>
<clipPath id="clip0_1_2547">
<rect width="17" height="16" fill="white" transform="translate(0.956055 0.536865)"/>
</clipPath>
</defs>
</svg>
