<svg width="52" height="49" viewBox="0 0 52 49" fill="none" xmlns="http://www.w3.org/2000/svg">
<g clip-path="url(#clip0_43_73)">
<path d="M11.314 36.9032H21.213V35.2635C21.213 34.4707 21.8951 33.8279 22.7365 33.8279H29.2636C30.1049 33.8279 30.787 34.4707 30.787 35.2635V36.9032H40.6859C41.6483 36.9032 42.426 36.1687 42.426 35.2635V21.5269H9.57397V35.2635C9.57397 36.1722 10.3553 36.9032 11.314 36.9032Z" fill="#034265"/>
<path d="M45.4729 22.3787V35.2634C45.4729 37.7825 43.302 39.7742 40.6859 39.7742H30.7869V41.414C30.7869 42.2068 30.1049 42.8495 29.2635 42.8495H22.7364C21.895 42.8495 21.213 42.2068 21.213 41.414V39.7742H11.3141C8.64652 39.7742 6.52712 37.7347 6.52712 35.2634V22.3787C2.02241 26.8549 0 32.5194 0 37.8105V44.4891C0 47.0095 2.17181 49 4.78695 49H47.213C49.8807 49 52 46.9605 52 44.4891V37.8105C52 32.5202 49.9785 26.8557 45.4729 22.3787Z" fill="#034265"/>
<path d="M12.8374 15.2742C12.8374 8.41259 18.7314 2.87109 25.9999 2.87109C33.2815 2.87109 39.1624 8.42408 39.1624 15.2742V18.6558H42.2093V15.2742C42.2093 6.8244 34.9513 0 25.9999 0C17.0327 0 9.79053 6.83837 9.79053 15.2742V18.6558H12.8374V15.2742Z" fill="#034265"/>
<path d="M24.26 36.699H27.7403V39.9784H24.26V36.699Z" fill="#034265"/>
</g>
<defs>
<clipPath id="clip0_43_73">
<rect width="52" height="49" fill="white"/>
</clipPath>
</defs>
</svg>
