<svg width="52" height="49" viewBox="0 0 52 49" fill="none" xmlns="http://www.w3.org/2000/svg">
<g clip-path="url(#clip0_43_96)">
<path d="M16.3451 0H8.65407C6.80177 0 5.29411 1.50264 5.29411 3.35069V13.6856H2.07552C0.375949 13.6856 -1 15.0594 -1 16.7526V42.656C-1 44.35 0.375949 45.7239 2.07552 45.7239H3.66872C3.66872 46.9803 4.69131 48 5.95112 48C7.2119 48 8.23439 46.9802 8.23439 45.7239H17.7664C17.7664 46.9803 18.789 48 20.0497 48C21.3096 48 22.3321 46.9802 22.3321 45.7239H22.9245C24.6223 45.7239 26 44.35 26 42.656V16.7527C26 15.0595 24.6223 13.6857 22.9245 13.6857H19.7032V3.35069C19.7042 1.50349 18.1974 0 16.3451 0ZM7.91238 3.35069C7.91238 2.94265 8.24566 2.61029 8.65483 2.61029H16.3458C16.755 2.61029 17.0874 2.94265 17.0874 3.35069V12.3804H14.3469V11.5539C14.3469 10.9404 13.5206 10.4445 12.5007 10.4445C11.4808 10.4445 10.6554 10.9404 10.6554 11.5539C10.6554 11.8879 10.6554 12.1777 10.6554 12.3804H7.91313V3.35069H7.91238ZM20.0505 40.2772C20.0505 40.7584 19.6606 41.1474 19.178 41.1474H5.15876C4.67629 41.1474 4.28622 40.7585 4.28622 40.2772V27.319C4.28622 26.8379 4.67618 26.4489 5.15876 26.4489H19.178C19.6605 26.4489 20.0505 26.8378 20.0505 27.319V40.2772ZM20.0505 19.2663V21.3241C20.0505 21.8052 19.6606 22.1942 19.178 22.1942H5.15876C4.67629 22.1942 4.28622 21.8053 4.28622 21.3241V19.2663C4.28622 18.7852 4.67618 18.3962 5.15876 18.3962H19.178C19.6606 18.3962 20.0505 18.7852 20.0505 19.2663Z" fill="#034265"/>
</g>
<defs>
<clipPath id="clip0_43_96">
<rect width="52" height="49" fill="white"/>
</clipPath>
</defs>
</svg>
