<svg width="20" height="20" viewBox="0 0 20 20" fill="none" xmlns="http://www.w3.org/2000/svg">
<g id="hotel 1" clip-path="url(#clip0_1_1967)">
<g id="Group">
<path id="Vector" d="M8.82812 15.2344H11.1719V20H8.82812V15.2344Z" fill="#03A9F4"/>
<path id="Vector_2" d="M4.72754 20H7.65633V14.0625H12.3438V20H15.2865V0H4.72754V20ZM12.9298 2.34375H14.1016V3.51562H12.9298V2.34375ZM12.9298 4.6875H14.1016V5.85938H12.9298V4.6875ZM12.9298 7.03125H14.1016V8.20312H12.9298V7.03125ZM12.9298 9.375H14.1016V10.5469H12.9298V9.375ZM12.9298 11.7188H14.1016V12.8906H12.9298V11.7188ZM10.586 2.34375H11.7579V3.51562H10.586V2.34375ZM10.586 4.6875H11.7579V5.85938H10.586V4.6875ZM10.586 7.03125H11.7579V8.20312H10.586V7.03125ZM10.586 9.375H11.7579V10.5469H10.586V9.375ZM10.586 11.7188H11.7579V12.8906H10.586V11.7188ZM8.24227 2.34375H9.41414V3.51562H8.24227V2.34375ZM8.24227 4.6875H9.41414V5.85938H8.24227V4.6875ZM8.24227 7.03125H9.41414V8.20312H8.24227V7.03125ZM8.24227 9.375H9.41414V10.5469H8.24227V9.375ZM8.24227 11.7188H9.41414V12.8906H8.24227V11.7188ZM5.89852 2.34375H7.07039V3.51562H5.89852V2.34375ZM5.89852 4.6875H7.07039V5.85938H5.89852V4.6875ZM5.89852 7.03125H7.07039V8.20312H5.89852V7.03125ZM5.89852 9.375H7.07039V10.5469H5.89852V9.375ZM5.89852 11.7188H7.07039V12.8906H5.89852V11.7188Z" fill="#03A9F4"/>
<path id="Vector_3" d="M16.4312 4.6875H20V20H16.4312V4.6875Z" fill="#03A9F4"/>
<path id="Vector_4" d="M0 4.6875H3.55453V20H0V4.6875Z" fill="#03A9F4"/>
</g>
</g>
<defs>
<clipPath id="clip0_1_1967">
<rect width="20" height="20" fill="white"/>
</clipPath>
</defs>
</svg>
