<svg width="10" height="11" viewBox="0 0 10 11" fill="none" xmlns="http://www.w3.org/2000/svg">
<path d="M4.99992 9.66543C7.30111 9.66543 9.16659 7.79995 9.16659 5.49876C9.16659 3.19757 7.30111 1.33209 4.99992 1.33209C2.69873 1.33209 0.833252 3.19757 0.833252 5.49876C0.833252 7.79995 2.69873 9.66543 4.99992 9.66543Z" fill="#D9D9D9"/>
<path d="M4.99984 4.09458C5.28749 4.09458 5.52067 3.8614 5.52067 3.57375C5.52067 3.2861 5.28749 3.05292 4.99984 3.05292C4.71219 3.05292 4.479 3.2861 4.479 3.57375C4.479 3.8614 4.71219 4.09458 4.99984 4.09458Z" fill="white"/>
<path d="M4.99984 7.94875C4.88933 7.94875 4.78335 7.90485 4.70521 7.82671C4.62707 7.74857 4.58317 7.64259 4.58317 7.53208V5.44875C4.47266 5.44875 4.36668 5.40485 4.28854 5.32671C4.2104 5.24857 4.1665 5.14259 4.1665 5.03208C4.1665 4.92158 4.2104 4.8156 4.28854 4.73746C4.36668 4.65932 4.47266 4.61542 4.58317 4.61542H4.99984C5.11034 4.61542 5.21632 4.65932 5.29446 4.73746C5.37261 4.8156 5.4165 4.92158 5.4165 5.03208V7.53208C5.4165 7.64259 5.37261 7.74857 5.29446 7.82671C5.21632 7.90485 5.11034 7.94875 4.99984 7.94875Z" fill="white"/>
<path d="M5.4165 7.94875H4.58317C4.47266 7.94875 4.36668 7.90485 4.28854 7.82671C4.2104 7.74857 4.1665 7.64259 4.1665 7.53208C4.1665 7.42158 4.2104 7.3156 4.28854 7.23746C4.36668 7.15932 4.47266 7.11542 4.58317 7.11542H5.4165C5.52701 7.11542 5.63299 7.15932 5.71113 7.23746C5.78927 7.3156 5.83317 7.42158 5.83317 7.53208C5.83317 7.64259 5.78927 7.74857 5.71113 7.82671C5.63299 7.90485 5.52701 7.94875 5.4165 7.94875Z" fill="white"/>
</svg>
