<svg width="30" height="30" viewBox="0 0 30 30" fill="none" xmlns="http://www.w3.org/2000/svg">
<rect width="30" height="30" rx="5" fill="#82A5B8"/>
<g clip-path="url(#clip0_101_9)">
<path d="M21.9705 8.02973C20.5975 6.65676 18.3716 6.65676 16.9987 8.0297L14.0604 10.968C12.6402 12.3882 12.7717 14.6511 14.0604 15.9399C14.2762 16.1557 14.5149 16.3316 14.7671 16.4761L15.3033 15.9399C15.6551 15.5881 15.5313 15.1768 15.5249 14.8801C15.4477 14.8253 15.3727 14.7662 15.3033 14.6969C14.642 14.0356 14.6123 12.902 15.3033 12.211C15.406 12.1083 18.1793 9.33499 18.2416 9.27271C18.9271 8.58719 20.042 8.58719 20.7275 9.27271C21.413 9.95823 21.413 11.0731 20.7275 11.7586L18.7853 13.7008C18.8415 14.0116 19.1786 14.7477 19.0052 15.962C19.0136 15.9537 19.0238 15.9483 19.0322 15.9399L21.9705 13.0016C23.3434 11.6286 23.3434 9.4027 21.9705 8.02973Z" fill="white"/>
<path d="M17.1675 12.8325C16.9517 12.6167 16.7129 12.4407 16.4609 12.2962L15.9246 12.8325C15.5728 13.1842 15.6966 13.5954 15.7029 13.8922C15.7802 13.9469 15.8553 14.0061 15.9246 14.0754C16.5859 14.7367 16.6156 15.8702 15.9246 16.5613C15.8217 16.6642 12.8187 19.6672 12.7586 19.7273C12.0731 20.4128 10.9582 20.4128 10.2727 19.7273C9.58714 19.0418 9.58714 17.9269 10.2727 17.2414L12.4426 15.0714C12.3864 14.7607 12.0493 14.0246 12.2227 12.8103C12.2143 12.8186 12.2041 12.824 12.1956 12.8324L9.02968 15.9984C7.65677 17.3714 7.65677 19.5973 9.02968 20.9703C10.4027 22.3432 12.6285 22.3432 14.0015 20.9703L17.1675 17.8043C18.5613 16.4105 18.4852 14.1501 17.1675 12.8325Z" fill="white"/>
</g>
<defs>
<clipPath id="clip0_101_9">
<rect width="15" height="15" fill="white" transform="translate(8 7)"/>
</clipPath>
</defs>
</svg>
