<svg width="28" height="26" viewBox="0 0 28 26" fill="none" xmlns="http://www.w3.org/2000/svg">
<path d="M25.5026 4.61955H19.2327L18.922 2.48619C18.7861 1.55322 17.9726 0.849609 17.0298 0.849609H10.9703C10.0274 0.849609 9.21391 1.55322 9.07802 2.4863L8.76734 4.61955H2.49741C1.12033 4.61955 0 5.73988 0 7.11691V22.6548C0 24.0319 1.12033 25.1522 2.49741 25.1522H25.5026C26.8797 25.1522 28 24.0319 28 22.6548V7.11691C28 5.73988 26.8797 4.61955 25.5026 4.61955ZM10.7079 2.72364C10.7267 2.59425 10.8396 2.49669 10.9703 2.49669H17.0299C17.1606 2.49669 17.2734 2.5943 17.2922 2.72364L17.5684 4.61955H10.4318L10.7079 2.72364ZM26.353 22.6549C26.353 23.1237 25.9715 23.5052 25.5026 23.5052H2.49741C2.02852 23.5052 1.64702 23.1238 1.64702 22.6548V14.8047C2.37174 15.3709 3.28234 15.7096 4.2712 15.7096H10.7057V16.5148C10.7057 16.819 10.8734 17.0984 11.1417 17.2414L13.6124 18.5591C13.7336 18.6237 13.8667 18.656 14 18.656C14.1332 18.656 14.2664 18.6237 14.3876 18.5591L16.8583 17.2414C17.1266 17.0983 17.2943 16.819 17.2943 16.5148V15.7096H23.7288C24.7176 15.7096 25.6283 15.3709 26.353 14.8048V22.6549ZM12.3528 16.0207V13.6417H15.6472V16.0207L14 16.8992L12.3528 16.0207ZM26.353 11.4384C26.353 12.8853 25.1758 14.0625 23.7288 14.0625H17.2943V12.8181C17.2943 12.3633 16.9256 11.9945 16.4707 11.9945H11.5293C11.0745 11.9945 10.7057 12.3632 10.7057 12.8181V14.0625H4.2712C2.82423 14.0626 1.64702 12.8854 1.64702 11.4384V7.11691C1.64702 6.70664 1.93911 6.36331 2.32619 6.28391C2.38148 6.27253 2.43873 6.26663 2.49736 6.26663H25.5026C25.5612 6.26663 25.6184 6.27259 25.6737 6.28391C26.0608 6.36337 26.3529 6.7067 26.3529 7.11691V11.4384H26.353Z" fill="#E63E24"/>
</svg>
