<svg width="14" height="18" viewBox="0 0 14 18" fill="none" xmlns="http://www.w3.org/2000/svg">
<path d="M7.13833 8.8357C7.51835 8.8357 7.8431 8.6943 8.11256 8.41149C8.38203 8.1287 8.51676 7.78874 8.51676 7.39162C8.51676 6.9945 8.38144 6.65515 8.11081 6.37357C7.84019 6.09199 7.51486 5.9512 7.13482 5.9512C6.75479 5.9512 6.43005 6.0926 6.16058 6.3754C5.89112 6.6582 5.75639 6.99816 5.75639 7.39528C5.75639 7.7924 5.8917 8.13175 6.16234 8.41333C6.43296 8.69491 6.75829 8.8357 7.13833 8.8357ZM7.13657 15.6555C8.88481 13.9935 10.1763 12.486 11.011 11.133C11.8456 9.78004 12.263 8.58846 12.263 7.55828C12.263 5.94034 11.7681 4.61557 10.7785 3.58394C9.78878 2.55232 8.57482 2.03651 7.13657 2.03651C5.69833 2.03651 4.48437 2.55232 3.49469 3.58394C2.50501 4.61557 2.01017 5.94034 2.01017 7.55828C2.01017 8.58846 2.43737 9.78004 3.29177 11.133C4.14617 12.486 5.42777 13.9935 7.13657 15.6555ZM7.13657 17.2832C5.02029 15.4014 3.43964 13.6535 2.39465 12.0396C1.34965 10.4256 0.827148 8.93185 0.827148 7.55828C0.827148 5.49792 1.46138 3.8565 2.72983 2.63401C3.99829 1.41153 5.4672 0.800293 7.13657 0.800293C8.80594 0.800293 10.2749 1.41153 11.5433 2.63401C12.8118 3.8565 13.446 5.49792 13.446 7.55828C13.446 8.93185 12.9235 10.4256 11.8785 12.0396C10.8335 13.6535 9.25286 15.4014 7.13657 17.2832Z" fill="#E63E24"/>
</svg>
