<svg width="14" height="13" viewBox="0 0 14 13" fill="none" xmlns="http://www.w3.org/2000/svg">
<g clip-path="url(#clip0_39_40)">
<path d="M9.65616 0.615194C9.51725 0.840283 9.43651 1.07328 9.38969 1.27741C9.2691 1.80446 9.50049 2.35317 9.97887 2.65848C10.2266 2.81652 10.5112 2.94739 10.7709 3.04927C11.1944 3.21546 11.679 2.99959 11.8088 2.59036L12.119 1.61289C12.3235 0.968393 11.9458 0.288574 11.2617 0.069591C10.6549 -0.124728 9.975 0.0980864 9.65616 0.615194Z" fill="#00B67A"/>
<path d="M12.2977 12.2384L10.282 7.69721L10.8539 4.77727C10.9025 4.52919 10.8658 4.27226 10.7426 4.04753C10.5301 3.65984 10.072 3.14657 9.1271 3.10562C9.1271 3.10562 9.03243 3.09257 8.89597 3.11292C8.62485 3.15327 8.38843 3.30629 8.24127 3.52132L5.99753 6.80188C5.89757 6.94807 5.89461 7.12622 5.9738 7.27074L5.05843 8.48323L3.5433 7.49367C3.20357 7.27169 2.73434 7.34748 2.49521 7.66285L1.06818 9.54582C0.591208 10.175 0.75411 11.044 1.43203 11.4866L1.78801 11.7191C1.74945 11.8196 1.72752 11.9273 1.72752 12.04C1.72752 12.5702 2.19043 13 2.76168 13C3.33281 13 3.79584 12.5702 3.79584 12.04C3.79584 11.8229 3.7173 11.6233 3.58638 11.4626L6.57033 7.51043C6.67713 7.4817 6.77464 7.42076 6.84403 7.33036L8.67761 4.93807L8.17974 6.96782C8.11396 7.23614 8.1604 7.51762 8.30976 7.75528L11.5051 12.8413C11.5668 12.9395 11.6801 13 11.8027 13H12.8735C13.0031 13 13.0874 12.8744 13.0312 12.7659C12.9312 12.5734 12.7222 12.3196 12.2977 12.2384ZM3.28457 12.04C3.28457 12.3081 3.05047 12.5254 2.76168 12.5254C2.4729 12.5254 2.2388 12.3081 2.2388 12.04C2.2388 12.0314 2.2397 12.023 2.24022 12.0145C2.25415 11.7655 2.4698 11.5666 2.7386 11.5557C2.74633 11.5553 2.75394 11.5546 2.76168 11.5546C2.93039 11.5546 3.08001 11.6291 3.17558 11.7443C3.2126 11.7888 3.24188 11.8393 3.26045 11.8943C3.27606 11.9403 3.28457 11.9892 3.28457 12.04Z" fill="#00B67A"/>
<path d="M8.41408 8.69219C8.32998 8.5697 8.12839 8.60047 8.09214 8.74175C7.77872 9.96394 6.86774 11.1903 6.34305 11.7226C6.18788 11.8802 6.17421 12.1176 6.30745 12.2917L6.75423 12.8754C6.81408 12.9536 6.91094 13 7.01426 13H7.39449C7.46891 13 7.52566 12.9397 7.51805 12.8708C7.47859 12.5119 7.29131 12.2132 7.29131 12.2132C8.25569 11.2758 8.77496 10.3589 8.99526 9.9048C9.0604 9.77082 9.04853 9.61577 8.9634 9.49185L8.41408 8.69219Z" fill="#00B67A"/>
<path d="M11.2706 5.6884C11.2018 5.62518 11.0847 5.65847 11.0657 5.74671L10.894 6.54685C10.8809 6.60851 10.9038 6.67197 10.9544 6.71364L12.4489 7.94696C12.6449 8.10859 12.9476 8.08165 13.1068 7.88841C13.2447 7.72103 13.2271 7.48457 13.0658 7.33634L11.2706 5.6884Z" fill="#00B67A"/>
</g>
<defs>
<clipPath id="clip0_39_40">
<rect width="14" height="13" fill="white"/>
</clipPath>
</defs>
</svg>
