<svg width="21" height="21" viewBox="0 0 21 21" fill="none" xmlns="http://www.w3.org/2000/svg">
<path d="M19.509 4.94933C20.2983 4.1601 20.8062 3.16043 20.9782 2.05708C21.0665 1.48834 20.8841 0.929224 20.4768 0.522357C20.0699 0.11549 19.5099 -0.0665061 18.9429 0.0218671C17.8399 0.193801 16.8398 0.701291 16.0505 1.49052L13.6097 3.93129L12.1484 3.61323C12.3978 3.2348 12.3562 2.71944 12.0237 2.38651C11.6431 2.00676 11.0249 2.00633 10.6443 2.38651L9.9062 3.12455L8.17455 2.74744L8.2953 2.62669C8.6755 2.24651 8.67506 1.62746 8.2953 1.24772C7.92824 0.87935 7.28554 0.878912 6.91629 1.24772L5.91002 2.25395L2.32597 1.47346C2.04422 1.41178 1.75328 1.49752 1.54809 1.70183L0.82664 2.42326C0.6372 2.61269 0.549699 2.87387 0.587324 3.13943C0.62495 3.40499 0.78114 3.63161 1.01608 3.76154L9.43326 8.41119L5.17239 13.0731L0.845015 13.3032L0.174756 13.973C0.0312541 14.117 -0.0291219 14.3221 0.0133161 14.5212C0.0561917 14.7203 0.194881 14.8821 0.384759 14.9543L4.48113 16.5188L6.04609 20.6154C6.11871 20.8053 6.28059 20.9444 6.47966 20.9869C6.52166 20.9956 6.56409 21 6.60566 21C6.76228 21 6.91366 20.9383 7.02785 20.8246L7.69723 20.1552L7.92736 15.8275L12.5894 11.5668L17.2362 19.9806C17.3657 20.2156 17.5923 20.3718 17.8579 20.4094C18.1234 20.4461 18.3846 20.3595 18.5741 20.1701L19.296 19.4487C19.5003 19.2443 19.5856 18.9539 19.5243 18.6712L18.7451 15.0908L19.7527 14.0837C19.9369 13.8995 20.0384 13.6545 20.0384 13.3938C20.0384 13.133 19.9369 12.888 19.7527 12.7039C19.3721 12.3241 18.7539 12.3237 18.3733 12.7039L18.2521 12.825L17.8754 11.0935L18.6139 10.355C18.7981 10.1708 18.8996 9.92579 18.8996 9.66504C18.8996 9.4043 18.7981 9.1593 18.6143 8.97556C18.2928 8.654 17.7621 8.61331 17.3876 8.85262L17.0691 7.38922L19.5099 4.94845L19.509 4.94933Z" fill="#034265"/>
</svg>
