<svg width="17" height="17" viewBox="0 0 17 17" fill="none" xmlns="http://www.w3.org/2000/svg">
<g clip-path="url(#clip0_363_287)">
<path d="M15.5059 7.00586H9.99414V1.49414C9.99414 0.668943 9.3252 0 8.5 0C7.6748 0 7.00586 0.668943 7.00586 1.49414V7.00586H1.49414C0.668943 7.00586 0 7.6748 0 8.5C0 9.3252 0.668943 9.99414 1.49414 9.99414H7.00586V15.5059C7.00586 16.3311 7.6748 17 8.5 17C9.3252 17 9.99414 16.3311 9.99414 15.5059V9.99414H15.5059C16.3311 9.99414 17 9.3252 17 8.5C17 7.6748 16.3311 7.00586 15.5059 7.00586Z" fill="#24A9E1"/>
</g>
<defs>
<clipPath id="clip0_363_287">
<rect width="17" height="17" fill="white"/>
</clipPath>
</defs>
</svg>
