<svg width="18" height="19" viewBox="0 0 18 19" fill="none" xmlns="http://www.w3.org/2000/svg">
<g clip-path="url(#clip0_363_290)">
<path d="M16.4999 0.000244141H10.2655C9.85303 0.000244141 9.2766 0.252447 8.9852 0.559803L0.437725 9.58209C-0.145908 10.1975 -0.145908 11.2064 0.437725 11.821L6.80201 18.5386C7.38433 19.154 8.33921 19.154 8.9224 18.5379L17.4699 9.51701C17.761 9.2097 18 8.60028 18 8.16587V1.58364C18 0.712971 17.3247 0.000244141 16.4999 0.000244141ZM13.4998 6.33361C12.6713 6.33361 11.9997 5.62394 11.9997 4.75021C11.9997 3.87504 12.6713 3.16681 13.4998 3.16681C14.3282 3.16681 15 3.87504 15 4.75021C15.0001 5.62394 14.3282 6.33361 13.4998 6.33361Z" fill="#00B67A"/>
</g>
<defs>
<clipPath id="clip0_363_290">
<rect width="18" height="19" fill="white"/>
</clipPath>
</defs>
</svg>
