<svg width="19" height="13" viewBox="0 0 19 13" fill="none" xmlns="http://www.w3.org/2000/svg">
<rect width="19" height="13" fill="#F5F5F5"/>
<g id="dashboard  / traveller/ my trip" clip-path="url(#clip0_0_1)">
<rect width="1440" height="1351" transform="translate(-1158 -657)" fill="white"/>
<g id="body">
<path id="Rectangle 58" d="M-1158 -578H282V572H-1158V-578Z" fill="#EFFCFF"/>
<g id="right">
<g id="Group 200">
<rect id="Rectangle 189" x="-739" y="-487" width="925" height="871" rx="5" fill="white"/>
</g>
</g>
</g>
<g id="Group 362">
<rect id="Rectangle 295" x="-713.5" y="-93.5" width="865" height="138" rx="4.5" stroke="#C4D0D8" stroke-opacity="0.5"/>
<g id="Group">
<path id="path27038" fill-rule="evenodd" clip-rule="evenodd" d="M13.067 4.41589C11.3004 4.4159 9.85742 5.85986 9.85742 7.62756C9.85742 9.39527 11.3004 10.8397 13.067 10.8397C14.8335 10.8397 16.277 9.39528 16.277 7.62756C16.277 5.85985 14.8335 4.41588 13.067 4.41589ZM13.067 5.46267C14.2682 5.46267 15.2309 6.42557 15.2309 7.62756C15.2309 8.82955 14.2682 9.79291 13.067 9.7929C11.8658 9.7929 10.9035 8.82955 10.9035 7.62756C10.9035 6.42558 11.8658 5.46268 13.067 5.46267Z" fill="#24A9E1"/>
<path id="path27040" fill-rule="evenodd" clip-rule="evenodd" d="M13.7763 6.37902C13.6404 6.3831 13.5115 6.43997 13.4167 6.53758L11.977 7.97781C11.8791 8.07604 11.8241 8.20917 11.8242 8.34793C11.8243 8.48669 11.8795 8.61974 11.9776 8.71783C12.0756 8.81592 12.2086 8.87103 12.3473 8.87104C12.486 8.87106 12.619 8.81598 12.7171 8.71791L14.1564 7.27768C14.232 7.20417 14.2837 7.10951 14.3046 7.00611C14.3255 6.90271 14.3147 6.7954 14.2736 6.69824C14.2325 6.60108 14.1631 6.51861 14.0743 6.46165C13.9856 6.40468 13.8817 6.37588 13.7763 6.37902Z" fill="#24A9E1"/>
<path id="path27042" fill-rule="evenodd" clip-rule="evenodd" d="M12.3413 6.37903C12.2372 6.37906 12.1356 6.41015 12.0492 6.46832C11.9629 6.52649 11.8959 6.6091 11.8568 6.70558C11.8176 6.80207 11.8081 6.90804 11.8295 7.00996C11.8509 7.11187 11.9021 7.20509 11.9767 7.2777L13.4164 8.71792C13.4647 8.76812 13.5224 8.80819 13.5863 8.83578C13.6501 8.86338 13.7188 8.87795 13.7884 8.87865C13.858 8.87934 13.927 8.86614 13.9914 8.83982C14.0558 8.8135 14.1143 8.77459 14.1635 8.72536C14.2127 8.67614 14.2516 8.61759 14.2779 8.55314C14.3042 8.48869 14.3174 8.41964 14.3167 8.35003C14.316 8.28042 14.3014 8.21165 14.2739 8.14773C14.2463 8.08382 14.2062 8.02606 14.1561 7.97782L12.7168 6.53759C12.668 6.48736 12.6096 6.44745 12.5451 6.42021C12.4806 6.39297 12.4113 6.37897 12.3413 6.37903Z" fill="#24A9E1"/>
<path id="path27044" fill-rule="evenodd" clip-rule="evenodd" d="M0.523043 0.501343C0.384328 0.501357 0.251298 0.556504 0.153211 0.654655C0.0551244 0.752807 1.37847e-05 0.885925 0 1.02473V9.74062C1.39022e-05 9.87943 0.0551246 10.0125 0.153211 10.1107C0.251298 10.2088 0.384328 10.264 0.523043 10.264H3.69626V9.21723H1.04609V1.54812H14.0931V3.26958H15.1392V1.02473C15.1392 0.885925 15.0841 0.752807 14.986 0.654655C14.8879 0.556504 14.7549 0.501357 14.6162 0.501343H0.523043Z" fill="#24A9E1"/>
<path id="rect27046" fill-rule="evenodd" clip-rule="evenodd" d="M3.69687 2.74622C3.55816 2.74623 3.42513 2.80138 3.32704 2.89953C3.22895 2.99768 3.17384 3.1308 3.17383 3.26961V11.9859C3.17384 12.1248 3.22895 12.2579 3.32704 12.356C3.42513 12.4542 3.55816 12.5093 3.69687 12.5093H17.79C17.9287 12.5093 18.0617 12.4542 18.1598 12.356C18.2579 12.2579 18.313 12.1248 18.313 11.9859V3.26961C18.313 3.1308 18.2579 2.99768 18.1598 2.89953C18.0617 2.80138 17.9287 2.74623 17.79 2.74622H3.69687ZM4.21991 3.793H17.2669V11.4626H4.21991V3.793Z" fill="#24A9E1"/>
<path id="path27048" fill-rule="evenodd" clip-rule="evenodd" d="M6.38018 6.28314C6.24153 6.28531 6.10942 6.34247 6.01287 6.44206C5.91633 6.54165 5.86324 6.67552 5.86529 6.81426V8.44122C5.86431 8.51057 5.87712 8.57943 5.90296 8.64379C5.92881 8.70815 5.96718 8.76673 6.01585 8.81612C6.06451 8.86551 6.1225 8.90473 6.18645 8.9315C6.25039 8.95827 6.31902 8.97205 6.38834 8.97205C6.45765 8.97205 6.52628 8.95827 6.59022 8.9315C6.65417 8.90473 6.71216 8.86551 6.76082 8.81612C6.80949 8.76673 6.84786 8.70815 6.87371 8.64379C6.89955 8.57943 6.91236 8.51057 6.91138 8.44122V6.81426C6.91241 6.74419 6.89938 6.67462 6.87304 6.60969C6.84671 6.54475 6.80761 6.48577 6.75807 6.43624C6.70853 6.38671 6.64955 6.34763 6.58464 6.32134C6.51973 6.29504 6.4502 6.28205 6.38018 6.28314Z" fill="#24A9E1"/>
<path id="path27050" fill-rule="evenodd" clip-rule="evenodd" d="M6.38017 2.97064C6.24161 2.97281 6.10956 3.0299 6.01303 3.1294C5.9165 3.22889 5.86336 3.36265 5.86529 3.5013V4.89701C5.86431 4.96636 5.87711 5.03522 5.90296 5.09958C5.9288 5.16394 5.96718 5.22252 6.01584 5.27191C6.06451 5.3213 6.1225 5.36052 6.18644 5.38729C6.25039 5.41406 6.31901 5.42785 6.38833 5.42785C6.45765 5.42785 6.52627 5.41406 6.59022 5.38729C6.65416 5.36052 6.71215 5.3213 6.76082 5.27191C6.80948 5.22252 6.84785 5.16394 6.8737 5.09958C6.89955 5.03522 6.91235 4.96636 6.91137 4.89701V3.5013C6.91235 3.43127 6.89927 3.36176 6.8729 3.29687C6.84654 3.23199 6.80743 3.17306 6.7579 3.12358C6.70837 3.0741 6.64941 3.03507 6.58453 3.0088C6.51965 2.98253 6.45016 2.96955 6.38017 2.97064Z" fill="#24A9E1"/>
<path id="path27052" fill-rule="evenodd" clip-rule="evenodd" d="M6.38017 9.82794C6.24161 9.83011 6.10956 9.8872 6.01303 9.9867C5.9165 10.0862 5.86336 10.2199 5.86529 10.3586V11.812C5.86431 11.8814 5.87711 11.9502 5.90296 12.0146C5.9288 12.0789 5.96718 12.1375 6.01584 12.1869C6.06451 12.2363 6.1225 12.2755 6.18644 12.3023C6.25039 12.3291 6.31901 12.3428 6.38833 12.3428C6.45765 12.3428 6.52627 12.3291 6.59022 12.3023C6.65416 12.2755 6.71215 12.2363 6.76082 12.1869C6.80948 12.1375 6.84785 12.0789 6.8737 12.0146C6.89955 11.9502 6.91235 11.8814 6.91137 11.812V10.3586C6.91235 10.2886 6.89927 10.2191 6.8729 10.1542C6.84654 10.0893 6.80743 10.0304 6.7579 9.98088C6.70837 9.9314 6.64941 9.89237 6.58453 9.8661C6.51965 9.83983 6.45016 9.82685 6.38017 9.82794Z" fill="#24A9E1"/>
</g>
</g>
</g>
<defs>
<clipPath id="clip0_0_1">
<rect width="1440" height="1351" fill="white" transform="translate(-1158 -657)"/>
</clipPath>
</defs>
</svg>
