<svg width="63" height="63" viewBox="0 0 63 63" fill="none" xmlns="http://www.w3.org/2000/svg">
<g id="refund 1" clip-path="url(#clip0_1_1928)">
<path id="Vector" d="M32.512 59.1598C31.9931 59.1598 31.4741 59.1598 30.8513 59.1598L30.9552 57.084H32.4081C47.6653 57.084 60.0161 44.7332 60.0161 29.5799C60.0161 14.4266 47.6653 2.07578 32.512 2.07578C17.3587 2.07578 5.00791 14.4266 5.00791 29.5799C5.00791 30.41 5.00791 31.2406 5.1118 32.0707L3.03602 32.2785C2.93213 31.3445 2.93213 30.5139 2.93213 29.5799C2.93213 13.2848 16.2169 0 32.512 0C48.8066 0 62.0919 13.2848 62.0919 29.5799C62.0919 45.875 48.8066 59.1598 32.512 59.1598Z" fill="#DF1D25"/>
<path id="Vector_2" d="M15.3867 13.4926H50.675V30.0988H15.3867V13.4926Z" fill="#5DA364"/>
<path id="Vector_3" d="M36.1448 21.7957C36.1448 23.5152 34.7507 24.9094 33.0312 24.9094C31.3116 24.9094 29.9175 23.5152 29.9175 21.7957C29.9175 20.0762 31.3116 18.682 33.0312 18.682C34.7507 18.682 36.1448 20.0762 36.1448 21.7957Z" fill="#EDC17C"/>
<g id="Group">
<path id="Vector_4" d="M20.5763 20.7578H18.5005V16.6062H22.6521V18.682H20.5763V20.7578Z" fill="#538457"/>
<path id="Vector_5" d="M22.6521 26.9851H18.5005V22.8335H20.5763V24.9093H22.6521V26.9851Z" fill="#538457"/>
<path id="Vector_6" d="M47.5612 26.9851H43.4097V24.9093H45.4855V22.8335H47.5612V26.9851Z" fill="#538457"/>
<path id="Vector_7" d="M47.5612 20.7578H45.4855V18.682H43.4097V16.6062H47.5612V20.7578Z" fill="#538457"/>
</g>
<path id="Vector_8" d="M23.6899 20.7578H26.8036V22.8336H23.6899V20.7578Z" fill="#EDC17C"/>
<path id="Vector_9" d="M39.2583 20.7578H42.372V22.8336H39.2583V20.7578Z" fill="#EDC17C"/>
<path id="Vector_10" d="M0.856445 35.2883H11.2354V50.8567H0.856445V35.2883Z" fill="#4A4A56"/>
<path id="Vector_11" d="M6.0459 35.2883H8.12168V42.5536H6.0459V35.2883Z" fill="#676B7F"/>
<path id="Vector_12" d="M6.0459 44.6293H8.12168V47.7429H6.0459V44.6293Z" fill="#676B7F"/>
<path id="Vector_13" d="M34.2763 63.0002L29.5024 58.2258L34.3802 53.2437L35.8332 54.8005L32.4083 58.2258L35.8332 61.5468L34.2763 63.0002Z" fill="#DF1D25"/>
<path id="Vector_14" d="M47.0426 39.8549L34.484 43.4876C34.1728 43.5915 33.8612 43.5915 33.55 43.5915L21.6143 41.5157H28.8795C30.6436 41.5157 31.9932 40.1666 31.9932 38.402C31.9932 36.6374 30.6436 35.2883 28.8795 35.2883H15.9059C15.5942 35.2883 15.1791 35.3922 14.868 35.5995L11.2354 37.6753V47.8469L22.9633 52.7247C23.3784 52.9325 23.8973 52.9325 24.4163 52.8286L48.7033 45.2522C50.1563 44.8371 50.9864 43.1764 50.5713 41.7235C50.0524 40.1666 48.5994 39.336 47.0426 39.8549Z" fill="#EFCCBF"/>
</g>
<defs>
<clipPath id="clip0_1_1928">
<rect width="63" height="63" fill="white"/>
</clipPath>
</defs>
</svg>
