<svg width="25" height="25" viewBox="0 0 25 25" fill="none" xmlns="http://www.w3.org/2000/svg">
<path d="M23.2364 25L16.9911 18.4945C16.2141 19.196 15.3081 19.7423 14.2732 20.1336C13.2382 20.5248 12.1369 20.7204 10.9693 20.7204C8.16783 20.7204 5.79689 19.7086 3.85645 17.6851C1.91602 15.6617 0.945801 13.22 0.945801 10.3602C0.945801 7.50034 1.91707 5.05868 3.8596 3.03521C5.80213 1.01174 8.1526 0 10.911 0C13.6694 0 16.0134 1.01174 17.943 3.03521C19.8726 5.05868 20.8373 7.50236 20.8373 10.3662C20.8373 11.5223 20.656 12.64 20.2934 13.7191C19.9308 14.7983 19.3869 15.8101 18.6617 16.7544L24.9458 23.2193L23.2364 25ZM10.9304 18.2922C13.0348 18.2922 14.8236 17.5165 16.2967 15.9652C17.7698 14.4139 18.5063 12.5455 18.5063 10.3602C18.5063 8.17483 17.7698 6.30649 16.2967 4.75516C14.8236 3.20383 13.0348 2.42817 10.9304 2.42817C8.80444 2.42817 6.99734 3.20383 5.50912 4.75516C4.02093 6.30649 3.27684 8.17483 3.27684 10.3602C3.27684 12.5455 4.02093 14.4139 5.50912 15.9652C6.99734 17.5165 8.80444 18.2922 10.9304 18.2922Z" fill="white"/>
</svg>
