<svg width="25" height="24" viewBox="0 0 25 24" fill="none" xmlns="http://www.w3.org/2000/svg">
<path d="M20.4 20.975L13.825 14.4C13.325 14.8333 12.742 15.1708 12.076 15.4125C11.41 15.6541 10.7014 15.775 9.95 15.775C8.1473 15.775 6.62163 15.15 5.37298 13.9C4.12433 12.65 3.5 11.1416 3.5 9.37498C3.5 7.60831 4.125 6.09998 5.375 4.84998C6.625 3.59998 8.1375 2.97498 9.9125 2.97498C11.6875 2.97498 13.1958 3.59998 14.4375 4.84998C15.6792 6.09998 16.3 7.60956 16.3 9.37873C16.3 10.0929 16.1833 10.7833 15.95 11.45C15.7167 12.1166 15.3667 12.7416 14.9 13.325L21.5 19.875L20.4 20.975ZM9.925 14.275C11.2792 14.275 12.4302 13.7958 13.3781 12.8375C14.326 11.8791 14.8 10.725 14.8 9.37498C14.8 8.02498 14.326 6.87081 13.3781 5.91248C12.4302 4.95414 11.2792 4.47498 9.925 4.47498C8.55695 4.47498 7.3941 4.95414 6.43645 5.91248C5.47882 6.87081 5 8.02498 5 9.37498C5 10.725 5.47882 11.8791 6.43645 12.8375C7.3941 13.7958 8.55695 14.275 9.925 14.275Z" fill="#FEBA31"/>
</svg>
