<svg width="30" height="30" viewBox="0 0 30 30" fill="none" xmlns="http://www.w3.org/2000/svg">
<path d="M27.5815 5.45567V13.8371C27.5815 21.4701 22.398 28.1258 14.9938 30C7.60208 28.132 2.41858 21.4701 2.41858 13.8371V5.45567C8.2392 4.8 11.5361 2.58557 15 0C18.4639 2.58557 21.7608 4.8 27.5815 5.45567Z" fill="#FFD15C"/>
<path d="M15 26.6906C9.42683 24.9216 5.59796 19.7504 5.59796 13.837V8.15866C9.51343 7.30505 12.3897 5.72773 15 3.92773C17.666 5.77722 20.4866 7.32361 24.4021 8.16485V13.8432C24.4021 19.7504 20.5732 24.9216 15 26.6906Z" fill="#F8B64C"/>
<path d="M12.9154 20.1278L9.81647 17.0289L11.3876 15.4515L12.9154 16.9732L18.6123 11.2825L20.1835 12.8536L12.9154 20.1278Z" fill="white"/>
</svg>
