<svg width="20" height="20" viewBox="0 0 20 20" fill="none" xmlns="http://www.w3.org/2000/svg">
<g id="ship 1" clip-path="url(#clip0_1_1990)">
<g id="Group">
<path id="Vector" d="M12.2945 0.444316C12.2293 0.183457 11.9949 0.000488281 11.7261 0.000488281H8.27422C8.00535 0.000488281 7.77098 0.183496 7.70578 0.444316L7.3252 1.96662H12.675L12.2945 0.444316Z" fill="#2CA7EC"/>
<path id="Vector_2" d="M10.0002 4.47698C10.2716 4.47698 10.5434 4.5412 10.7863 4.66257L15.1497 6.84429L14.3343 3.58226C14.2691 3.3214 14.0347 3.13843 13.7658 3.13843H6.23453C5.96566 3.13843 5.73129 3.32144 5.66609 3.58226L4.85059 6.84429L9.21406 4.66253C9.45688 4.5412 9.72871 4.47698 10.0002 4.47698Z" fill="#2CA7EC"/>
<path id="Vector_3" d="M19.8285 18.0588C19.5997 17.83 19.2287 17.83 18.9999 18.0588C18.4922 18.5664 17.9925 18.8254 17.5313 18.8285C17.0702 18.8254 16.5705 18.5664 16.0628 18.0588C14.5908 16.5761 12.9406 16.5761 11.4686 18.0588C10.9609 18.5664 10.4612 18.8254 10.0001 18.8285C9.53889 18.8254 9.0392 18.5664 8.53154 18.0588C7.05947 16.5761 5.40936 16.5761 3.93729 18.0588C3.42963 18.5664 2.92994 18.8254 2.46877 18.8285C2.0076 18.8254 1.50791 18.5664 1.00025 18.0588C0.771426 17.83 0.400449 17.83 0.171621 18.0588C-0.057207 18.2876 -0.057207 18.6586 0.171621 18.8874C1.64369 20.3701 3.29377 20.3701 4.76588 18.8874C5.27354 18.3798 5.77322 18.1209 6.2344 18.1177C6.69557 18.1209 7.19525 18.3798 7.70291 18.8874C9.17498 20.3701 10.8251 20.3701 12.2972 18.8874C12.8048 18.3798 13.3045 18.1209 13.7657 18.1177C14.2268 18.1209 14.7265 18.3798 15.2342 18.8874C16.7063 20.3701 18.3564 20.3701 19.8285 18.8874C20.0573 18.6586 20.0573 18.2876 19.8285 18.0588Z" fill="#2CA7EC"/>
<path id="Vector_4" d="M10.5859 17.2828C10.6037 17.2659 10.6216 17.2485 10.6399 17.2302C11.9854 15.8904 13.534 15.4203 15.1637 16.0459L18.0553 10.2625C18.2 9.97313 18.0827 9.62114 17.7933 9.47645L10.5859 5.87274V17.2828Z" fill="#2CA7EC"/>
<path id="Vector_5" d="M4.83645 16.0459C6.46637 15.4203 8.01442 15.8903 9.36028 17.2302C9.3786 17.2486 9.39649 17.2659 9.41418 17.2827V5.87274L2.20684 9.47645C1.91738 9.62114 1.80008 9.97313 1.94481 10.2625L4.83645 16.0459Z" fill="#2CA7EC"/>
</g>
</g>
<defs>
<clipPath id="clip0_1_1990">
<rect width="20" height="20" fill="white"/>
</clipPath>
</defs>
</svg>
