<svg width="21" height="14" viewBox="0 0 21 14" fill="none" xmlns="http://www.w3.org/2000/svg">
<g id="sun">
<path d="M10.093 12.4825C8.8741 12.4825 7.83512 13.6684 6.97603 12.8093C6.11694 11.9502 5.68739 10.9112 5.68739 9.69231C5.68739 8.47343 6.11694 7.43444 6.97603 6.57535C7.83512 5.71626 8.8741 5.28671 10.093 5.28671C11.3119 5.28671 12.3509 5.71626 13.2099 6.57535C14.069 7.43444 14.4986 8.47343 14.4986 9.69231C14.4986 10.9112 14.069 11.9502 13.2099 12.8093C12.3509 13.6684 11.3119 12.4825 10.093 12.4825ZM1.06152 10.3531C0.874278 10.3531 0.717329 10.2895 0.590668 10.1621C0.464007 10.0346 0.400677 9.87678 0.400677 9.68845C0.400677 9.50011 0.464007 9.34353 0.590668 9.21871C0.717329 9.09388 0.874278 9.03147 1.06152 9.03147H3.26431C3.45155 9.03147 3.6085 9.09517 3.73516 9.22256C3.86182 9.34997 3.92515 9.50784 3.92515 9.69616C3.92515 9.8845 3.86182 10.0411 3.73516 10.1659C3.6085 10.2907 3.45155 10.3531 3.26431 10.3531H1.06152ZM16.9217 10.3531C16.7344 10.3531 16.5775 10.2895 16.4508 10.1621C16.3241 10.0346 16.2608 9.87678 16.2608 9.68845C16.2608 9.50011 16.3241 9.34353 16.4508 9.21871C16.5775 9.09388 16.7344 9.03147 16.9217 9.03147H19.1245C19.3117 9.03147 19.4686 9.09517 19.5953 9.22256C19.722 9.34997 19.7853 9.50784 19.7853 9.69616C19.7853 9.8845 19.722 10.0411 19.5953 10.1659C19.4686 10.2907 19.3117 10.3531 19.1245 10.3531H16.9217ZM10.0891 3.52448C9.90079 3.52448 9.74421 3.46115 9.61938 3.33448C9.49456 3.20782 9.43215 3.05087 9.43215 2.86364V0.660839C9.43215 0.473601 9.49584 0.316652 9.62324 0.189991C9.75065 0.0633304 9.90851 0 10.0968 0C10.2852 0 10.4418 0.0633304 10.5666 0.189991C10.6914 0.316652 10.7538 0.473601 10.7538 0.660839V2.86364C10.7538 3.05087 10.6901 3.20782 10.5627 3.33448C10.4353 3.46115 10.2775 3.52448 10.0891 3.52448ZM4.80627 5.33077L3.55068 4.0972C3.41851 3.96504 3.35515 3.80641 3.3606 3.62133C3.36603 3.43624 3.42864 3.27837 3.54841 3.14773C3.67905 3.01708 3.83692 2.95175 4.02201 2.95175C4.20709 2.95175 4.36571 3.01783 4.49788 3.15L5.73145 4.40559C5.84893 4.53776 5.90767 4.69196 5.90767 4.86818C5.90767 5.04441 5.84893 5.19493 5.73145 5.31976C5.61396 5.44458 5.46344 5.50699 5.27987 5.50699C5.09631 5.50699 4.93844 5.44825 4.80627 5.33077ZM14.4545 5.33077C14.3224 5.1986 14.2563 5.04441 14.2563 4.86818C14.2563 4.69196 14.3224 4.53776 14.4545 4.40559L15.6881 3.15C15.8203 3.01783 15.9789 2.95447 16.164 2.95992C16.3491 2.96535 16.5069 3.02796 16.6376 3.14773C16.7682 3.27837 16.8335 3.43624 16.8335 3.62133C16.8335 3.80641 16.7675 3.96504 16.6353 4.0972L15.3797 5.33077C15.2622 5.44825 15.1127 5.50699 14.9311 5.50699C14.7496 5.50699 14.5907 5.44825 14.4545 5.33077Z" fill="#034265"/>
<path d="M0 13.9832H21V12.3678H0V13.9832Z" fill="#034265"/>
</g>
</svg>
