<svg width="21" height="19" viewBox="0 0 21 19" fill="none" xmlns="http://www.w3.org/2000/svg">
<path fill-rule="evenodd" clip-rule="evenodd" d="M0 9.78395V11.2157H3.81813V9.78395H0ZM2.57724 3.57949L5.27379 6.27605L6.27605 5.27379L3.57949 2.57724L2.57724 3.57949ZM5.96582 10.4999V11.2157H6.66218L6.66368 11.2209H13.8411L13.8425 11.2157H15.0339V10.4999C15.0339 9.24544 14.5924 8.17616 13.7095 7.29203C12.8265 6.40789 11.7575 5.96582 10.5024 5.96582C9.24727 5.96582 8.17739 6.40789 7.29277 7.29203C6.40814 8.17616 5.96582 9.24544 5.96582 10.4999ZM9.78395 0V3.81813H11.2157V0H9.78395ZM14.6998 5.29765L15.702 6.29991L18.4225 3.57949L17.4202 2.57724L14.6998 5.29765ZM20.9997 9.78395H17.1816V11.2157H20.9997V9.78395Z" fill="#034265"/>
<rect x="0.0222168" y="12.4448" width="20.9776" height="1.05285" fill="#034265"/>
<rect x="2.48315" y="14.7265" width="16.0549" height="1.05285" fill="#034265"/>
<rect x="4.40527" y="17.0082" width="12.2123" height="1.05285" fill="#034265"/>
</svg>
