<svg width="21" height="14" viewBox="0 0 21 14" fill="none" xmlns="http://www.w3.org/2000/svg">
<path d="M10.0878 12.7916C10.943 12.7916 11.6717 12.4919 12.2738 11.8925C12.8759 11.2932 13.1769 10.5654 13.1769 9.70915C13.1769 8.85292 12.8776 8.1234 12.2789 7.52058C11.6803 6.91776 10.9534 6.61634 10.0982 6.61634C9.24296 6.61634 8.51431 6.91603 7.91222 7.5154C7.31012 8.11475 7.00907 8.84255 7.00907 9.69879C7.00907 10.555 7.30839 11.2845 7.90704 11.8874C8.50567 12.4902 9.23259 12.7916 10.0878 12.7916ZM10.093 12.4975C8.8741 12.4975 7.83512 13.6848 6.97603 12.8247C6.11694 11.9646 5.68739 10.9243 5.68739 9.70397C5.68739 8.48362 6.11694 7.44339 6.97603 6.58326C7.83512 5.72314 8.8741 5.29308 10.093 5.29308C11.3119 5.29308 12.3509 5.72314 13.2099 6.58326C14.069 7.44339 14.4986 8.48362 14.4986 9.70397C14.4986 10.9243 14.069 11.9646 13.2099 12.8247C12.3509 13.6848 11.3119 12.4975 10.093 12.4975ZM1.06152 10.3656C0.874278 10.3656 0.717329 10.3018 0.590668 10.1743C0.464007 10.0467 0.400677 9.88866 0.400677 9.70011C0.400677 9.51155 0.464007 9.35478 0.590668 9.2298C0.717329 9.10482 0.874278 9.04234 1.06152 9.04234H3.26431C3.45155 9.04234 3.6085 9.10611 3.73516 9.23366C3.86182 9.36122 3.92515 9.51928 3.92515 9.70783C3.92515 9.8964 3.86182 10.0532 3.73516 10.1781C3.6085 10.3031 3.45155 10.3656 3.26431 10.3656H1.06152ZM16.9217 10.3656C16.7344 10.3656 16.5775 10.3018 16.4508 10.1743C16.3241 10.0467 16.2608 9.88866 16.2608 9.70011C16.2608 9.51155 16.3241 9.35478 16.4508 9.2298C16.5775 9.10482 16.7344 9.04234 16.9217 9.04234H19.1245C19.3117 9.04234 19.4686 9.10611 19.5953 9.23366C19.722 9.36122 19.7853 9.51928 19.7853 9.70783C19.7853 9.8964 19.722 10.0532 19.5953 10.1781C19.4686 10.3031 19.3117 10.3656 19.1245 10.3656H16.9217ZM10.0891 3.52872C9.90079 3.52872 9.74421 3.46531 9.61938 3.3385C9.49456 3.21168 9.43215 3.05455 9.43215 2.86708V0.661634C9.43215 0.474171 9.49584 0.317033 9.62324 0.19022C9.75065 0.0634066 9.90851 0 10.0968 0C10.2852 0 10.4418 0.0634066 10.5666 0.19022C10.6914 0.317033 10.7538 0.474171 10.7538 0.661634V2.86708C10.7538 3.05455 10.6901 3.21168 10.5627 3.3385C10.4353 3.46531 10.2775 3.52872 10.0891 3.52872ZM4.80627 5.33718L3.55068 4.10213C3.41851 3.96981 3.35515 3.81099 3.3606 3.62569C3.36603 3.44037 3.42864 3.28232 3.54841 3.15152C3.67905 3.02071 3.83692 2.9553 4.02201 2.9553C4.20709 2.9553 4.36571 3.02146 4.49788 3.15379L5.73145 4.4109C5.84893 4.54322 5.90767 4.6976 5.90767 4.87404C5.90767 5.05048 5.84893 5.20118 5.73145 5.32616C5.61396 5.45113 5.46344 5.51362 5.27987 5.51362C5.09631 5.51362 4.93844 5.45481 4.80627 5.33718ZM14.4545 5.33718C14.3224 5.20486 14.2563 5.05048 14.2563 4.87404C14.2563 4.6976 14.3224 4.54322 14.4545 4.4109L15.6881 3.15379C15.8203 3.02146 15.9789 2.95803 16.164 2.96348C16.3491 2.96892 16.5069 3.0316 16.6376 3.15152C16.7682 3.28232 16.8335 3.44037 16.8335 3.62569C16.8335 3.81099 16.7675 3.96981 16.6353 4.10213L15.3797 5.33718C15.2622 5.45481 15.1127 5.51362 14.9311 5.51362C14.7496 5.51362 14.5907 5.45481 14.4545 5.33718Z" fill="#034265"/>
<path d="M0 14H21V12.3827H0V14Z" fill="#034265"/>
</svg>
