<svg width="11" height="11" viewBox="0 0 11 11" fill="none" xmlns="http://www.w3.org/2000/svg">
<path fill-rule="evenodd" clip-rule="evenodd" d="M0.772369 5.56215C0.772369 2.80759 2.99887 0.574585 5.7454 0.574585C6.53845 0.574585 7.28948 0.761125 7.95591 1.0933C8.20188 1.21588 8.30219 1.51522 8.17995 1.7619C8.05771 2.00857 7.75923 2.10917 7.51331 1.98658C6.9813 1.72142 6.38145 1.5721 5.7454 1.5721C3.54818 1.5721 1.76698 3.3585 1.76698 5.56215C1.76698 7.7658 3.54818 9.5522 5.7454 9.5522C7.94264 9.5522 9.72383 7.7658 9.72383 5.56215C9.72383 5.41192 9.71557 5.26379 9.69951 5.1182C9.66932 4.84439 9.8662 4.5979 10.1392 4.56768C10.4121 4.53739 10.6579 4.73481 10.6881 5.00858C10.7081 5.19052 10.7184 5.37521 10.7184 5.56215C10.7184 8.31668 8.49191 10.5497 5.7454 10.5497C2.99887 10.5497 0.772369 8.31668 0.772369 5.56215ZM10.5728 1.71818C10.767 1.91296 10.767 2.22875 10.5728 2.42353L6.09704 6.91233C5.90285 7.10709 5.58795 7.10709 5.39376 6.91233L3.90184 5.41606C3.70764 5.2213 3.70764 4.90548 3.90184 4.71072C4.09606 4.51594 4.41093 4.51594 4.60514 4.71072L5.7454 5.85432L9.86949 1.71818C10.0637 1.5234 10.3786 1.5234 10.5728 1.71818Z" fill="#00B67A"/>
</svg>
