<svg width="12" height="12" viewBox="0 0 12 12" fill="none" xmlns="http://www.w3.org/2000/svg">
<g id="time 1" clip-path="url(#clip0_98_10)">
<g id="Group">
<g id="Group_2">
<path id="Vector" d="M6 12C9.30799 12 12 9.30799 12 6C12 2.69201 9.30803 0 6 0C2.69197 0 0 2.69201 0 6C0 9.30799 2.69201 12 6 12ZM6 0.799987C8.86799 0.799987 11.2 3.13198 11.2 6C11.2 8.86802 8.86802 11.2 6 11.2C3.13198 11.2 0.799987 8.86802 0.799987 6C0.799987 3.13198 3.13201 0.799987 6 0.799987Z" fill="#03A9F4"/>
<path id="Vector_2" d="M7.74961 7.91202C7.82362 7.97201 7.91159 8.00003 7.9996 8.00003C8.1176 8.00003 8.2336 7.94803 8.31159 7.85003C8.44959 7.67803 8.42157 7.42603 8.2496 7.28802L6.3996 5.80802V2.80002C6.3996 2.58001 6.21961 2.40002 5.9996 2.40002C5.7796 2.40002 5.59961 2.58001 5.59961 2.80002V6.00003C5.59961 6.12204 5.65562 6.23603 5.74961 6.31202L7.74961 7.91202Z" fill="#03A9F4"/>
</g>
</g>
</g>
<defs>
<clipPath id="clip0_98_10">
<rect width="12" height="12" fill="white"/>
</clipPath>
</defs>
</svg>
