<svg width="22" height="22" viewBox="0 0 22 22" fill="none" xmlns="http://www.w3.org/2000/svg">
<g clip-path="url(#clip0_80_61)">
<path d="M13.1326 5.365C14.4498 5.365 15.5176 4.29719 15.5176 2.97998C15.5176 1.66278 14.4498 0.594971 13.1326 0.594971C11.8154 0.594971 10.7476 1.66278 10.7476 2.97998C10.7476 4.29719 11.8154 5.365 13.1326 5.365Z" fill="#034265"/>
<path d="M19.0858 8.79761C16.9545 8.57839 14.8881 6.27207 14.3681 5.95268C14.049 5.72233 13.6717 5.57148 13.3107 5.51519C13.3107 5.51519 13.0541 5.46194 12.789 5.49121C12.5352 5.5194 12.1493 5.5325 11.5843 5.95367C11.5434 5.97911 11.2548 6.23038 11.1638 6.33989C10.4606 7.06879 8.51197 9.22432 7.54201 11.6627C7.40492 12.0091 7.4919 12.3853 7.73067 12.6391L6.59157 14.6688L4.9869 13.7674C4.79536 13.6596 4.55225 13.7269 4.44464 13.9187L1.40743 19.2855C1.2999 19.4771 1.36793 19.7213 1.55995 19.8279L2.77474 20.5111C2.58135 20.8553 2.62789 21.3006 2.92004 21.5966C3.27231 21.9562 3.85106 21.9606 4.21003 21.6073C4.5437 21.2781 4.57094 20.7555 4.28821 20.3952L5.94663 17.4855L7.10847 15.4152L8.54858 12.9187C8.85998 12.8692 9.13907 12.6616 9.26447 12.3467C9.67497 11.3131 10.3107 10.3173 10.9246 9.4921L11.2139 12.8169C11.2474 13.2075 11.4101 13.5351 11.6513 13.7937C10.9054 15.1463 8.8981 18.8451 8.17341 20.1018C7.84877 20.6657 8.04173 21.3863 8.60535 21.7114C8.81697 21.8326 9.05114 21.8826 9.27792 21.8663C9.65512 21.839 10.012 21.6306 10.2148 21.2788C10.89 20.1083 12.651 16.5559 13.4234 15.2206C14.0427 16.2497 15.0977 18.1434 16.4362 21.1674C16.6308 21.6081 17.062 21.8692 17.5147 21.8692C17.6748 21.8692 17.8361 21.837 17.9915 21.7681C18.5863 21.5049 18.8554 20.8091 18.5916 20.2144C17.0132 16.6458 15.851 14.6648 15.2071 13.6214C15.4616 13.302 15.6149 12.9048 15.5748 12.4388L15.301 9.2896C16.0942 9.92293 17.1292 10.4565 18.8964 10.6392C18.9293 10.6427 18.9611 10.6443 18.9932 10.6443C19.4613 10.6443 19.8638 10.2901 19.9129 9.81398C19.9644 9.3049 19.5948 8.84996 19.0858 8.79761ZM3.55174 21.3187C3.36823 21.3187 3.21941 21.1699 3.21941 20.9865C3.21941 20.8031 3.36823 20.6543 3.55174 20.6543C3.73503 20.6543 3.88389 20.8031 3.88389 20.9865C3.88381 21.17 3.73507 21.3187 3.55174 21.3187Z" fill="#034265"/>
</g>
<defs>
<clipPath id="clip0_80_61">
<rect width="21.2743" height="21.2743" fill="white" transform="translate(0 0.594971)"/>
</clipPath>
</defs>
</svg>
