<svg width="12" height="21" viewBox="0 0 12 21" fill="none" xmlns="http://www.w3.org/2000/svg">
<path d="M7.67837 0.383545H4.48263C3.71296 0.383545 3.0865 1.00964 3.0865 1.77967V6.08586H1.74912C1.04292 6.08586 0.471191 6.65831 0.471191 7.3638V18.1569C0.471191 18.8627 1.04292 19.4352 1.74912 19.4352H2.41112C2.41112 19.9587 2.83603 20.3835 3.3595 20.3835C3.88338 20.3835 4.30824 19.9586 4.30824 19.4352H8.26896C8.26896 19.9587 8.69387 20.3835 9.2177 20.3835C9.74122 20.3835 10.1661 19.9586 10.1661 19.4352H10.4122C11.1177 19.4352 11.6902 18.8627 11.6902 18.1569V7.36384C11.6902 6.65835 11.1177 6.08591 10.4122 6.08591H9.07373V1.77967C9.07413 1.01 8.44803 0.383545 7.67837 0.383545ZM4.17444 1.77967C4.17444 1.60965 4.31292 1.47117 4.48294 1.47117H7.67868C7.8487 1.47117 7.98682 1.60965 7.98682 1.77967V5.54205H6.84809V5.19765C6.84809 4.94205 6.50476 4.73541 6.08097 4.73541C5.65717 4.73541 5.3142 4.94205 5.3142 5.19765C5.3142 5.33685 5.3142 5.45758 5.3142 5.54205H4.17475V1.77967H4.17444ZM9.21806 17.1657C9.21806 17.3662 9.05602 17.5283 8.8555 17.5283H3.03026C2.82979 17.5283 2.66771 17.3662 2.66771 17.1657V11.7665C2.66771 11.566 2.82974 11.4039 3.03026 11.4039H8.8555C9.05598 11.4039 9.21806 11.5659 9.21806 11.7665V17.1657ZM9.21806 8.41119V9.26858C9.21806 9.46906 9.05602 9.63114 8.8555 9.63114H3.03026C2.82979 9.63114 2.66771 9.46911 2.66771 9.26858V8.41119C2.66771 8.21071 2.82974 8.04863 3.03026 8.04863H8.8555C9.05602 8.04863 9.21806 8.21071 9.21806 8.41119Z" fill="#034265"/>
</svg>
