<svg width="30" height="30" viewBox="0 0 30 30" fill="none" xmlns="http://www.w3.org/2000/svg">
<rect width="30" height="30" rx="5" fill="#03A9F4"/>
<path d="M24.75 8.77681C24.0446 9.08002 23.2984 9.28145 22.5346 9.37488C23.3398 8.90492 23.9417 8.1604 24.2262 7.28258C23.4725 7.72286 22.6478 8.03293 21.7879 8.19937C21.2609 7.6447 20.5765 7.25894 19.8238 7.09226C19.0711 6.92559 18.2848 6.9857 17.5672 7.26479C16.8497 7.54389 16.234 8.02904 15.8004 8.65714C15.3668 9.28525 15.1353 10.0272 15.1359 10.7866C15.1332 11.0765 15.1633 11.3657 15.2255 11.649C13.6958 11.5751 12.1991 11.1844 10.8333 10.5024C9.4675 9.82041 8.26322 8.86252 7.29915 7.69129C6.8036 8.52448 6.65008 9.51247 6.86995 10.4533C7.08983 11.3942 7.66649 12.2169 8.48209 12.7533C7.87333 12.7372 7.27746 12.577 6.74482 12.2865V12.3277C6.74653 13.2011 7.05368 14.0472 7.61462 14.7239C8.17556 15.4006 8.95611 15.8666 9.82505 16.0436C9.49621 16.1286 9.15734 16.1703 8.81736 16.1673C8.57255 16.1718 8.32796 16.1504 8.08778 16.1036C8.33672 16.8547 8.81601 17.5114 9.4597 17.9835C10.1034 18.4555 10.8799 18.7197 11.6823 18.7396C10.3225 19.7857 8.64606 20.354 6.92007 20.3538C6.61254 20.3564 6.30517 20.3389 6 20.3013C7.75989 21.4181 9.81126 22.0081 11.9052 21.9999C18.9819 21.9999 22.8508 16.2311 22.8508 11.231C22.8508 11.0641 22.8508 10.9029 22.8375 10.7416C23.5909 10.2064 24.239 9.54063 24.75 8.77681Z" fill="white"/>
</svg>
