<svg width="11" height="12" viewBox="0 0 11 12" fill="none" xmlns="http://www.w3.org/2000/svg">
<g id="unlock 1" clip-path="url(#clip0_88_384)">
<g id="Group">
<path id="Vector" d="M7.76214 5.31207H4.0109V3.0865C4.0109 2.30885 4.63448 1.67013 5.40098 1.6627C5.77727 1.6596 6.13364 1.80352 6.40224 2.06952C6.67088 2.33559 6.81884 2.6897 6.81884 3.06663V3.86186C6.81884 4.13075 7.0376 4.34949 7.30647 4.34949H7.59759C7.86646 4.34949 8.08522 4.13073 8.08522 3.86186V3.06663C8.08522 2.57485 7.95032 2.0941 7.69513 1.67636C7.65028 1.60295 7.55443 1.57982 7.48107 1.62466C7.4077 1.66949 7.38455 1.76532 7.42937 1.8387C7.65471 2.20754 7.77381 2.63213 7.77381 3.06661V3.86184C7.77381 3.95902 7.69475 4.03806 7.59759 4.03806H7.30647C7.20929 4.03806 7.13025 3.959 7.13025 3.86184V3.06661C7.13025 2.60593 6.94953 2.17324 6.62135 1.84823C6.2973 1.52732 5.86953 1.35123 5.41504 1.35123C5.40939 1.35123 5.40364 1.35125 5.39795 1.35131C4.46144 1.3604 3.69949 2.1388 3.69949 3.0865V5.31207H3.06758C3.06365 5.31207 3.05981 5.31234 3.05591 5.31236V3.06661C3.05591 1.76588 4.11414 0.707649 5.41487 0.707649C6.01973 0.707649 6.59492 0.936368 7.03451 1.35166C7.09697 1.4107 7.19552 1.40792 7.25463 1.34541C7.31367 1.2829 7.31087 1.18435 7.24836 1.12529C6.75073 0.655166 6.09957 0.39624 5.41487 0.39624C3.94243 0.39624 2.7445 1.59417 2.7445 3.06661V5.3506C2.13838 5.49649 1.68652 6.04288 1.68652 6.69312V8.36123C1.68652 8.44722 1.75622 8.51694 1.84223 8.51694C1.92824 8.51694 1.99793 8.44722 1.99793 8.36123V6.69312C1.99793 6.10332 2.47777 5.62346 3.06758 5.62346H7.76214C8.35195 5.62346 8.83179 6.10332 8.83179 6.69312V9.65231C8.83179 10.2421 8.35195 10.722 7.76214 10.722H3.06758C2.47777 10.722 1.99793 10.2421 1.99793 9.65231V9.0248C1.99793 8.93881 1.92824 8.8691 1.84223 8.8691C1.75622 8.8691 1.68652 8.93881 1.68652 9.0248V9.65231C1.68652 10.4138 2.30606 11.0334 3.06758 11.0334H7.76214C8.52368 11.0334 9.1432 10.4138 9.1432 9.65231V6.69314C9.14322 5.93161 8.52368 5.31207 7.76214 5.31207Z" fill="#034265"/>
<path id="Vector_2" d="M8.3232 7.33267C8.40921 7.33267 8.4789 7.26295 8.4789 7.17696V6.69318C8.4789 6.29796 8.15738 5.97644 7.76217 5.97644H6.97455C6.88854 5.97644 6.81885 6.04615 6.81885 6.13214C6.81885 6.21813 6.88854 6.28785 6.97455 6.28785H7.76217C7.98567 6.28785 8.1675 6.46967 8.1675 6.69318V7.17696C8.1675 7.26295 8.23719 7.33267 8.3232 7.33267Z" fill="#034265"/>
<path id="Vector_3" d="M2.50678 7.33267C2.59279 7.33267 2.66248 7.26295 2.66248 7.17696V6.69318C2.66248 6.46967 2.84432 6.28785 3.06781 6.28785H3.85543C3.94144 6.28785 4.01113 6.21813 4.01113 6.13214C4.01113 6.04615 3.94144 5.97644 3.85543 5.97644H3.06781C2.67259 5.97644 2.35107 6.29796 2.35107 6.69318V7.17696C2.35107 7.26295 2.42077 7.33267 2.50678 7.33267Z" fill="#034265"/>
<path id="Vector_4" d="M2.35107 9.6523C2.35107 10.0475 2.67259 10.369 3.06781 10.369H3.85543C3.94144 10.369 4.01113 10.2993 4.01113 10.2133C4.01113 10.1273 3.94144 10.0576 3.85543 10.0576H3.06781C2.8443 10.0576 2.66248 9.87581 2.66248 9.6523V9.16852C2.66248 9.08253 2.59279 9.01282 2.50678 9.01282C2.42077 9.01282 2.35107 9.08253 2.35107 9.16852V9.6523Z" fill="#034265"/>
<path id="Vector_5" d="M6.97455 10.369H7.76217C8.15738 10.369 8.4789 10.0475 8.4789 9.6523V9.16852C8.4789 9.08253 8.40921 9.01282 8.3232 9.01282C8.23719 9.01282 8.1675 9.08253 8.1675 9.16852V9.6523C8.1675 9.87581 7.98565 10.0576 7.76217 10.0576H6.97455C6.88854 10.0576 6.81885 10.1273 6.81885 10.2133C6.81885 10.2993 6.88854 10.369 6.97455 10.369Z" fill="#034265"/>
<path id="Vector_6" d="M5.36625 7.13035C5.49299 7.12154 5.61851 7.14803 5.72925 7.20722C5.80505 7.24779 5.89942 7.21914 5.93995 7.1433C5.98049 7.06746 5.95187 6.97313 5.87603 6.93258C5.71355 6.84572 5.52991 6.80675 5.34443 6.81969C4.85257 6.85421 4.46219 7.25182 4.43641 7.74457C4.41947 8.06835 4.563 8.37907 4.82037 8.57576C4.8327 8.58518 4.83856 8.60121 4.8353 8.61655L4.69214 9.28824C4.67146 9.38517 4.69535 9.48495 4.75772 9.56199C4.82006 9.63903 4.91267 9.68323 5.01179 9.68323H5.81788C5.91699 9.68323 6.0096 9.63905 6.07194 9.56199C6.13431 9.48495 6.1582 9.38517 6.13753 9.28824L5.9944 8.61672C5.99108 8.60111 5.998 8.58446 6.01249 8.57331C6.25534 8.38613 6.39463 8.10319 6.39463 7.79701C6.39463 7.71644 6.38458 7.63568 6.36473 7.55698C6.3437 7.47356 6.25912 7.42303 6.17568 7.44406C6.09231 7.46509 6.04176 7.54971 6.06279 7.63311C6.07637 7.68694 6.08324 7.7421 6.08324 7.79701C6.08324 8.00584 5.98818 8.19889 5.82244 8.32663C5.71212 8.41165 5.6613 8.54767 5.68987 8.68164L5.83299 9.35318C5.83338 9.35497 5.83451 9.36038 5.8299 9.36609C5.82525 9.37182 5.81972 9.37182 5.8179 9.37182H5.01181C5.00998 9.37182 5.00446 9.37182 4.99981 9.36609C4.99518 9.36038 4.99632 9.35497 4.99671 9.35316L5.13988 8.68143C5.16805 8.54902 5.1169 8.41042 5.00948 8.32833C4.83378 8.1941 4.73582 7.98194 4.74738 7.76087C4.76496 7.42494 5.03103 7.15387 5.36625 7.13035Z" fill="#034265"/>
<path id="Vector_7" d="M8.93158 3.6722C8.97142 3.6722 9.01128 3.65701 9.04169 3.62659L9.36965 3.29864C9.43045 3.23783 9.43045 3.13924 9.36965 3.07845C9.30882 3.01762 9.21025 3.01764 9.14944 3.07845L8.82148 3.4064C8.76068 3.46721 8.76068 3.5658 8.82148 3.62659C8.85188 3.65701 8.89174 3.6722 8.93158 3.6722Z" fill="#034265"/>
<path id="Vector_8" d="M9.04169 4.71822C8.98086 4.65741 8.88229 4.65739 8.82148 4.71822C8.76068 4.77903 8.76068 4.8776 8.82148 4.93841L9.14944 5.26636C9.17985 5.29678 9.21969 5.31197 9.25955 5.31197C9.29939 5.31197 9.33925 5.29678 9.36967 5.26636C9.43047 5.20555 9.43047 5.10698 9.36967 5.04618L9.04169 4.71822Z" fill="#034265"/>
<path id="Vector_9" d="M9.41092 4.01672H8.98774C8.90172 4.01672 8.83203 4.08644 8.83203 4.17243C8.83203 4.25842 8.90172 4.32813 8.98774 4.32813H9.41092C9.49693 4.32813 9.56662 4.25842 9.56662 4.17243C9.56662 4.08644 9.49691 4.01672 9.41092 4.01672Z" fill="#034265"/>
</g>
</g>
<defs>
<clipPath id="clip0_88_384">
<rect width="10.6371" height="10.6371" fill="white" transform="translate(0.308105 0.39624)"/>
</clipPath>
</defs>
</svg>
