<svg width="8" height="9" viewBox="0 0 8 9" fill="none" xmlns="http://www.w3.org/2000/svg">
<path d="M1.37098 6.76537C1.77648 6.47184 2.17876 6.24669 2.57782 6.08992C2.97689 5.93315 3.40491 5.85477 3.86191 5.85477C4.3189 5.85477 4.74853 5.93315 5.15082 6.08992C5.5531 6.24669 5.95699 6.47184 6.36249 6.76537C6.6457 6.40513 6.84684 6.04156 6.96591 5.67465C7.08499 5.30774 7.14453 4.92082 7.14453 4.51388C7.14453 3.54657 6.83075 2.7377 6.20319 2.08727C5.57563 1.43684 4.7952 1.11163 3.86191 1.11163C2.92861 1.11163 2.14819 1.43684 1.52063 2.08727C0.893066 2.7377 0.579286 3.54657 0.579286 4.51388C0.579286 4.92082 0.640433 5.30774 0.762726 5.67465C0.88502 6.04156 1.08777 6.40513 1.37098 6.76537ZM3.86011 4.81408C3.48799 4.81408 3.17481 4.6817 2.92057 4.41696C2.66632 4.15221 2.5392 3.82699 2.5392 3.44131C2.5392 3.05563 2.66692 2.73103 2.92236 2.46753C3.1778 2.20402 3.49158 2.07226 3.8637 2.07226C4.23582 2.07226 4.549 2.20464 4.80325 2.46939C5.05749 2.73413 5.18461 3.05935 5.18461 3.44503C5.18461 3.83071 5.05689 4.15531 4.80145 4.41882C4.54601 4.68232 4.23223 4.81408 3.86011 4.81408ZM3.86642 8.51653C3.33562 8.51653 2.83528 8.41146 2.36542 8.20132C1.89555 7.99118 1.48522 7.70432 1.13443 7.34075C0.783645 6.97718 0.506875 6.55268 0.304125 6.06725C0.101375 5.58182 0 5.06314 0 4.51122C0 3.95929 0.101375 3.4415 0.304125 2.95785C0.506875 2.4742 0.783645 2.05058 1.13443 1.68701C1.48522 1.32343 1.8948 1.03658 2.36316 0.826439C2.83152 0.6163 3.33196 0.51123 3.86447 0.51123C4.39699 0.51123 4.89657 0.6163 5.36322 0.826439C5.82987 1.03658 6.23859 1.32343 6.58938 1.68701C6.94017 2.05058 7.21694 2.4743 7.41969 2.95817C7.62244 3.44204 7.72381 3.95905 7.72381 4.5092C7.72381 5.05935 7.62244 5.57792 7.41969 6.06491C7.21694 6.55189 6.94017 6.97718 6.58938 7.34075C6.23859 7.70432 5.82977 7.99118 5.36291 8.20132C4.89606 8.41146 4.39723 8.51653 3.86642 8.51653ZM3.86191 7.91613C4.21591 7.91613 4.56188 7.86276 4.89979 7.75603C5.23771 7.64929 5.5708 7.4625 5.89906 7.19565C5.5708 6.9555 5.2361 6.77204 4.89497 6.64529C4.55383 6.51854 4.20948 6.45516 3.86191 6.45516C3.51433 6.45516 3.16998 6.51854 2.82885 6.64529C2.48771 6.77204 2.15301 6.9555 1.82475 7.19565C2.15301 7.4625 2.4861 7.64929 2.82402 7.75603C3.16194 7.86276 3.5079 7.91613 3.86191 7.91613ZM3.86191 4.21368C4.08075 4.21368 4.25936 4.14197 4.39775 3.99854C4.53613 3.85511 4.60532 3.66999 4.60532 3.44317C4.60532 3.21635 4.53613 3.03123 4.39775 2.8878C4.25936 2.74438 4.08075 2.67266 3.86191 2.67266C3.64306 2.67266 3.46445 2.74438 3.32607 2.8878C3.18768 3.03123 3.11849 3.21635 3.11849 3.44317C3.11849 3.66999 3.18768 3.85511 3.32607 3.99854C3.46445 4.14197 3.64306 4.21368 3.86191 4.21368Z" fill="#24A9E1"/>
</svg>
